<svg width="40" height="41" viewBox="0 0 40 41" fill="none" xmlns="http://www.w3.org/2000/svg">
<g clip-path="url(#clip0_230_134)">
<path d="M26.1149 18.7451C27.9789 18.7585 28.779 19.4827 29.0795 21.3738C31.2635 21.6086 32.0746 22.9077 31.9977 24.4453C33.3218 24.745 34.128 25.6037 34.5347 26.8734C34.7546 27.5596 34.6935 28.2165 34.3515 28.8624C33.3303 30.7877 32.3433 32.7314 31.31 34.6507C29.2774 38.4255 24.9154 40.6653 20.6842 40.0512C16.2379 39.4066 13.0107 36.9063 10.6642 33.1779C9.56609 31.4336 9.02375 29.4458 8.3788 27.5095C7.58971 25.1389 6.84216 22.7536 6.07384 20.3756C5.82221 19.5952 5.68662 18.8001 5.8442 17.9879C6.14835 16.4124 7.12432 15.3995 8.61943 14.9457C10.0266 14.5188 11.2347 15.0252 12.2338 16.0295C12.593 16.3904 12.9032 16.8283 13.1353 17.2833C13.8523 18.679 14.5205 20.1004 15.2082 21.5108C15.2351 21.5658 15.2522 21.6294 15.2925 21.6722C15.4439 21.8325 15.6027 21.9866 15.7591 22.142C15.9105 21.9866 16.1097 21.8557 16.2074 21.6722C18.3523 17.6001 20.4826 13.5194 22.6276 9.4461C22.8682 8.98983 23.1381 8.53724 23.4692 8.14581C24.9203 6.4284 27.5771 6.50179 28.9085 8.31706C29.8979 9.66628 30.1947 11.0864 29.2994 12.6669C28.2562 14.509 27.3181 16.4111 26.336 18.2888C26.2664 18.4209 26.2041 18.5579 26.1125 18.7451H26.1149Z" fill="#FF8C00"/>
<path d="M19.9013 2.31232C19.9013 1.99183 19.8805 1.67135 19.9049 1.35208C19.9599 0.638944 20.4766 0.153323 21.1557 0.1521C21.8178 0.1521 22.3491 0.60714 22.3956 1.3056C22.4408 1.98816 22.442 2.67806 22.3956 3.36062C22.3479 4.07621 21.7934 4.53614 21.1118 4.51535C20.4558 4.49455 19.9587 4.0126 19.9062 3.31781C19.8805 2.98509 19.9013 2.64748 19.9013 2.31232Z" fill="#FF8C00"/>
<path d="M13.6387 6.51901C13.1904 6.508 12.8472 6.30005 12.62 5.92574C12.2877 5.37896 11.9616 4.82851 11.6623 4.26338C11.3325 3.63953 11.5316 2.92761 12.0996 2.58389C12.6981 2.22181 13.4225 2.38328 13.8134 3.00345C14.1615 3.55757 14.4962 4.1227 14.7881 4.70863C15.2266 5.59058 14.6049 6.54714 13.6387 6.51901Z" fill="#FF8C00"/>
<path d="M9.45996 10.7416C9.46851 11.6431 8.56338 12.2828 7.74497 11.8987C7.08659 11.5892 6.45629 11.2088 5.85043 10.8052C5.30198 10.4394 5.19205 9.73973 5.52185 9.17949C5.84677 8.62904 6.51859 8.3954 7.10736 8.69142C7.73154 9.00457 8.35694 9.33606 8.91883 9.74585C9.2071 9.95502 9.35736 10.3538 9.5699 10.6669L9.45874 10.7416H9.45996Z" fill="#FF8C00"/>
</g>
<defs>
<clipPath id="clip0_230_134">
<rect width="40" height="40" fill="white" transform="translate(0 0.1521)"/>
</clipPath>
</defs>
</svg>
