<svg width="40" height="41" viewBox="0 0 40 41" fill="none" xmlns="http://www.w3.org/2000/svg">
<g clip-path="url(#clip0_230_153)">
<path d="M20.0319 11.6323H19.9952C17.6985 11.6423 15.5529 12.5418 13.951 14.1649C12.3491 15.7892 11.4731 17.9544 11.4853 20.2633C11.5086 24.9234 15.3462 28.7029 20.0452 28.7029H20.0764C24.7465 28.6862 28.5396 24.8622 28.5318 20.1798C28.5285 17.8832 27.6302 15.7268 26.0049 14.1081C24.4008 12.5117 22.2808 11.6334 20.0308 11.6334H20.0319V11.6323ZM20.0608 26.8326C16.3856 26.846 13.3707 23.8825 13.3529 20.2399C13.3351 16.515 16.2911 13.517 19.9985 13.5014C23.6682 13.4858 26.6597 16.4805 26.6664 20.1754C26.672 23.809 23.6849 26.8193 20.0619 26.8326H20.0608Z" fill="#FF5500"/>
<path d="M39.9775 18.7782C39.9553 16.5661 38.2911 14.874 36.0877 14.8384C35.4707 14.8283 35.0027 14.6157 34.7604 14.0335C34.5225 13.4602 34.7248 12.9948 35.1339 12.564C36.6869 10.9264 36.668 8.60526 35.0961 6.99216C34.4569 6.33645 33.8277 5.66739 33.1462 5.05844C32.7505 4.70442 32.2947 4.36377 31.8055 4.17674C30.218 3.57113 28.7907 3.90177 27.5556 5.07402C26.8986 5.69856 25.9848 5.63733 25.5568 4.91372C25.4112 4.66657 25.3511 4.33928 25.3411 4.04649C25.2788 2.0983 23.9604 0.488534 22.035 0.246958C20.8877 0.102235 19.7105 0.163464 18.5476 0.173484C16.6344 0.190182 15.0692 1.54835 14.7468 3.43532C14.7079 3.66687 14.6879 3.904 14.6846 4.13778C14.6768 4.72446 14.4266 5.16197 13.8853 5.38796C13.3383 5.61729 12.8636 5.45364 12.4434 5.05065C11.1772 3.83609 9.51745 3.54219 7.99667 4.2491C7.11066 4.66101 4.5338 7.23262 4.11692 8.121C3.41323 9.61832 3.69561 11.296 4.87732 12.5484C5.22194 12.9136 5.43983 13.3065 5.32088 13.8209C5.16858 14.481 4.70499 14.8172 3.94238 14.8328C1.96693 14.8751 0.365002 16.191 0.112651 18.1436C-0.0318674 19.2647 0.0337314 20.4158 0.0392898 21.5524C0.0492949 23.76 1.72459 25.4566 3.92683 25.4922C4.54381 25.5022 5.01071 25.716 5.25306 26.2971C5.49207 26.8704 5.28753 27.338 4.87955 27.7677C3.32542 29.4053 3.3443 31.7197 4.91844 33.3384C5.54765 33.9852 6.18575 34.6231 6.83052 35.2532C8.44913 36.8351 10.7481 36.8619 12.3945 35.3078C12.8414 34.8858 13.3172 34.6921 13.9019 34.9437C14.4844 35.1942 14.6745 35.6762 14.6834 36.2874C14.7101 38.2167 16.0275 39.8465 17.9373 40.0703C19.2758 40.2272 20.6465 40.1103 22.0016 40.1092C22.1373 40.1092 22.2751 40.0669 22.4085 40.0313C24.1138 39.5793 25.2778 38.092 25.3344 36.3175C25.3422 36.0603 25.3722 35.782 25.4778 35.5527C25.8525 34.7456 26.8552 34.5986 27.5334 35.2521C28.3293 36.0191 29.2564 36.4455 30.6649 36.4488C31.4276 36.4477 32.3569 36.0603 33.164 35.2677C33.8077 34.6353 34.4469 33.9997 35.075 33.3518C35.2951 33.1247 35.5019 32.8742 35.6697 32.6059C36.6391 31.0629 36.4268 29.1448 35.1339 27.7799C34.7882 27.4148 34.5703 27.0218 34.6903 26.5086C34.8404 25.8618 35.3084 25.5122 36.0266 25.4967C38.3144 25.4466 39.9619 23.7745 39.9753 21.4834C39.9808 20.5805 39.983 19.6777 39.9753 18.7759L39.9775 18.7782ZM27.3966 27.5228C25.4311 29.5044 22.8354 30.6009 20.0873 30.6109H20.0495C14.2999 30.6109 9.60641 25.9843 9.57862 20.2788C9.56528 17.4579 10.6358 14.8105 12.5957 12.8234C14.5556 10.8362 17.1814 9.73522 19.9895 9.72408C22.7553 9.71406 25.3733 10.7884 27.3477 12.7532C29.3354 14.7326 30.4337 17.3699 30.4382 20.1786C30.4426 22.9328 29.3632 25.5412 27.3966 27.5228Z" fill="#FF5500"/>
</g>
<defs>
<clipPath id="clip0_230_153">
<rect width="40" height="40" fill="white" transform="translate(0 0.1521)"/>
</clipPath>
</defs>
</svg>
