<svg width="40" height="41" viewBox="0 0 40 41" fill="none" xmlns="http://www.w3.org/2000/svg">
<g clip-path="url(#clip0_230_181)">
<path d="M16.7076 19.2735C16.2857 18.9814 15.9461 19.334 15.5659 19.4904C15.7441 19.8701 15.9066 20.2196 16.0878 20.6066C16.4826 20.4074 16.9576 20.3583 16.9826 19.8555C16.992 19.6615 16.8639 19.3819 16.7076 19.2735Z" fill="#FF5500"/>
<path d="M38.6652 17.2539C38.1089 16.6906 37.5006 16.1794 36.937 15.6234C36.4485 15.1415 35.9745 14.6429 35.5308 14.1203C35.3724 13.9346 35.2558 13.6613 35.237 13.4193C35.1776 12.6838 35.1578 11.9432 35.1568 11.2036C35.1558 10.3722 35.2401 9.53873 35.2005 8.71046C35.1078 6.7243 34.0453 5.44853 32.1995 5.0563C31.8088 4.97285 31.4015 4.93113 31.0015 4.93426C29.8213 4.94469 28.6411 4.99893 27.4598 5.01353C26.7328 5.02292 26.0817 4.79343 25.5577 4.26559C25.2109 3.9151 24.8744 3.55521 24.5286 3.20367C23.8192 2.48285 23.1671 1.68901 22.3817 1.06208C20.8369 -0.171972 19.0931 -0.146937 17.566 1.11319C16.8097 1.737 16.1806 2.5131 15.4816 3.20784C14.9951 3.69186 14.5014 4.17067 13.9805 4.61609C13.7951 4.77465 13.5232 4.89253 13.2816 4.91235C12.5472 4.97285 11.8076 4.99372 11.0701 4.9958C10.2274 4.99789 9.38154 4.90818 8.54195 4.95199C6.56589 5.05526 5.26796 6.14223 4.92004 7.98652C4.80337 8.60615 4.80025 9.25395 4.80233 9.88818C4.80441 10.8228 4.87212 11.7575 4.8815 12.6932C4.88775 13.4182 4.67212 14.0754 4.13982 14.5991C3.78878 14.9454 3.43357 15.2865 3.08044 15.6318C2.3846 16.3119 1.62105 16.9368 1.00958 17.6868C-0.298763 19.2901 -0.299804 21.0322 1.00646 22.6345C1.61792 23.3845 2.38772 24.002 3.07419 24.6926C3.55753 25.1797 4.03774 25.6732 4.48253 26.1937C4.64087 26.3794 4.76066 26.6506 4.78045 26.8926C4.84087 27.628 4.86275 28.3687 4.86483 29.1083C4.86691 29.9396 4.7815 30.7731 4.819 31.6014C4.91483 33.7263 6.08672 35.0459 8.19403 35.3171C9.09925 35.4339 10.0451 35.4381 10.9493 35.3202C12.8722 35.0688 14.3753 35.5967 15.5754 37.1895C16.592 38.5394 17.7629 39.7828 19.5441 40.1521H20.4796C22.29 39.7766 23.3858 38.4413 24.5181 37.1478C24.8504 36.7681 25.214 36.4134 25.5692 36.0536C26.0921 35.5236 26.7484 35.3046 27.4734 35.3129C28.4203 35.3234 29.3661 35.3922 30.312 35.3943C30.9328 35.3964 31.5661 35.3901 32.1713 35.2743C34.0287 34.9176 35.1037 33.6157 35.2026 31.6087C35.2433 30.794 35.1589 29.973 35.1599 29.1552C35.162 28.4041 35.1808 27.651 35.2391 26.902C35.2578 26.66 35.3755 26.3877 35.5339 26.202C35.9776 25.6794 36.4526 25.1818 36.9401 24.6999C37.5037 24.1439 38.1099 23.6317 38.6672 23.0694C39.3402 22.3914 39.7631 21.5652 39.9725 20.6306V19.6938C39.7631 18.7591 39.3391 17.933 38.6683 17.2539H38.6652ZM12.5451 25.0201C12.2097 25.187 11.868 25.3425 11.4909 25.5209C11.8232 26.2375 12.1659 26.9322 12.4639 27.6458C12.5743 27.9097 12.6441 28.2237 12.6201 28.5043C12.5753 29.0248 12.1607 29.4264 11.6816 29.5213C11.1649 29.6236 10.6493 29.4118 10.3618 28.9716C10.2909 28.8631 10.2368 28.7442 10.1826 28.6263C9.18987 26.4972 8.1982 24.3671 7.2086 22.237C6.78881 21.3326 7.00964 20.7224 7.90548 20.3009C8.57424 19.9869 9.24196 19.6698 9.91488 19.3642C10.6118 19.0481 11.3347 19.2912 11.6347 19.9285C11.9357 20.568 11.6607 21.2846 10.9774 21.6205C10.6409 21.7864 10.2993 21.9387 9.90759 22.1223C10.0899 22.5114 10.2524 22.8598 10.4357 23.2499C10.7972 23.082 11.1326 22.9244 11.4701 22.7711C12.1659 22.455 12.8878 22.6877 13.1951 23.3261C13.5014 23.9624 13.2295 24.6801 12.5462 25.0191H12.5451V25.0201ZM19.8119 25.1516C19.0921 24.7395 18.392 24.2899 17.5764 23.7913C17.817 24.3191 18.0243 24.7395 18.2025 25.1724C18.3962 25.6439 18.3327 26.0956 18.0014 26.4879C17.6868 26.8592 17.2733 26.9729 16.8056 26.879C16.3952 26.7966 16.1024 26.5484 15.9274 26.1749C14.8701 23.9165 13.8139 21.657 12.7691 19.3934C12.5243 18.8624 12.6472 18.1771 13.1295 17.9288C14.0233 17.4688 14.9399 16.9847 15.9045 16.7459C17.1504 16.4381 18.2139 16.9681 18.941 18.0237C19.6691 19.0804 19.6816 20.2091 19.0754 21.342C19.0212 21.4432 18.9618 21.5402 18.8868 21.6706C19.59 22.0962 20.2744 22.5134 20.9619 22.9255C21.4056 23.1915 21.6837 23.5587 21.6817 24.0938C21.6765 25.0598 20.666 25.6408 19.8129 25.1526H19.8119V25.1516ZM26.5984 22.5979C25.8755 22.9505 25.1452 23.2885 24.4109 23.6161C23.7046 23.9311 23.039 23.6995 22.7119 23.0048C21.6556 20.761 20.6087 18.5119 19.5691 16.2598C19.2546 15.5765 19.515 14.8838 20.1941 14.5563C20.9181 14.2068 21.6473 13.8657 22.3817 13.5382C23.0265 13.2503 23.7463 13.5131 24.039 14.1223C24.3327 14.7357 24.0879 15.4565 23.4598 15.783C23.1046 15.9677 22.7369 16.1273 22.3473 16.3109C22.5244 16.6927 22.691 17.0525 22.8681 17.4364C23.2483 17.2622 23.5973 17.0964 23.9504 16.9399C24.6494 16.6322 25.3682 16.8815 25.663 17.5282C25.9525 18.1645 25.6921 18.8572 25.0234 19.1962C24.6775 19.3715 24.3223 19.529 23.9296 19.7136C24.1046 20.0892 24.2702 20.4459 24.4536 20.8402C24.8536 20.6535 25.1911 20.4887 25.5348 20.3364C26.2088 20.037 26.9286 20.278 27.2317 20.8976C27.5432 21.5329 27.2807 22.2641 26.5973 22.5969L26.5984 22.5979ZM32.2068 19.9755C31.5057 20.3124 30.8005 20.641 30.0911 20.9602C29.3536 21.293 28.6859 21.052 28.3421 20.3187C27.3015 18.0978 26.265 15.8748 25.2359 13.6487C24.8973 12.9154 25.1515 12.2509 25.8848 11.9004C26.5869 11.5645 27.2921 11.238 28.0005 10.9157C28.7026 10.5965 29.4172 10.8333 29.7234 11.4759C30.0297 12.1184 29.7609 12.8278 29.0734 13.1679C28.7286 13.3389 28.3776 13.4985 28.0005 13.6769C28.1786 14.0597 28.3401 14.4082 28.5244 14.8035C28.8765 14.6387 29.2109 14.4791 29.5474 14.3258C30.2703 13.9972 30.9963 14.2235 31.3057 14.8703C31.6182 15.5243 31.338 16.2285 30.6213 16.5821C30.2859 16.7479 29.9453 16.9034 29.5859 17.0734C29.7286 17.3864 29.862 17.6795 29.9984 17.9716C30.0307 18.0394 30.0734 18.103 30.1245 18.1896C30.4776 18.0258 30.8161 17.8652 31.1578 17.7129C31.8568 17.401 32.5766 17.644 32.8745 18.2876C33.1734 18.9334 32.8995 19.6417 32.2078 19.9744H32.2068V19.9755Z" fill="#FF5500"/>
</g>
<defs>
<clipPath id="clip0_230_181">
<rect width="40" height="40" fill="white" transform="translate(0 0.1521)"/>
</clipPath>
</defs>
</svg>
