<svg width="40" height="41" viewBox="0 0 40 41" fill="none" xmlns="http://www.w3.org/2000/svg">
<g clip-path="url(#clip0_230_164)">
<g clip-path="url(#clip1_230_164)">
<path d="M20 40.1521C31.0457 40.1521 40 31.1978 40 20.1521C40 9.10641 31.0457 0.1521 20 0.1521C8.95431 0.1521 0 9.10641 0 20.1521C0 31.1978 8.95431 40.1521 20 40.1521Z" fill="#FF8C00"/>
<path d="M20.6508 15.2455C19.1907 17.43 17.7306 19.5918 16.2988 21.7707C16.1064 22.0593 16.0045 22.4272 15.9309 22.7724C15.846 23.1459 15.6706 23.4458 15.2971 23.3553C15.0651 23.2987 14.7312 22.9874 14.7312 22.795C14.7312 22.3479 14.7991 21.8329 15.0311 21.4707C16.2535 19.5692 17.5382 17.7073 18.8002 15.8284C19.5076 14.7758 19.9207 13.6269 19.9887 12.2347C19.7623 12.4441 19.6095 12.5743 19.468 12.7158C17.6061 14.5777 15.7329 16.434 13.8823 18.3128C13.554 18.6467 13.2145 18.8052 12.7447 18.7939C11.511 18.7656 10.2773 18.7769 9.03789 18.7882C7.23823 18.7995 6.05543 19.971 6.04412 21.765C6.0328 24.0684 6.04412 26.3774 6.04412 28.6807C6.04412 28.8222 6.05543 28.958 6.06675 29.1334H7.77586C7.77586 28.9184 7.77586 28.7033 7.77586 28.4883C7.77586 26.4679 7.77586 24.4532 7.77586 22.4328C7.77586 21.9801 7.84378 21.5443 8.37575 21.533C8.953 21.5217 9.02091 21.9801 9.01525 22.4498C9.0096 24.4475 9.01525 26.4453 9.01525 28.443C9.01525 28.6637 9.01525 28.8844 9.01525 29.1334H14.7029C14.7029 28.7033 14.7029 28.2789 14.7029 27.8544C14.6972 27.43 14.8557 27.0904 15.3084 27.0848C15.7612 27.0735 15.9423 27.396 15.9366 27.8318C15.9366 28.426 15.9366 29.0259 15.9366 29.6201C15.9366 30.1238 15.6989 30.3955 15.1896 30.3955C11.9807 30.3955 8.76624 30.3955 5.55742 30.3955C5.05374 30.3955 4.81605 30.1238 4.81605 29.6201C4.81605 26.8641 4.78775 24.1023 4.83302 21.3462C4.86698 19.3598 6.61571 17.6677 8.62476 17.5602C8.82284 17.5488 9.02657 17.5602 9.34915 17.5602C8.68701 16.5981 8.67004 15.5964 8.73795 14.589C8.85113 12.9025 10.2037 11.6292 11.8619 11.6292C13.5201 11.6292 14.867 12.9082 14.9858 14.5947C15.0028 14.8154 15.0141 15.0418 15.0311 15.3643C15.2179 15.2059 15.3537 15.104 15.4725 14.9852C16.7572 13.7062 18.0362 12.4272 19.3152 11.1425C20.2207 10.2427 21.0526 10.2483 21.9694 11.1651C23.2201 12.4158 24.4708 13.6665 25.7272 14.9173C25.8687 15.0587 26.0158 15.1832 26.2252 15.3813C26.2479 15.0644 26.2592 14.8437 26.2762 14.623C26.395 12.8969 27.7476 11.6122 29.434 11.6235C31.0866 11.6349 32.4278 12.9195 32.5297 14.6117C32.5919 15.602 32.5806 16.5868 31.9581 17.4979C32.4052 17.5488 32.7844 17.5602 33.1579 17.6394C35.116 18.0355 36.4403 19.6428 36.4459 21.6235C36.4516 24.2381 36.4459 26.8527 36.4459 29.4673C36.4459 30.2257 36.2648 30.4011 35.4952 30.4011C32.4278 30.4011 29.3605 30.4011 26.2931 30.4011C25.5008 30.4011 25.331 30.2257 25.331 29.4107C25.331 27.2263 25.3424 25.0474 25.3141 22.8629C25.3141 22.5234 25.1839 22.1385 24.9971 21.8499C23.9162 20.1974 22.7957 18.5732 21.7034 16.9263C21.3299 16.366 20.996 15.7888 20.6678 15.2512L20.6508 15.2455ZM21.2337 12.2178C21.3356 13.6552 21.7487 14.821 22.4674 15.8793C23.6898 17.6847 24.8953 19.5013 26.129 21.2953C26.4233 21.7197 26.5648 22.1442 26.5535 22.6648C26.5308 24.6003 26.5421 26.5358 26.5421 28.4713C26.5421 28.6864 26.5421 28.9071 26.5421 29.1278H32.2297C32.2297 28.8957 32.2297 28.6977 32.2297 28.4996C32.2297 27.2828 32.2354 26.0718 32.2297 24.855C32.2297 24.3909 32.3316 23.9835 32.8693 23.9948C33.3616 24.0061 33.4748 24.3909 33.4691 24.8324C33.4578 25.7605 33.4691 26.683 33.4691 27.6111C33.4691 28.1148 33.4691 28.6241 33.4691 29.1278H35.1782C35.1839 28.958 35.2009 28.8222 35.2009 28.6807C35.2009 26.3774 35.2122 24.0684 35.2009 21.765C35.1896 19.971 34.0124 18.7995 32.2128 18.7826C30.979 18.7712 29.7396 18.7599 28.5059 18.7882C28.0362 18.7995 27.6966 18.6467 27.3684 18.3128C25.5178 16.4396 23.6502 14.5777 21.7827 12.7158C21.6412 12.5743 21.494 12.4441 21.2394 12.2121L21.2337 12.2178ZM13.7691 15.3417C13.7464 15.0021 13.7464 14.7758 13.7181 14.5551C13.6106 13.576 12.824 12.8629 11.8562 12.8573C10.8885 12.8516 10.0735 13.559 9.97734 14.5268C9.93206 14.9738 9.93206 15.4323 9.97734 15.8737C10.0622 16.7735 10.7866 17.4526 11.6751 17.5375C12.5297 17.6167 13.3786 17.0848 13.6333 16.2585C13.7351 15.9303 13.7351 15.5737 13.7691 15.3417ZM27.3854 15.1946L27.4759 15.2229C27.4872 15.4096 27.4872 15.5907 27.5042 15.7775C27.6004 16.8018 28.3701 17.5319 29.3661 17.5488C30.3792 17.5602 31.1884 16.8188 31.2733 15.7662C31.3073 15.3417 31.3016 14.9059 31.2563 14.4758C31.1715 13.6779 30.5603 13.0553 29.7566 12.8856C29.0266 12.7328 28.155 13.0667 27.8098 13.7514C27.5891 14.1929 27.5212 14.7135 27.391 15.1946H27.3854Z" fill="white"/>
<path d="M20 3.70615C20 3.1289 20 2.55731 20 1.98006C20 1.57825 20.1698 1.27265 20.5886 1.25567C21.0413 1.23869 21.2337 1.54995 21.2337 1.98006C21.2337 3.1289 21.2337 4.27774 21.2337 5.42658C21.2337 5.83971 21.0243 6.12267 20.6169 6.12267C20.2094 6.12267 20 5.83971 20 5.42658C20 4.84933 20 4.27774 20 3.70049V3.70615Z" fill="white"/>
<path d="M26.661 5.40397C26.644 5.50583 26.6497 5.53413 26.6383 5.54545C25.9423 6.2472 25.2518 6.95462 24.5218 7.62242C24.4652 7.67901 24.0803 7.50923 23.9785 7.35643C23.8823 7.20929 23.854 6.86407 23.9558 6.75088C24.5161 6.12836 25.1103 5.52847 25.7329 4.9682C25.846 4.86633 26.1743 4.90029 26.3497 4.97952C26.5025 5.05309 26.5818 5.28512 26.6553 5.39831L26.661 5.40397Z" fill="white"/>
<path d="M17.3118 7.02252C17.2099 7.15269 17.1137 7.39038 16.9383 7.46395C16.7629 7.53752 16.4516 7.5262 16.3214 7.41302C15.7555 6.90934 15.2122 6.38302 14.7255 5.81143C14.6067 5.67561 14.6293 5.26248 14.7538 5.10968C14.8783 4.96253 15.3197 4.85501 15.4329 4.95688C16.0611 5.50017 16.6383 6.11137 17.2213 6.7056C17.2722 6.75654 17.2665 6.8584 17.3061 7.02818L17.3118 7.02252Z" fill="white"/>
<path d="M16.0046 25.4945C15.7895 25.6586 15.5914 25.9076 15.3481 25.9585C14.9802 26.0434 14.669 25.7831 14.7256 25.4152C14.7595 25.1889 15.0538 24.8663 15.2575 24.8436C15.4896 24.821 15.7499 25.087 15.9932 25.2285V25.4945H16.0046Z" fill="white"/>
<path d="M33.7238 22.1838C33.2937 22.4328 33.0277 22.7101 32.7957 22.6875C32.5919 22.6648 32.2411 22.2573 32.2807 22.1045C32.3429 21.8669 32.6655 21.5839 32.9089 21.5556C33.0956 21.533 33.3276 21.8669 33.7181 22.1894L33.7238 22.1838Z" fill="white"/>
</g>
</g>
<defs>
<clipPath id="clip0_230_164">
<rect width="40" height="40" fill="white" transform="translate(0 0.1521)"/>
</clipPath>
<clipPath id="clip1_230_164">
<rect width="40" height="40" fill="white" transform="translate(0 0.1521)"/>
</clipPath>
</defs>
</svg>
