<svg width="40" height="41" viewBox="0 0 40 41" fill="none" xmlns="http://www.w3.org/2000/svg">
<g clip-path="url(#clip0_230_98)">
<path d="M2.16988 8.48928C8.86167 8.46648 15.5524 8.48168 22.2431 8.46648C22.6649 8.46648 22.8395 8.59462 22.9859 8.98772C23.7742 11.0933 25.9257 12.5908 28.1649 12.6397C30.6254 12.694 32.8398 11.2193 33.7181 8.90411C33.8482 8.55878 34.0098 8.46213 34.3622 8.46756C35.6115 8.49037 36.8618 8.49688 38.111 8.46322C38.4873 8.45236 38.8961 8.36223 39.2236 8.18631C39.8536 7.84858 40.1215 7.08409 39.9425 6.39996C39.7474 5.65175 39.1401 5.14897 38.3528 5.13919C37.0515 5.12291 35.7481 5.10879 34.4479 5.14571C34.0001 5.15983 33.832 5.0002 33.6758 4.606C32.9992 2.90544 31.7564 1.77064 30.0236 1.22768C27.125 0.319845 24.0573 1.82928 22.9642 4.67985C22.8232 5.04906 22.6443 5.14245 22.2637 5.14245C15.548 5.12833 8.83022 5.14245 2.11349 5.12073C1.07681 5.11639 0.35244 5.4552 0.00326538 6.46185V7.16662C0.378465 8.17979 1.1332 8.49254 2.17205 8.4882L2.16988 8.48928ZM28.3276 4.29977C29.6885 4.29326 30.8521 5.46063 30.8336 6.81478C30.8152 8.18739 29.7069 9.2907 28.3417 9.29504C26.9721 9.29938 25.8617 8.20151 25.8465 6.8289C25.8313 5.44977 26.9537 4.30629 28.3287 4.29977H28.3276Z" fill="#FF8C00"/>
<path d="M39.8851 32.9095C39.6205 32.2167 39.0186 31.8356 38.1489 31.8312C36.8607 31.8258 35.5713 31.8204 34.2831 31.8367C33.9892 31.841 33.8439 31.7585 33.7463 31.4739C33.4253 30.5444 32.8669 29.7734 32.1349 29.1164C29.1832 26.4711 24.401 27.6102 22.9848 31.3187C22.8362 31.7096 22.6638 31.8399 22.2431 31.8399C15.4873 31.8247 8.73153 31.8312 1.97468 31.828C1.42489 31.828 0.891364 31.8953 0.507488 32.3264C0.298201 32.562 0.165912 32.8661 0 33.1398V33.8434C0.349175 34.8512 1.07354 35.1889 2.11022 35.1846C8.81503 35.1618 15.5177 35.177 22.2225 35.1618C22.6345 35.1618 22.8221 35.2682 22.9772 35.6613C23.6506 37.3781 24.8966 38.5271 26.6446 39.0765C29.5345 39.9855 32.6218 38.4695 33.7073 35.6265C33.8504 35.2519 34.0272 35.1531 34.4078 35.1607C35.7091 35.1857 37.0114 35.1857 38.3127 35.1661C39.5218 35.1487 40.3047 34.0074 39.8861 32.9074L39.8851 32.9095ZM28.3135 36.0088C26.9439 35.986 25.8443 34.8718 25.8443 33.5057C25.8443 32.1396 26.9439 31.0233 28.3135 31.0135C29.6907 31.0027 30.8391 32.1396 30.8326 33.5057C30.826 34.8805 29.6679 36.0305 28.3135 36.0088Z" fill="#FF8C00"/>
<path d="M2.0918 21.8288C3.28788 21.7854 4.48721 21.8321 5.68329 21.8103C6.01295 21.8049 6.15068 21.9146 6.26779 22.2176C6.93253 23.9507 8.15788 25.1333 9.91459 25.7099C12.8056 26.6579 15.9384 25.1517 17.0315 22.3066C17.1724 21.9374 17.3405 21.8049 17.7526 21.806C24.4682 21.8212 31.185 21.8169 37.9006 21.8169C38.0828 21.8169 38.265 21.8168 38.4461 21.8049C39.2518 21.7506 39.8861 21.149 39.9859 20.3487C40.0835 19.5625 39.5999 18.8001 38.8245 18.5786C38.5556 18.5026 38.2595 18.4939 37.9776 18.4939C31.2348 18.4885 24.4932 18.4863 17.7504 18.5015C17.3383 18.5015 17.1724 18.3679 17.0271 18.002C16.3559 16.3014 15.1305 15.1547 13.4009 14.5933C10.511 13.655 7.38797 15.1655 6.29599 18.0183C6.15827 18.3799 5.99777 18.5113 5.60305 18.5004C4.43299 18.47 3.25969 18.5232 2.08963 18.4798C1.04644 18.4418 0.328571 18.8186 0 19.8394V19.8415V20.4681C0.328571 21.4889 1.04753 21.8657 2.08963 21.8277L2.0918 21.8288ZM11.6822 17.6512C13.0442 17.661 14.1535 18.7795 14.1568 20.1467C14.1611 21.5291 13.0279 22.6639 11.6551 22.653C10.2974 22.6422 9.17722 21.5171 9.17072 20.1586C9.16313 18.7925 10.3169 17.6415 11.6822 17.6512Z" fill="#FF8C00"/>
</g>
<defs>
<clipPath id="clip0_230_98">
<rect width="40" height="40" fill="white" transform="translate(0 0.1521)"/>
</clipPath>
</defs>
</svg>
