<svg width="40" height="41" viewBox="0 0 40 41" fill="none" xmlns="http://www.w3.org/2000/svg">
<g clip-path="url(#clip0_230_193)">
<path fill-rule="evenodd" clip-rule="evenodd" d="M30.8392 27.8259C30.3904 29.0962 28.6065 30.1471 27.1839 30.4544C26.21 30.6612 24.9401 30.8247 20.661 29.0515C15.855 27.0604 9.18141 19.9677 9.18141 15.2478C9.18141 12.845 10.5668 10.0471 12.9893 10.0471C14.155 10.0471 14.412 10.0699 14.7955 10.99C15.2443 12.074 16.3392 14.7449 16.4695 15.0187C17.0077 16.1419 15.9221 16.7994 15.1344 17.7773C14.883 18.0715 14.5982 18.3898 14.9166 18.9374C15.2331 19.4739 16.328 21.2583 17.9368 22.6906C20.0149 24.5421 21.7001 25.1332 22.3034 25.3846C22.7522 25.5709 23.2884 25.5275 23.6162 25.1773C24.0314 24.7285 24.5472 23.9837 25.0723 23.2498C25.4428 22.7245 25.914 22.6589 26.4074 22.8452C26.7407 22.9607 30.9769 24.928 31.1557 25.2428C31.2879 25.4719 31.2879 26.5556 30.8392 27.8259ZM20.0037 1.53143H19.9944C9.72884 1.53143 1.37933 9.88346 1.37933 20.1521C1.37933 24.2238 2.69211 28.0014 4.92473 31.0654L2.60458 37.9845L9.76052 35.6979C12.7044 37.6462 16.2182 38.7728 20.0037 38.7728C30.2693 38.7728 38.6207 30.4208 38.6207 20.1521C38.6207 9.88346 30.2693 1.53143 20.0037 1.53143Z" fill="#FF5500"/>
</g>
<defs>
<clipPath id="clip0_230_193">
<rect width="37.2414" height="37.2414" fill="white" transform="translate(1.37933 1.53143)"/>
</clipPath>
</defs>
</svg>
