<svg width="501" height="574" viewBox="0 0 501 574" fill="none" xmlns="http://www.w3.org/2000/svg">
<g clip-path="url(#clip0_107_566)">
<path d="M154.559 303.545C75.5129 303.181 11.7293 238.806 12.094 159.76C12.4587 80.7147 76.8335 16.9312 155.879 17.2958C234.925 17.6605 298.708 82.0353 298.344 161.081C297.979 240.127 233.604 303.91 154.559 303.545Z" fill="#50D0AA"/>
<path d="M142.114 22.3393C137.753 21.0088 133.085 20.4161 128.612 21.3698C124.139 22.2899 119.928 24.8911 117.658 28.8453C115.05 33.369 115.294 38.8802 115.572 44.0892C116.318 57.1286 117.031 70.1344 117.777 83.1739C117.996 86.8035 118.146 90.5672 116.754 93.887C115.327 97.2066 111.787 99.9453 108.262 99.1899C106.45 98.8119 104.943 97.629 103.233 96.9156C101.523 96.2022 99.2383 96.1916 98.1564 97.6649C97.5139 98.5691 97.4748 99.7449 97.6042 100.821C98.1196 105.628 101.055 110.143 105.278 112.515C102.797 111.294 99.6611 113.799 99.6148 116.554C99.5684 119.309 101.775 121.704 104.357 122.758C106.906 123.811 109.762 123.791 112.55 123.736C110.266 123.759 108.507 126.204 108.732 128.456C108.957 130.708 110.729 132.631 112.808 133.514C114.887 134.398 117.272 134.442 119.524 134.251C124.364 133.837 129.176 132.313 132.986 129.307C139.662 124.097 142.392 115.138 142.498 106.672C142.638 98.2061 140.559 89.8978 139.422 81.5267C136.79 62.0948 139.099 42.3498 141.44 22.8401C140.903 22.6696 140.366 22.4992 139.796 22.3286" fill="#FF7180"/>
<path d="M114.836 312.77C120.088 317.867 122.067 325.772 117 331.83C112.236 337.553 103.058 338.72 97.166 334.124C82.9379 323.038 97.9156 302.746 113.318 307.017C116.17 307.803 115.445 311.865 112.622 312.02C108.119 312.268 103.28 312.414 99.6708 315.556C95.7914 318.931 95.6641 324.676 98.8379 328.588C107.19 338.975 121.875 323.822 113.081 314.509C111.978 313.328 113.699 311.622 114.87 312.736L114.836 312.77Z" fill="#7CAAFF"/>
<path d="M278.413 257.281C280.438 255.174 282.63 253.571 283.651 250.72C285.659 245.085 281.876 242.245 277.417 240.142C272.857 237.97 269.207 235.467 267.853 230.287C265.774 222.214 272.673 212.3 281.431 214.76C284.283 215.546 283.393 219.17 281.473 220.27C278.744 221.837 275.112 222.693 274.624 226.421C273.996 231.424 278.895 232.858 282.347 234.688C286.068 236.654 288.843 239.623 290.033 243.728C292.05 250.793 287.773 260.348 279.543 259.907C278.367 259.835 277.569 258.151 278.413 257.281Z" fill="#7E2E83"/>
<path d="M305.06 343.751C304.333 348.418 299.416 358.273 294.303 359.627C291.578 360.354 289.571 358.53 287.461 357.076C283.643 354.404 279.859 351.699 276.075 348.96C274.702 347.979 273.904 346.06 274.919 344.486C278.303 339.327 281.687 334.169 285.07 329.01C285.984 327.637 288.037 326.806 289.544 327.855C293.73 330.831 298.253 333.607 302 337.085C304.576 339.482 301.265 343.398 298.316 341.805C294.026 339.5 290.177 336.257 286.226 333.45C287.706 333.054 289.186 332.691 290.7 332.295C287.316 337.454 283.932 342.612 280.549 347.771C280.152 346.291 279.79 344.777 279.393 343.297C281.671 344.92 283.948 346.543 286.191 348.2C287.464 349.113 291.745 353.198 293.191 353.037C294.468 352.908 297.177 348.351 297.988 347.414C299.609 345.507 301.13 343.699 303.219 342.298C304.23 341.631 305.199 342.744 305.061 343.718L305.06 343.751Z" fill="#FAC480"/>
<path d="M74.1842 130.413C73.4571 135.08 68.5399 144.935 63.4267 146.289C60.7019 147.016 58.6944 145.192 56.5844 143.738C52.7665 141.066 48.9824 138.361 45.1984 135.622C43.8254 134.641 43.0279 132.722 44.0431 131.148C47.4267 125.989 50.8104 120.831 54.194 115.672C55.1075 114.299 57.1608 113.468 58.6679 114.517C62.854 117.493 67.3771 120.235 71.1239 123.747C73.7 126.144 70.3893 130.06 67.44 128.467C63.15 126.163 59.3011 122.919 55.3495 120.113C56.8296 119.716 58.3432 119.354 59.8234 118.957C56.4398 124.116 53.0561 129.274 49.6725 134.433C49.2761 132.953 48.9135 131.439 48.5172 129.959C50.7944 131.582 53.0716 133.205 55.315 134.862C56.5875 135.775 60.8693 139.86 62.3147 139.699C63.5921 139.57 66.301 135.014 67.1117 134.077C68.7332 132.169 70.2535 130.362 72.343 128.96C73.354 128.293 74.3233 129.406 74.1844 130.38L74.1842 130.413Z" fill="#FAC480"/>
<path d="M53.8724 214.516C62.589 218.622 71.1703 222.929 79.7174 227.369C81.7621 228.42 82.088 230.606 80.5011 232.278C74.1885 238.734 67.9764 245.223 61.1955 251.206C59.88 252.342 57.7998 251.694 57.1348 250.179C52.9773 241.021 46.6849 228.527 48.4798 218.154C48.9288 215.501 52.966 214.344 54.0276 217.272C55.6863 221.883 55.6624 227.057 56.7155 231.833C57.9331 237.382 59.5539 242.9 61.9828 248.051C60.4717 247.876 58.9268 247.735 57.4157 247.56C63.5962 240.634 70.2781 234.247 76.9604 227.793C76.987 229.305 77.0136 230.818 77.0403 232.33C68.6625 227.587 60.3525 222.744 52.1779 217.667C50.4358 216.584 52.0285 213.634 53.9061 214.483L53.8724 214.516Z" fill="#FF7180"/>
<path d="M215.055 335.676C208.771 328.591 202.39 320.733 197.455 312.613C195.921 310.053 199.765 307.147 201.736 309.475C207.851 316.76 213.255 325.319 217.92 333.572C218.92 335.324 216.425 337.228 215.055 335.676Z" fill="#FF8C00"/>
<path d="M4.14443 84.0272C4.14443 84.0272 4.48165 83.76 4.61682 83.5926C6.74217 81.7209 10.2381 81.3674 12.3108 83.6281C14.3833 85.9224 14.3017 89.0467 12.2753 91.322C12.1401 91.4894 12.0049 91.6568 11.8363 91.7904C9.91132 93.9318 6.01425 93.8467 4.10878 91.7547C2.2033 89.6628 1.85047 86.0325 4.14443 84.0272Z" fill="#50D0AA"/>
<path d="M251.924 289.279C251.924 289.279 252.261 289.011 252.397 288.844C254.522 286.972 258.018 286.619 260.09 288.88C262.163 291.174 262.081 294.298 260.055 296.573C259.92 296.741 259.785 296.908 259.616 297.042C257.691 299.183 253.794 299.098 251.889 297.006C249.983 294.914 249.63 291.284 251.924 289.279Z" fill="#241352"/>
<path d="M180.253 115.951L275.035 151.969L266.141 113.593L290.864 107.424C290.864 107.424 317.06 182.502 298.639 184.433C266.336 187.812 217.544 174.786 217.544 174.786L180.286 115.952L180.253 115.951Z" fill="#FFAFA6"/>
<path d="M212.815 202.079L212.267 277.168C187.399 307.46 101.504 267.754 101.504 267.754L100.638 237.041L98.9932 163.891C101.11 134.771 128.222 120.583 128.222 120.583C139.435 115.058 156.517 111.978 171.868 112.788C187.924 113.669 191.819 121.347 198.37 136.026C203.658 147.877 213.014 159.007 212.815 202.079Z" fill="#241352"/>
<path d="M132.381 41.8823L133.454 56.9057C133.454 56.9057 120.679 58.5603 124.254 70.2354C127.828 81.9106 136.587 76.844 136.587 76.844C136.587 76.844 138.634 106.689 169.251 97.3889C193.61 89.9753 192.278 58.4538 189.31 31.595C188.149 21.1742 178.338 13.9725 168.048 15.9409L149.653 19.451C139.027 21.4851 131.591 31.1272 132.347 41.9157L132.381 41.8823Z" fill="#FFAFA6"/>
<path d="M133.397 69.3363L141.426 113.286C143.228 123.206 152.976 129.568 162.763 127.261C171.845 125.152 177.698 116.309 176.128 107.096L171.775 81.9112L133.397 69.3027L133.397 69.3363Z" fill="#FFAFA6"/>
<path d="M167.227 69.9966C167.227 69.9966 167.023 70.6341 167.961 71.1088C168.934 71.55 170.483 70.6164 170.927 69.1065C171.438 67.6642 171.379 65.8832 171.32 64.1022C171.228 62.1531 171.136 60.2375 171.044 58.2548C170.579 49.9539 169.77 43.2304 169.299 43.2619C168.829 43.2597 168.831 50.0466 169.297 58.3811C169.422 60.3976 169.581 62.3135 169.707 64.2291C169.866 66.0442 170.027 67.5905 169.719 68.765C169.512 69.9736 168.67 70.5073 168.132 70.4712C167.561 70.4013 167.328 69.9299 167.194 69.9965L167.227 69.9966Z" fill="#241352"/>
<path d="M177.026 94.333C176.793 93.8615 170.994 98.3034 162.527 98.4323C154.059 98.5948 148.132 94.3341 147.894 94.837C147.759 95.0043 149.03 96.2869 151.611 97.6428C154.158 98.9985 158.083 100.26 162.552 100.18C167.021 100.099 170.925 98.7062 173.418 97.273C175.944 95.8399 177.16 94.5016 177.026 94.333Z" fill="#241352"/>
<path d="M171.13 76.1964C170.929 76.0275 170.22 76.629 168.941 77.1607C167.696 77.6925 165.745 78.0867 163.833 77.4731C161.921 76.8595 160.584 75.375 159.883 74.2295C159.15 73.0501 158.952 72.1421 158.683 72.1744C158.482 72.1735 158.208 73.2138 158.739 74.7617C159.236 76.2759 160.738 78.3324 163.254 79.1503C165.77 79.9683 168.193 79.1731 169.507 78.272C170.856 77.3375 171.263 76.3314 171.096 76.2299L171.13 76.1964Z" fill="#241352"/>
<path d="M132.445 71.7166C132.447 71.4479 131.708 71.3101 130.904 70.7689C130.502 70.4983 130.168 70.1272 130.07 69.6228C129.971 69.1184 130.108 68.7159 130.444 68.6167C130.747 68.5173 130.981 68.6192 131.015 68.6529L132.497 67.8871C131.332 65.4965 130.264 63.879 129.894 64.0453C129.524 64.2115 129.985 66.095 130.948 68.5518L132.43 67.786C131.863 66.8427 130.655 66.602 129.78 66.9675C129.14 67.1661 128.566 67.8354 128.429 68.4058C128.259 69.0097 128.323 69.6147 128.489 70.0858C128.854 71.0618 129.691 71.6367 130.328 71.8412C131.67 72.2506 132.411 71.8509 132.412 71.6829L132.445 71.7166Z" fill="#241352"/>
<path d="M156.1 42.2265C156.27 41.7906 154.662 40.8761 152.61 41.4042C150.558 41.9322 149.577 43.5066 149.945 43.8107C150.313 44.1483 151.492 43.4819 153.039 43.0859C154.553 42.6561 155.93 42.6961 156.1 42.2265Z" fill="#241352"/>
<path d="M182.561 38.1488C182.798 37.7468 181.19 36.5971 178.939 36.7883C176.687 36.9795 175.303 38.3505 175.57 38.7213C175.837 39.1256 177.284 38.662 179.065 38.5358C180.846 38.3761 182.357 38.5846 182.561 38.1488Z" fill="#241352"/>
<path d="M133.454 56.9058C142.026 48.6129 144.61 34.7823 146.982 23.101C154.851 28.8826 165.73 30.344 174.851 26.8582C177.692 30.2311 181.038 33.1696 184.756 35.5723C185.795 36.249 187.068 36.9269 188.246 36.5627C189.693 36.1326 190.339 34.4893 190.681 33.0461C191.778 28.381 191.868 23.4089 190.243 18.8992C188.651 14.3897 185.242 10.4093 180.781 8.67524C176.019 6.80536 170.64 7.5869 165.695 8.84083C158.227 10.7551 151.024 13.6785 144.353 17.5451C137.818 21.3452 131.512 26.3559 128.724 33.3987C125.937 40.4415 125.874 54.1157 132.543 57.7079" fill="#FF7180"/>
<path d="M183.58 115.664C175.33 112.334 238.754 136.246 238.754 136.246L232.103 179.692L207.983 171.651L183.58 115.698L183.58 115.664Z" fill="#241352"/>
<path d="M267.91 116.054C267.91 116.054 251.419 92.7948 254.376 92.8085C257.333 92.8221 258.858 97.1969 264.589 100.214C264.589 100.214 255.551 71.1766 258.404 71.7946C261.223 72.4123 267.924 91.0567 268.361 91.0251C268.798 91.0271 262.611 70.1341 264.965 69.8761C267.318 69.6182 273.007 89.0642 273.007 89.0642C273.007 89.0642 269.127 70.6009 271.649 70.2094C274.171 69.8178 277.755 86.8015 277.755 86.8015C277.755 86.8015 274.897 72.509 277.15 72.1834C278.528 71.9882 290.897 107.424 290.897 107.424C290.561 107.423 267.943 116.02 267.943 116.02" fill="#FFAFA6"/>
<path d="M139.288 198.011C139.288 198.011 139.663 196.803 140.009 194.621C140.355 192.439 140.807 189.249 141.362 185.321C142.406 177.463 143.767 166.584 145.133 154.562C145.449 151.539 145.631 148.483 145.174 145.524C144.751 142.565 143.555 139.805 141.817 137.647C138.377 133.296 133.615 131.225 129.655 130.4C125.66 129.576 122.366 129.829 120.148 130.088C117.929 130.38 116.751 130.71 116.751 130.845C116.75 130.979 117.994 130.851 120.212 130.794C122.396 130.736 125.621 130.718 129.38 131.642C133.105 132.533 137.463 134.636 140.536 138.649C142.072 140.638 143.103 143.062 143.46 145.785C143.85 148.508 143.703 151.397 143.386 154.386C142.021 166.408 140.862 177.288 140.12 185.214C139.732 189.177 139.482 192.368 139.337 194.584C139.193 196.801 139.153 198.044 139.288 198.045L139.288 198.011Z" fill="#241352"/>
<path d="M141.518 195.299C141.453 194.829 129.892 195.582 115.673 197.028C101.454 198.474 89.9563 200.034 90.0213 200.505C90.0863 200.975 101.648 200.222 115.866 198.776C130.085 197.33 141.583 195.77 141.518 195.299Z" fill="#241352"/>
<path d="M217.556 4.77952L217.326 54.5372L250.588 54.6907L251.542 73.5436L271.154 53.6768L344.329 54.0144L338.154 1.6737L217.556 4.77952Z" fill="#7E2E83"/>
<path d="M228.878 19.0775C261.572 18.6236 294.432 18.5064 327.119 19.3292C327.724 19.3319 327.719 20.2727 327.115 20.2699C294.421 20.8246 261.564 20.4042 228.876 19.6151C228.506 19.6134 228.509 19.0422 228.879 19.0439L228.878 19.0775Z" fill="#E5E1EA"/>
<path d="M228.835 28.619C261.528 28.165 294.388 28.0479 327.075 28.8706C327.68 28.8734 327.676 29.8142 327.071 29.8114C294.377 30.3661 261.52 29.9457 228.832 29.1565C228.463 29.1548 228.465 28.5837 228.835 28.5854L228.835 28.619Z" fill="#E5E1EA"/>
<path d="M228.789 38.6982C248.815 38.2194 269.143 38.078 289.164 38.7752C289.769 38.7779 289.765 39.6851 289.16 39.7159C269.133 40.2283 248.808 39.9329 228.786 39.2358C228.417 39.2341 228.419 38.6629 228.789 38.6646L228.789 38.6982Z" fill="#E5E1EA"/>
<path d="M179.744 51.6421C180.179 51.8457 180.853 51.412 181.494 50.8103C182.102 50.2084 182.609 49.5724 182.443 49.1349C182.277 48.6974 181.202 48.6925 180.324 49.5283C179.447 50.3641 179.341 51.4387 179.777 51.6086L179.744 51.6421Z" fill="#241352"/>
<path d="M154.23 54.4473C154.665 54.6509 155.442 53.8818 156.219 52.8775C156.963 51.8731 157.505 50.9014 157.204 50.5305C156.903 50.1595 155.725 50.6244 154.847 51.7962C153.968 52.9679 153.827 54.2439 154.263 54.4139L154.23 54.4473Z" fill="#241352"/>
<g opacity="0.18">
<path d="M159.974 76.3131C159.258 78.6282 159.92 80.8824 161.463 81.3936C163.006 81.8711 164.861 80.4348 165.611 78.1199C166.327 75.8048 165.665 73.5506 164.122 73.0731C162.579 72.5956 160.724 74.0318 159.974 76.3467L159.974 76.3131Z" fill="#241352"/>
</g>
<g opacity="0.13">
<path d="M144.66 60.3168C144.649 62.7358 147.731 64.7323 151.595 64.7837C155.458 64.8016 158.592 62.9009 158.636 60.4821C158.648 58.0631 155.566 56.0666 151.702 56.0152C147.839 55.9973 144.705 57.898 144.66 60.3168Z" fill="#241352"/>
</g>
<g opacity="0.13">
<path d="M173.444 62.4991C173.433 64.9181 176.515 66.9146 180.378 66.966C184.242 66.9838 187.375 65.0832 187.42 62.6644C187.431 60.2454 184.349 58.2489 180.486 58.1974C176.622 58.1796 173.489 60.0802 173.444 62.4991Z" fill="#241352"/>
</g>
<path d="M131.835 36.6046C132.003 36.4038 131.402 35.6618 131.946 34.2532C132.389 32.9113 133.809 30.9692 134.895 28.7567C137.233 24.3326 138.796 20.5768 138.36 20.3396C137.925 20.1024 135.692 23.5191 133.319 27.9431C132.2 30.189 131.015 32.0987 130.704 33.9787C130.566 34.8852 130.73 35.7259 131.064 36.1642C131.398 36.6026 131.7 36.6711 131.767 36.6043L131.835 36.6046Z" fill="#6F35A4"/>
<path d="M205.388 180.609L210.653 255.558L132.558 265.647L138.232 179.224L205.388 180.609Z" fill="#7CAAFF"/>
<path d="M199.407 129.815L199.133 189.216L190.044 185.78L190.356 118.081L199.448 120.878" fill="#7CAAFF"/>
<path d="M127.11 121.183C127.11 121.183 162.333 125.881 151.652 183.419L142.812 184.319C142.812 184.319 153.006 130.273 119.897 126.256L127.11 121.183Z" fill="#7CAAFF"/>
<path d="M137.184 188.056C137.184 188.056 124.829 258.891 141.803 257.222C197.635 251.734 230.866 251.115 230.866 251.115L240.017 270.375C240.204 273.635 134.165 303.485 117.211 293.361C105.216 286.216 86.1867 267.078 95.1177 210.137L97.2551 191.063L137.15 188.056L137.184 188.056Z" fill="#FFAFA6"/>
<path d="M106.457 140.877C106.457 140.877 93.397 153.315 90.2558 200.607L140.678 195.262C140.678 195.262 149.449 114.734 106.457 140.877Z" fill="#241352"/>
<path d="M224.987 251.121C224.987 251.121 252.341 242.68 251.387 245.498C250.433 248.316 245.796 248.395 241.105 252.909C241.105 252.909 271.644 253.386 270.154 255.899C268.664 258.412 248.805 258.959 248.669 259.361C248.532 259.798 270.402 260.436 269.887 262.752C269.373 265.068 249.082 264.403 249.082 264.403C249.082 264.403 267.888 266.506 267.507 268.99C267.125 271.508 249.764 269.614 249.764 269.614C249.764 269.614 264.27 271.327 263.89 273.61C263.649 274.986 221.348 275.127 221.243 276.135C221.206 276.672 224.953 251.121 224.953 251.121" fill="#FFAFA6"/>
<path d="M190.503 180.944C190.301 180.943 189.758 182.116 189.546 184.333C189.474 185.408 189.535 186.853 190.267 188.301C190.933 189.681 192.471 191.201 194.554 191.21C196.604 191.22 198.155 189.916 199.001 188.644C199.915 187.304 200.156 185.927 200.262 184.819C200.407 182.602 200.11 181.324 199.909 181.323C199.64 181.322 199.466 182.665 199.053 184.612C198.814 185.585 198.439 186.726 197.695 187.663C196.952 188.6 195.772 189.435 194.563 189.429C193.353 189.424 192.282 188.545 191.682 187.501C191.048 186.457 190.886 185.313 190.79 184.305C190.664 182.289 190.771 180.945 190.503 180.91L190.503 180.944Z" fill="#241352"/>
<path d="M196.008 182.145C195.872 182.346 196.005 182.75 195.835 183.186C195.597 183.689 195.361 183.822 194.892 183.551C194.457 183.247 194.492 182.978 194.897 182.543C195.235 182.209 195.671 182.211 195.807 182.01C195.975 181.843 195.475 181.168 194.398 181.432C193.927 181.564 193.287 181.931 193.015 182.736C192.742 183.575 193.174 184.551 193.911 185.025C194.615 185.532 195.689 185.57 196.364 185.002C197.005 184.434 197.109 183.729 197.044 183.225C196.881 182.115 196.042 181.944 195.974 182.145L196.008 182.145Z" fill="#241352"/>
<path d="M143.707 179.485C143.54 179.383 142.83 180.186 143.058 181.767C143.253 183.212 144.62 185.436 147.274 185.65C149.962 185.662 151.517 183.586 151.826 182.177C152.202 180.666 151.602 179.756 151.4 179.856C151.131 179.922 151.194 180.729 150.652 181.734C150.177 182.707 148.861 183.944 147.349 183.903C145.837 183.829 144.634 182.479 144.236 181.436C143.77 180.392 143.942 179.587 143.673 179.485L143.707 179.485Z" fill="#241352"/>
<path d="M149.395 177.428C149.395 177.428 149.096 176.62 147.954 176.581C147.417 176.579 146.677 176.777 146.136 177.413C145.529 178.048 145.489 179.325 146.023 180.066C146.49 180.875 147.663 181.451 148.64 180.985C149.616 180.452 149.721 179.546 149.623 178.974C149.525 178.369 149.124 177.931 148.789 177.828C148.453 177.726 148.251 177.826 148.25 177.96C148.249 178.195 148.55 178.499 148.38 179.002C148.142 179.606 147.94 179.638 147.506 179.099C147.106 178.526 147.511 178.024 148.151 177.758C148.756 177.492 149.26 177.595 149.395 177.394L149.395 177.428Z" fill="#241352"/>
<path d="M151.072 214.527C151.543 214.429 151.65 212.917 151.591 211.17C151.532 209.389 151.371 207.911 150.901 207.841C150.431 207.772 149.786 209.281 149.844 211.229C149.902 213.178 150.601 214.66 151.072 214.527Z" fill="#241352"/>
<path d="M157.166 226.315C157.503 225.98 156.737 224.667 155.736 223.218C154.701 221.768 153.698 220.655 153.26 220.855C152.823 221.054 153.151 222.668 154.286 224.219C155.421 225.803 156.828 226.649 157.166 226.281L157.166 226.315Z" fill="#241352"/>
<path d="M168.863 232.45C168.933 231.98 167.558 231.369 165.881 230.824C164.204 230.279 162.761 229.936 162.523 230.372C162.286 230.774 163.491 231.888 165.336 232.501C167.18 233.115 168.794 232.954 168.863 232.484L168.863 232.45Z" fill="#241352"/>
<path d="M182.041 230.798C181.842 230.361 180.362 230.622 178.647 231.085C176.931 231.547 175.552 232.078 175.583 232.582C175.614 233.053 177.226 233.296 179.109 232.767C180.993 232.238 182.241 231.202 182.041 230.798Z" fill="#241352"/>
<path d="M191.792 221.872C191.357 221.635 190.344 222.739 189.229 224.111C188.147 225.517 187.302 226.756 187.636 227.128C187.937 227.499 189.385 226.733 190.601 225.193C191.818 223.653 192.228 222.076 191.792 221.872Z" fill="#241352"/>
<path d="M194.775 208.951C194.305 209.016 194.029 210.459 193.886 212.239C193.744 214.019 193.771 215.497 194.24 215.634C194.71 215.77 195.489 214.329 195.633 212.381C195.81 210.434 195.246 208.886 194.775 208.951Z" fill="#241352"/>
<path d="M183.496 206.816C183.494 207.286 185.038 207.629 186.886 207.57C188.734 207.512 190.248 207.082 190.216 206.578C190.219 206.107 188.675 205.764 186.827 205.823C184.979 205.882 183.465 206.311 183.496 206.816Z" fill="#241352"/>
<path d="M170.055 207.257C170.053 207.728 171.597 208.071 173.445 208.012C175.293 207.954 176.806 207.524 176.775 207.02C176.777 206.549 175.234 206.206 173.386 206.265C171.538 206.324 170.024 206.753 170.055 207.257Z" fill="#241352"/>
<path d="M156.614 207.666C156.612 208.136 158.156 208.479 160.004 208.421C161.852 208.362 163.365 207.932 163.334 207.428C163.336 206.958 161.793 206.615 159.945 206.673C158.097 206.732 156.583 207.162 156.614 207.666Z" fill="#241352"/>
<path d="M150.343 357.955C148.303 348.673 146.669 338.72 146.309 329.21C146.188 326.253 151.03 325.536 151.554 328.528C153.258 337.91 153.85 347.959 153.873 357.501C153.864 359.483 150.77 359.973 150.343 357.955Z" fill="#FF8C00"/>
<path d="M101.379 389.58C101.379 389.58 101.716 389.313 101.851 389.145C103.977 387.274 107.472 386.92 109.545 389.181C111.618 391.475 111.536 394.599 109.51 396.875C109.374 397.042 109.239 397.21 109.071 397.343C107.146 399.485 103.249 399.399 101.343 397.308C99.4376 395.216 99.0848 391.585 101.379 389.58Z" fill="#241352"/>
<path d="M214.947 463.052C196.392 386.214 243.64 308.883 320.478 290.329C397.316 271.774 474.647 319.022 493.202 395.86C511.756 472.698 464.508 550.029 387.67 568.584C310.832 587.138 233.501 539.89 214.947 463.052Z" fill="#FF8C00"/>
<path d="M332.573 381.037L237.463 416.179L246.711 377.886L222.046 371.49C222.046 371.49 195.158 446.323 213.56 448.424C245.831 452.1 294.741 439.525 294.741 439.525L332.54 381.037L332.573 381.037Z" fill="#FFAFA6"/>
<path d="M299.218 466.861L299.073 541.952C323.66 572.472 409.918 533.56 409.918 533.56L411.067 502.857L413.387 429.724C411.539 400.586 384.559 386.149 384.559 386.149C373.397 380.52 356.344 377.283 340.987 377.952C324.924 378.684 320.957 386.326 314.271 400.944C308.875 412.745 299.416 423.789 299.218 466.861Z" fill="#6F35A4"/>
<path d="M374.975 453.536C374.975 453.536 386.676 524.482 369.718 522.657C313.939 516.654 280.715 515.728 280.715 515.728L271.387 534.903C271.17 538.161 376.929 568.988 393.976 559.021C406.036 551.987 425.241 533.026 416.836 476.005L414.874 456.912L375.009 453.536L374.975 453.536Z" fill="#FFAFA6"/>
<path d="M405.867 406.675C405.867 406.675 418.811 419.233 421.516 466.552L371.145 460.743C371.145 460.743 363.117 380.137 405.867 406.675Z" fill="#6F35A4"/>
<path d="M381.092 307.413L379.881 322.426C379.881 322.426 392.64 324.198 388.958 335.84C385.275 347.481 376.564 342.334 376.564 342.334C376.564 342.334 374.242 372.159 343.712 362.577C319.422 354.939 321.045 323.431 324.26 296.601C325.518 286.191 335.395 279.08 345.667 281.144L364.028 284.823C374.635 286.955 381.982 296.666 381.126 307.447L381.092 307.413Z" fill="#FFAFA6"/>
<path d="M379.823 334.89L371.389 378.764C369.496 388.667 359.69 394.938 349.924 392.541C340.862 390.349 335.091 381.452 336.746 372.254L341.331 347.11L379.824 334.857L379.823 334.89Z" fill="#FFAFA6"/>
<path d="M346.022 335.205C346.022 335.205 345.651 335.606 345.079 335.671C344.542 335.735 343.704 335.16 343.508 333.95C343.245 332.773 343.386 331.228 343.563 329.414C343.706 327.466 343.883 325.552 344.026 323.57C344.569 315.274 344.634 308.488 344.163 308.452C343.693 308.45 342.822 315.132 342.28 323.428C342.17 325.443 342.06 327.358 341.951 329.273C341.875 331.053 341.8 332.8 342.297 334.28C342.693 335.794 344.268 336.742 345.244 336.31C346.187 335.844 346.056 335.205 345.989 335.205L346.022 335.205Z" fill="#241352"/>
<path d="M335.999 359.45C335.999 359.45 337.067 360.967 339.58 362.423C342.06 363.879 345.95 365.308 350.418 365.43C354.886 365.551 358.823 364.326 361.383 362.994C363.976 361.662 365.225 360.391 365.091 360.222C364.858 359.751 358.892 363.957 350.427 363.682C341.994 363.509 336.236 358.98 335.965 359.449L335.999 359.45Z" fill="#241352"/>
<path d="M342.063 341.368C341.894 341.502 342.293 342.478 343.633 343.425C344.938 344.372 347.354 345.156 349.877 344.361C352.401 343.533 353.922 341.524 354.433 340.014C354.978 338.438 354.748 337.429 354.512 337.428C354.244 337.426 354.038 338.299 353.293 339.471C352.582 340.644 351.232 342.083 349.314 342.678C347.396 343.274 345.449 342.862 344.209 342.319C342.935 341.775 342.232 341.167 342.029 341.335L342.063 341.368Z" fill="#241352"/>
<path d="M380.787 337.246C380.786 337.447 381.524 337.82 382.869 337.423C383.509 337.225 384.351 336.657 384.725 335.685C384.895 335.215 384.999 334.611 384.8 334.005C384.668 333.4 384.1 332.759 383.463 332.555C382.591 332.215 381.381 332.411 380.805 333.349L382.28 334.128C383.265 331.68 383.744 329.801 383.376 329.632C383.007 329.462 381.924 331.069 380.738 333.449L382.212 334.229C382.212 334.229 382.482 334.062 382.783 334.198C383.119 334.3 383.252 334.67 383.148 335.207C383.045 335.711 382.708 336.079 382.303 336.346C381.494 336.879 380.721 337.01 380.754 337.279L380.787 337.246Z" fill="#241352"/>
<path d="M357.372 307.538C357.505 308.009 358.882 308.016 360.425 308.426C361.969 308.803 363.141 309.513 363.513 309.179C363.884 308.879 362.95 307.295 360.87 306.748C358.823 306.201 357.206 307.101 357.372 307.538Z" fill="#241352"/>
<path d="M330.984 303.217C331.184 303.688 332.696 303.46 334.476 303.636C336.256 303.779 337.698 304.256 337.969 303.854C338.273 303.486 336.902 302.102 334.619 301.89C332.369 301.678 330.751 302.779 330.984 303.217Z" fill="#241352"/>
<path d="M379.881 322.426C371.385 314.054 368.93 300.2 366.699 288.498C358.777 294.207 347.885 295.568 338.796 291.998C335.925 295.344 332.551 298.252 328.811 300.62C327.766 301.287 326.487 301.953 325.312 301.578C323.87 301.135 323.239 299.486 322.91 298.039C321.856 293.364 321.812 288.392 323.479 283.897C325.112 279.402 328.558 275.454 333.034 273.761C337.813 271.935 343.185 272.766 348.118 274.066C355.568 276.049 362.744 279.039 369.379 282.967C375.879 286.827 382.138 291.895 384.861 298.964C387.583 306.032 387.52 319.706 380.818 323.237" fill="#241352"/>
<path d="M329.248 380.72C337.529 377.465 273.886 400.791 273.886 400.791L280.137 444.296L304.33 436.479L329.248 380.753L329.248 380.72Z" fill="#6F35A4"/>
<path d="M286.56 515.789C286.56 515.789 259.285 507.095 260.213 509.922C261.141 512.748 265.777 512.871 270.426 517.428C270.426 517.428 239.884 517.623 241.351 520.149C242.817 522.676 262.671 523.406 262.803 523.81C262.935 524.247 241.061 524.684 241.554 527.004C242.048 529.325 262.343 528.847 262.343 528.847C262.343 528.847 243.519 530.777 243.877 533.264C244.235 535.786 261.614 534.052 261.614 534.052C261.614 534.052 247.092 535.631 247.451 537.917C247.68 539.296 289.977 539.827 290.074 540.836C290.105 541.373 286.594 515.789 286.594 515.789" fill="#FFAFA6"/>
<path d="M244.919 380.331C244.919 380.331 261.623 357.225 258.667 357.212C255.71 357.198 254.144 361.558 248.385 364.522C248.385 364.522 257.691 335.57 254.833 336.161C252.008 336.753 245.135 355.335 244.698 355.299C244.262 355.297 250.641 334.462 248.29 334.182C245.94 333.903 240.071 353.296 240.071 353.296C240.071 353.296 244.121 334.869 241.603 334.454C239.118 334.039 235.344 350.989 235.344 350.989C235.344 350.989 238.333 336.724 236.084 336.377C234.707 336.169 222.012 371.49 222.012 371.49C222.348 371.491 244.886 380.297 244.886 380.297" fill="#FFAFA6"/>
<path d="M397.56 444.804C397.392 444.803 396.749 445.875 396.705 448.059C396.7 449.134 397.13 450.682 398.469 451.629C399.106 452.102 400.078 452.442 401.054 452.245C402.029 452.048 402.771 451.38 403.311 450.811C404.392 449.539 405.101 448.803 406.211 448.674C407.286 448.511 408.225 448.885 408.828 449.425C410.099 450.607 410.059 451.984 410.328 451.952C410.495 452.054 411.175 450.511 409.739 448.59C409.037 447.679 407.596 446.933 406.016 447.06C405.243 447.124 404.402 447.389 403.694 447.923C402.986 448.458 402.513 449.06 402.007 449.595C400.248 451.973 397.975 449.644 397.882 447.93C397.621 446.115 397.795 444.805 397.493 444.77L397.56 444.804Z" fill="#FBF1FC"/>
<path d="M382.702 431.867C382.702 431.867 382.204 430.622 380.362 429.438C379.457 428.896 377.913 428.452 376.399 429.083C375.658 429.382 374.849 430.017 374.508 430.99C374.168 431.929 374.332 432.904 374.563 433.678C375.06 435.259 375.324 436.235 374.883 437.274C374.475 438.28 373.666 438.881 372.858 439.113C371.176 439.575 370.037 438.831 369.902 439.099C369.7 439.199 370.701 440.581 373.088 440.357C374.231 440.228 375.612 439.394 376.324 437.986C376.663 437.282 376.869 436.41 376.806 435.536C376.709 434.662 376.444 433.922 376.245 433.249C375.149 430.522 378.31 429.798 379.819 430.577C381.495 431.291 382.533 432.135 382.702 431.901L382.702 431.867Z" fill="#FBF1FC"/>
<path d="M383.858 399.787C383.858 399.787 383.36 398.541 381.518 397.357C380.613 396.815 379.069 396.371 377.555 397.002C376.814 397.301 376.005 397.936 375.664 398.909C375.324 399.848 375.487 400.823 375.719 401.597C376.216 403.178 376.48 404.154 376.038 405.193C375.631 406.199 374.822 406.8 374.014 407.032C372.332 407.495 371.193 406.75 371.058 407.018C370.856 407.118 371.857 408.5 374.244 408.276C375.386 408.147 376.768 407.313 377.48 405.906C377.819 405.202 378.025 404.329 377.962 403.455C377.865 402.581 377.599 401.841 377.401 401.168C376.305 398.441 379.466 397.717 380.975 398.497C382.651 399.21 383.689 400.055 383.858 399.82L383.858 399.787Z" fill="#FBF1FC"/>
<path d="M351.849 441.401C351.849 441.401 353.127 441.004 354.479 439.263C355.122 438.393 355.666 436.917 355.169 435.335C354.938 434.562 354.37 433.719 353.432 433.311C352.526 432.904 351.518 432.967 350.745 433.131C349.13 433.493 348.121 433.69 347.15 433.115C346.211 432.606 345.644 431.764 345.48 430.957C345.152 429.242 345.997 428.17 345.762 428.035C345.696 427.833 344.213 428.7 344.236 431.119C344.231 432.261 344.963 433.709 346.337 434.556C347.007 434.962 347.845 435.234 348.719 435.238C349.593 435.242 350.366 435.011 351.039 434.88C353.832 434.019 354.287 437.213 353.373 438.687C352.526 440.296 351.614 441.266 351.815 441.435L351.849 441.401Z" fill="#FBF1FC"/>
<path d="M330.023 474.865C330.023 474.865 330.623 476.078 332.533 477.094C333.472 477.569 335.049 477.912 336.531 477.146C337.238 476.78 338.014 476.112 338.254 475.105C338.527 474.132 338.263 473.156 337.998 472.416C337.366 470.867 337.035 469.925 337.443 468.852C337.783 467.845 338.526 467.143 339.334 466.845C340.983 466.247 342.156 466.891 342.258 466.656C342.426 466.556 341.357 465.241 338.97 465.633C337.826 465.83 336.512 466.764 335.934 468.24C335.628 468.978 335.49 469.851 335.653 470.725C335.784 471.566 336.117 472.306 336.382 472.98C337.68 475.606 334.585 476.566 333.009 475.887C331.298 475.308 330.193 474.564 330.024 474.798L330.023 474.865Z" fill="#FBF1FC"/>
<path d="M304.734 421.832C304.734 421.832 305.333 423.044 307.243 424.061C308.182 424.535 309.759 424.879 311.241 424.113C311.948 423.746 312.724 423.078 312.964 422.071C313.237 421.098 312.973 420.122 312.708 419.382C312.076 417.834 311.745 416.891 312.153 415.818C312.494 414.812 313.236 414.11 314.044 413.811C315.693 413.214 316.866 413.857 316.968 413.623C317.136 413.523 316.067 412.207 313.68 412.6C312.537 412.796 311.222 413.731 310.644 415.206C310.338 415.944 310.2 416.817 310.364 417.691C310.494 418.532 310.827 419.273 311.092 419.946C312.391 422.573 309.295 423.533 307.719 422.853C306.008 422.274 304.903 421.53 304.734 421.764L304.734 421.832Z" fill="#FBF1FC"/>
<path d="M287.334 413.688C287.334 413.688 285.989 413.849 284.37 415.287C283.594 416.022 282.747 417.396 282.975 419.01C283.072 419.816 283.471 420.759 284.308 421.334C285.112 421.909 286.12 422.014 286.926 422.018C288.572 421.958 289.614 421.963 290.451 422.673C291.287 423.349 291.686 424.291 291.682 425.131C291.674 426.878 290.662 427.781 290.863 427.949C290.896 428.151 292.511 427.587 292.925 425.204C293.098 424.062 292.702 422.515 291.498 421.468C290.929 420.928 290.158 420.521 289.285 420.349C288.446 420.211 287.639 420.274 286.934 420.271C284.009 420.627 284.159 417.369 285.34 416.097C286.489 414.658 287.568 413.89 287.368 413.654L287.334 413.688Z" fill="#FBF1FC"/>
<path d="M357.413 502.34C357.413 502.34 358.013 503.553 359.923 504.57C360.862 505.044 362.439 505.388 363.921 504.622C364.628 504.255 365.404 503.587 365.644 502.58C365.917 501.607 365.653 500.631 365.388 499.891C364.756 498.342 364.425 497.4 364.833 496.327C365.174 495.321 365.916 494.618 366.724 494.32C368.373 493.723 369.546 494.366 369.648 494.132C369.816 494.032 368.747 492.716 366.36 493.108C365.216 493.305 363.902 494.239 363.324 495.715C363.018 496.453 362.88 497.326 363.044 498.2C363.174 499.041 363.507 499.781 363.772 500.455C365.071 503.081 361.975 504.041 360.399 503.362C358.688 502.783 357.583 502.039 357.414 502.273L357.413 502.34Z" fill="#FBF1FC"/>
<path d="M319.851 451.266C319.851 451.266 321.097 450.734 322.214 448.858C322.723 447.919 323.133 446.376 322.434 444.861C322.102 444.12 321.434 443.344 320.494 443.037C319.521 442.731 318.546 442.928 317.806 443.159C316.258 443.723 315.248 444.021 314.242 443.58C313.236 443.205 312.602 442.396 312.336 441.622C311.806 439.973 312.517 438.801 312.283 438.665C312.183 438.497 310.834 439.499 311.126 441.885C311.288 443.029 312.156 444.376 313.597 445.055C314.301 445.394 315.174 445.566 316.048 445.436C316.922 445.339 317.629 445.04 318.336 444.808C321.029 443.611 321.855 446.739 321.108 448.315C320.462 450.026 319.651 451.097 319.885 451.233L319.851 451.266Z" fill="#FBF1FC"/>
<path d="M312.939 478.583C312.939 478.583 314.184 478.051 315.302 476.175C315.81 475.236 316.22 473.693 315.522 472.178C315.189 471.437 314.521 470.661 313.581 470.354C312.608 470.047 311.633 470.245 310.893 470.476C309.345 471.04 308.336 471.338 307.33 470.897C306.323 470.522 305.689 469.713 305.424 468.939C304.894 467.29 305.605 466.118 305.37 466.016C305.27 465.847 303.921 466.849 304.213 469.236C304.375 470.379 305.243 471.727 306.684 472.406C307.388 472.745 308.261 472.917 309.135 472.786C310.009 472.69 310.716 472.391 311.423 472.159C314.116 470.962 314.942 474.09 314.195 475.666C313.549 477.376 312.738 478.414 312.972 478.583L312.939 478.583Z" fill="#FBF1FC"/>
<path d="M367.689 467.177C367.857 467.178 368.232 465.936 367.805 463.818C367.575 462.775 366.809 461.36 365.3 460.715C364.562 460.376 363.555 460.27 362.612 460.703C361.703 461.102 361.128 461.939 360.722 462.609C359.942 464.084 359.4 464.955 358.357 465.32C357.347 465.718 356.34 465.579 355.637 465.139C354.129 464.259 353.866 462.913 353.631 463.013C353.429 462.945 353.119 464.623 354.96 466.177C355.864 466.921 357.407 467.331 358.921 466.834C359.662 466.602 360.437 466.136 361.011 465.466C361.585 464.797 361.924 464.093 362.263 463.49C363.451 460.807 366.165 462.567 366.661 464.216C367.325 465.899 367.453 467.243 367.722 467.211L367.689 467.177Z" fill="#FBF1FC"/>
<path d="M318.145 500.714C318.313 500.715 318.688 499.474 318.261 497.355C318.031 496.313 317.265 494.898 315.756 494.253C315.018 493.913 314.011 493.808 313.068 494.24C312.159 494.639 311.584 495.477 311.178 496.147C310.398 497.621 309.857 498.492 308.813 498.857C307.804 499.256 306.796 499.117 306.093 498.677C304.585 497.796 304.322 496.451 304.087 496.551C303.885 496.482 303.575 498.161 305.416 499.715C306.32 500.458 307.863 500.869 309.378 500.372C310.118 500.14 310.893 499.673 311.467 499.004C312.041 498.334 312.38 497.63 312.719 497.027C313.908 494.345 316.621 496.104 317.117 497.753C317.781 499.436 317.91 500.781 318.179 500.748L318.145 500.714Z" fill="#FBF1FC"/>
<path d="M320.028 398.417C320.196 398.418 320.571 397.176 320.144 395.058C319.914 394.015 319.148 392.6 317.639 391.955C316.901 391.616 315.894 391.51 314.951 391.943C314.042 392.342 313.467 393.179 313.061 393.849C312.281 395.324 311.74 396.195 310.696 396.56C309.687 396.958 308.679 396.819 307.976 396.379C306.468 395.499 306.205 394.153 305.97 394.253C305.768 394.185 305.458 395.863 307.299 397.417C308.203 398.161 309.746 398.571 311.261 398.074C312.001 397.842 312.776 397.376 313.35 396.706C313.924 396.037 314.263 395.333 314.602 394.73C315.791 392.047 318.504 393.807 319 395.456C319.664 397.139 319.793 398.483 320.062 398.451L320.028 398.417Z" fill="#FBF1FC"/>
<path d="M335.654 514.369C335.654 514.369 336.998 514.375 338.784 513.14C339.661 512.506 340.641 511.267 340.648 509.621C340.652 508.815 340.388 507.839 339.618 507.163C338.882 506.488 337.909 506.282 337.103 506.178C335.457 506.036 334.416 505.896 333.681 505.087C332.912 504.31 332.647 503.335 332.752 502.495C332.962 500.749 334.074 500.015 333.907 499.813C333.908 499.611 332.226 499.973 331.51 502.288C331.169 503.395 331.397 504.975 332.466 506.19C332.967 506.797 333.704 507.304 334.543 507.577C335.382 507.849 336.154 507.853 336.859 507.957C339.816 507.971 339.263 511.194 337.948 512.296C336.632 513.567 335.487 514.2 335.62 514.436L335.654 514.369Z" fill="#FBF1FC"/>
<path d="M394.711 414.183C394.711 414.183 393.532 414.85 392.616 416.828C392.174 417.8 391.932 419.378 392.799 420.827C393.199 421.534 393.935 422.243 394.908 422.449C395.881 422.655 396.857 422.357 397.564 422.058C399.079 421.36 400.022 420.961 401.095 421.302C402.136 421.575 402.872 422.318 403.204 423.059C403.902 424.675 403.292 425.881 403.56 425.983C403.66 426.152 404.942 425.015 404.382 422.661C404.118 421.551 403.116 420.27 401.607 419.759C400.869 419.486 399.995 419.415 399.121 419.613C398.28 419.81 397.573 420.177 396.933 420.443C394.373 421.909 393.245 418.846 393.823 417.236C394.302 415.491 395.013 414.352 394.744 414.217L394.711 414.183Z" fill="#FBF1FC"/>
<path d="M338.18 403.809C338.18 403.809 337.001 404.476 336.084 406.454C335.643 407.426 335.401 409.004 336.267 410.453C336.667 411.16 337.403 411.869 338.377 412.075C339.35 412.281 340.326 411.984 341.033 411.684C342.548 410.986 343.491 410.587 344.564 410.928C345.604 411.202 346.34 411.944 346.673 412.685C347.371 414.301 346.761 415.508 347.029 415.61C347.129 415.778 348.411 414.642 347.851 412.287C347.587 411.177 346.585 409.896 345.075 409.385C344.337 409.113 343.464 409.041 342.59 409.239C341.749 409.437 341.041 409.803 340.402 410.069C337.842 411.535 336.713 408.473 337.292 406.863C337.77 405.118 338.481 403.979 338.213 403.843L338.18 403.809Z" fill="#FBF1FC"/>
<path d="M372.779 463.505C372.779 463.505 372.886 462.263 372.761 460.045C372.637 457.826 372.383 454.633 372.065 450.667C371.396 442.769 370.338 431.844 369.083 419.81C368.795 416.819 368.674 413.929 369.089 411.209C369.471 408.489 370.558 406.075 372.079 404.1C375.188 400.116 379.565 398.053 383.299 397.197C387.066 396.307 390.291 396.356 392.475 396.433C394.692 396.51 395.901 396.65 395.935 396.516C395.935 396.415 394.761 396.04 392.545 395.728C390.329 395.449 387.037 395.198 383.036 395.953C379.101 396.707 374.287 398.768 370.807 403.086C369.083 405.229 367.827 407.978 367.377 410.932C366.893 413.887 367.047 416.945 367.335 419.97C368.59 432.038 369.817 442.896 370.822 450.762C371.308 454.696 371.73 457.889 372.089 460.075C372.415 462.26 372.678 463.471 372.779 463.472L372.779 463.505Z" fill="#241352"/>
<path d="M370.541 460.739C370.471 461.209 381.954 462.875 396.159 464.452C410.364 466.03 421.918 466.89 421.987 466.42C422.056 465.949 410.573 464.284 396.369 462.706C382.164 461.129 370.61 460.269 370.541 460.739Z" fill="#241352"/>
<path d="M247.581 480.533C247.158 477.641 247.271 474.92 245.67 472.359C242.468 467.271 237.927 468.527 233.481 470.758C228.969 472.988 224.729 474.346 219.834 472.207C212.222 468.879 208.681 457.305 215.996 451.929C218.356 450.193 220.695 453.093 220.349 455.309C219.898 458.398 218.336 461.818 220.978 464.484C224.523 468.062 228.703 465.091 232.238 463.495C236.076 461.799 240.143 461.415 244.101 463.045C250.875 465.832 255.771 475.06 250.366 481.285C249.59 482.155 247.777 481.743 247.615 480.533L247.581 480.533Z" fill="#7E2E83"/>
<path d="M196.077 370.866C201.329 375.964 203.308 383.868 198.241 389.926C193.477 395.65 184.299 396.817 178.407 392.22C164.179 381.134 179.156 360.843 194.558 365.114C197.411 365.9 196.686 369.962 193.863 370.117C189.36 370.365 184.521 370.51 180.912 373.652C177.032 377.027 176.905 382.772 180.079 386.684C188.43 397.071 203.116 381.919 194.322 372.639C193.219 371.458 194.94 369.752 196.111 370.866L196.077 370.866Z" fill="#FF8C00"/>
<path d="M418.303 361.845C423.555 366.943 425.534 374.848 420.466 380.906C415.703 386.629 406.525 387.796 400.633 383.2C386.405 372.114 401.382 351.822 416.784 356.093C419.636 356.879 418.912 360.941 416.089 361.096C411.586 361.344 406.747 361.49 403.137 364.631C399.258 368.007 399.131 373.751 402.305 377.664C410.656 388.05 425.341 372.898 416.548 363.584C415.445 362.403 417.166 360.698 418.337 361.812L418.303 361.845Z" fill="#7CAAFF"/>
<path d="M494.318 489.499C490.627 502.989 486.567 516.308 482.34 529.627C481.317 532.848 478.289 533.809 475.542 531.948C464.724 524.54 453.906 517.233 443.696 509.021C441.721 507.433 442.173 504.277 444.127 502.942C456.193 494.733 472.511 482.612 487.764 482.615C491.662 482.633 494.324 488.088 490.383 490.355C484.218 493.888 476.821 495.097 470.223 497.821C462.616 500.944 455.073 504.605 448.365 509.379C448.24 507.161 448.083 504.943 447.959 502.725C459.416 509.833 470.198 517.812 481.081 525.758C478.929 526.185 476.776 526.611 474.624 527.005C479.355 513.856 484.186 500.775 489.42 487.83C490.508 485.08 495.171 486.614 494.385 489.499L494.318 489.499Z" fill="#FF7180"/>
<path d="M179.705 431.334C170.258 432.601 160.342 433.496 150.802 433.082C147.309 432.932 147.466 428.094 150.827 427.74C160.104 426.809 169.914 427.056 179.217 427.77C181.098 427.914 181.823 431.008 179.672 431.3L179.705 431.334Z" fill="#50D0AA"/>
<path d="M497.704 432.801C488.257 434.068 478.342 434.963 468.801 434.549C465.308 434.399 465.465 429.561 468.826 429.207C478.104 428.276 487.913 428.523 497.217 429.238C499.097 429.381 499.822 432.475 497.671 432.767L497.704 432.768L497.704 432.801Z" fill="#50D0AA"/>
<path d="M434.612 417.055C434.612 417.055 434.949 416.788 435.085 416.62C437.21 414.749 440.706 414.395 442.779 416.656C444.851 418.95 444.769 422.074 442.743 424.35C442.608 424.517 442.473 424.685 442.304 424.818C440.379 426.96 436.482 426.874 434.577 424.783C432.671 422.691 432.318 419.06 434.612 417.055Z" fill="#241352"/>
<path d="M299.312 460.915C299.749 460.917 300.19 452.62 301.078 442.377C301.965 432.1 301.634 423.665 301.097 423.696C300.66 423.694 300.218 431.991 299.331 442.234C298.444 452.511 298.774 460.946 299.312 460.915Z" fill="#241352"/>
<path d="M245.512 382.786L220.615 375.683L219.116 380.212L244.245 388.122L245.512 382.786Z" fill="#241352"/>
<path d="M229.593 381.671C229.585 383.384 230.956 384.768 232.669 384.776C234.382 384.784 235.766 383.413 235.774 381.699C235.782 379.986 234.411 378.602 232.698 378.594C230.984 378.586 229.601 379.957 229.593 381.671Z" fill="#E5E1EA"/>
<path d="M330.935 313.766C331.337 314.003 332.145 313.604 332.956 312.7C333.732 311.831 334.073 310.757 333.671 310.486C333.269 310.249 332.461 310.649 331.651 311.552C330.874 312.422 330.533 313.496 330.935 313.766Z" fill="#241352"/>
<path d="M353.632 317.063C354.034 317.3 354.842 316.9 355.653 315.997C356.43 315.127 356.77 314.054 356.369 313.783C355.967 313.546 355.158 313.945 354.348 314.849C353.571 315.719 353.23 316.792 353.632 317.063Z" fill="#241352"/>
</g>
<defs>
<clipPath id="clip0_107_566">
<rect width="498.053" height="570.758" fill="white" transform="matrix(-0.999989 -0.00461342 -0.00461342 0.999989 501 2.42499)"/>
</clipPath>
</defs>
</svg>
