<?xml version="1.0" encoding="utf-8"?>
<!-- Generator: Adobe Illustrator 27.3.1, SVG Export Plug-In . SVG Version: 6.00 Build 0)  -->
<svg version="1.1" id="Layer_1" xmlns="http://www.w3.org/2000/svg" xmlns:xlink="http://www.w3.org/1999/xlink" x="0px" y="0px"
	 viewBox="0 0 389 431" style="enable-background:new 0 0 389 431;" xml:space="preserve">
<style type="text/css">
	.st0{clip-path:url(#SVGID_00000057864732987487934000000000592186567139507862_);}
	.st1{fill:#7CAAFF;}
	.st2{fill:#FF7180;}
	.st3{fill:#17A67D;}
	.st4{fill:#FF947E;}
	.st5{fill:#241352;}
	.st6{fill:#FF5500;}
	.st7{fill:#FFAFA6;}
	.st8{fill:#002C68;}
	.st9{fill:#50D0AA;}
	.st10{fill:#E7E6E9;stroke:#E7E6E9;stroke-width:0.28;stroke-miterlimit:10;}
	.st11{fill:#E1D2F4;}
	.st12{fill:#FFBB7A;}
	.st13{fill:#6F35A4;}
	.st14{fill:#FAC480;}
	.st15{fill:#EFE6F5;}
	.st16{fill:#FFFFFF;}
	.st17{fill:#E7E6E9;}
	.st18{fill:#FF8C00;}
</style>
<g>
	<defs>
		<rect id="SVGID_1_" y="0.2" width="389" height="430"/>
	</defs>
	<clipPath id="SVGID_00000011733667252281523540000005822168466559677855_">
		<use xlink:href="#SVGID_1_"  style="overflow:visible;"/>
	</clipPath>
	<g style="clip-path:url(#SVGID_00000011733667252281523540000005822168466559677855_);">
		<path class="st1" d="M147.9,192.7c-4.5,4.4-6.3,11.2-1.9,16.5c4.1,5,12,6,17.1,2.1c12.3-9.5-0.5-27.1-13.8-23.5
			c-2.5,0.7-1.9,4.2,0.6,4.3c3.9,0.2,8.1,0.4,11.2,3.1c3.3,2.9,3.4,7.9,0.7,11.3c-7.2,8.9-19.9-4.2-12.2-12.2
			C150.3,193.2,148.9,191.7,147.9,192.7L147.9,192.7z"/>
		<path class="st2" d="M274.9,207.8c1.7,6.2,3.5,12.3,5.4,18.5c0.5,1.5,1.9,1.9,3.1,1.1c5-3.4,10-6.7,14.7-10.5
			c0.9-0.7,0.7-2.2-0.2-2.8c-5.5-3.8-13-9.4-20-9.5c-1.8,0-3,2.5-1.2,3.5c2.8,1.6,6.2,2.2,9.2,3.5c3.5,1.5,7,3.2,10,5.4
			c0.1-1,0.1-2,0.2-3c-5.3,3.2-10.2,6.9-15.3,10.5l3,0.6c-2.1-6.1-4.3-12.1-6.7-18.1C276.7,205.8,274.5,206.5,274.9,207.8z"/>
		<path class="st3" d="M309.8,240.7c7.4-3.5,15-7.6,21.6-12.4c2.5-1.8,0-5.2-2.6-3.8c-7.1,3.7-14.1,8.6-20.5,13.5
			C307.2,238.9,308.1,241.5,309.8,240.7L309.8,240.7z"/>
		<path class="st4" d="M37,263.3c-1.5-8.1-3.6-16.5-6.5-24.1c-1.1-2.8-5-1.4-4.3,1.5c1.8,7.9,4.7,15.8,7.9,23.2
			C34.7,265.4,37.4,265.2,37,263.3L37,263.3z"/>
		<path class="st5" d="M60.3,191.9c0,0-0.3-0.2-0.4-0.4c-1.8-1.6-4.8-1.9-6.6,0c-1.8,2-1.7,4.7,0,6.6c0.1,0.1,0.2,0.3,0.4,0.4
			c1.7,1.9,5,1.8,6.7,0C62,196.7,62.3,193.6,60.3,191.9z"/>
		<path class="st6" d="M257.7,400c0,0-77.8,18.1-109.1-13.2l11.2-74.8c3.4-21.5,1.4-62.9,17.8-77.5c3.2-2.8,6.2-4.3,6.2-4.3
			c11.5-5.6,32-8.6,51.8-8.7c23.9-0.1,48.6,18,54.9,41.2l-25.9,60.7L257.7,400z"/>
		<path class="st7" d="M250,272c0,0,34.9,67.3,17.6,70.8c-57,11.8-90,21.4-90,21.4l-2.9,22.1c0.8,3.3,115.2,0.5,128.8-14.9
			c9.6-10.9,22.3-36-4.8-90.3l-8.2-18.5L250,272L250,272z"/>
		<path class="st7" d="M184.5,237.4L97.7,271L95,225.4l-18.6-7.2c0,0-26.9,73.2,6.8,86.9c33.7,13.6,71.7-11.5,71.7-11.5L184.5,237.4
			L184.5,237.4z"/>
		<path class="st6" d="M195.3,226.2c-30.3,9.7-48.4,21-91.1,38.8l21.9,48.9l37.8-12.1L195.3,226.2z"/>
		<path class="st6" d="M244.8,262.7l22,51.3l49.7-9.1l-33.5-57.8l-39.6,15.6"/>
		<path class="st8" d="M218.8,297.6c10.6-0.6,21-0.1,31.6,0c0.9,0,0.9-1.3,0-1.4c-10.4-1.2-21.2-0.8-31.6,0.1
			C218,296.5,218,297.7,218.8,297.6z"/>
		<path class="st8" d="M266.2,238.2c-35.8,3.2-11.3,56-2.1,72c0.5,0.9,1.9,0.1,1.4-0.8c-9.1-16.1-33.5-65.3,0.9-70.3
			C266.8,239,266.7,238.1,266.2,238.2L266.2,238.2z"/>
		<path class="st8" d="M167.1,268.4c-4.4,17.6-7.4,35.9-8.5,54c-0.1,0.8,1.2,0.9,1.3,0.2c2.6-18,5.1-36,8-53.9
			C168.1,268.1,167.3,267.8,167.1,268.4L167.1,268.4z"/>
		<path class="st5" d="M250.8,170.8c0.6-7.6,1.1-15.1,1.7-22.7c5.9-1.7,9-9.3,6.6-15c-2.4-5.7-9.1-8.9-15.2-8
			c3.9-2.6,3.6-8.9,0.4-12.3c-3.2-3.4-8.1-4.5-12.8-4.7c-4.7-0.2-9.4,0.4-13.9-0.5c-4.1-0.8-8-2.6-12.1-2.1c-4.1,0.5-8,5.1-5.8,8.6
			c-5.9-0.9-12.3-1.7-17.5,1.2c-5.2,2.8-7.9,11-3.4,14.9c-3,1.5-3.7,5.8-2.1,8.7c1.7,2.9,5.1,4.4,8.4,4.7c3.3,0.2,6.6-0.6,9.9-1.5"
			/>
		<path class="st7" d="M249.8,156.2l-1.2,15.7c0,0,13.3,1.8,9.5,14c-3.8,12.2-12.9,6.8-12.9,6.8S243,223.9,211,214
			c-25.4-7.9-23.9-40.9-20.6-69c1.2-10.9,11.5-18.4,22.3-16.3l19.2,3.7C243,134.7,250.7,144.8,249.8,156.2L249.8,156.2z"/>
		<path class="st7" d="M248.6,184.9l-8.6,46c-1.9,10.4-12.1,17-22.4,14.5c-9.5-2.3-15.6-11.6-13.9-21.2l4.7-26.4L248.6,184.9z"/>
		<path class="st5" d="M213.3,185.4c0,0,0.1,0.6-0.8,1.1c-1,0.4-2.6-0.5-3-2.1c-0.5-1.5-0.4-3.3-0.3-5.2c0.1-2,0.2-4,0.3-6.1
			c0.6-8.7,1.3-15.7,1.7-15.7c0.4,0,0.3,7.1-0.2,15.8c-0.1,2.1-0.3,4.1-0.4,6.1c-0.2,1.9-0.3,3.5,0,4.8c0.2,1.3,1.2,1.9,1.8,1.8
			C213,185.9,213.2,185.4,213.3,185.4L213.3,185.4z"/>
		<path class="st5" d="M203,210.8c0.1-0.2,1.7,0.8,4.3,2c2.6,1.2,6.5,2.4,10.8,2.5c4.4,0.1,8.3-1,10.9-2c2.7-1.1,4.2-2,4.4-1.9
			c0.1,0.1-1.2,1.5-3.9,2.8s-6.8,2.6-11.4,2.6c-4.6-0.1-8.7-1.6-11.3-3C204.2,212.3,202.9,210.9,203,210.8L203,210.8z"/>
		<path class="st5" d="M209.2,191.9c0.2-0.1,0.9,0.5,2.2,1.1c1.3,0.6,3.4,1,5.4,0.4c2.1-0.7,3.5-2.2,4.2-3.5
			c0.8-1.3,0.9-2.2,1.2-2.2c0.2,0,0.4,1.1-0.2,2.7c-0.6,1.6-2.1,3.6-4.7,4.5c-2.6,0.8-5,0.1-6.4-0.9C209.5,193,209,192,209.2,191.9
			L209.2,191.9z"/>
		<path class="st5" d="M249.6,187.4c0-0.2,0.8-0.3,1.7-0.9c0.4-0.3,0.8-0.7,1-1.2c0.1-0.6,0-1.1-0.5-1.2c-0.4-0.1-0.7,0-0.8,0.1
			l-1.3-0.7c1.2-2.5,2.3-4.2,2.6-4.1c0.3,0.1-0.2,2.1-1.3,4.6l-1.3-0.7c0.6-0.9,1.7-1.1,2.6-0.8c0.6,0.2,1.2,0.8,1.3,1.4
			c0.2,0.6,0.1,1.2-0.1,1.7c-0.3,1-1.2,1.6-1.8,1.8C250.4,187.9,249.6,187.5,249.6,187.4L249.6,187.4z"/>
		<path class="st5" d="M225,156.4c-0.2-0.4,1.5-1.2,3.6-0.7c2.1,0.6,3.1,2.1,2.8,2.4c-0.3,0.3-1.5-0.5-3.2-0.9
			C226.6,156.7,225.2,156.8,225,156.4L225,156.4z"/>
		<path class="st5" d="M197.4,152c-0.2-0.3,1.5-1.5,3.8-1.2c2.3,0.2,3.8,1.6,3.5,1.9c-0.2,0.4-1.7-0.2-3.7-0.4
			C199.2,152.1,197.6,152.4,197.4,152z"/>
		<path class="st5" d="M248.6,171.9c-8.9-8.7-11.5-23.2-14-35.4c-8.3,6-19.6,7.5-29.1,3.8c-3,3.5-6.5,6.6-10.4,9.1
			c-1.1,0.7-2.4,1.4-3.7,1c-1.5-0.5-2.2-2.2-2.5-3.7c-1.1-4.9-1.2-10.1,0.5-14.8c1.7-4.7,5.3-8.9,9.9-10.7c5-1.9,10.6-1.1,15.8,0.3
			c7.8,2,15.3,5.1,22.3,9.2c6.8,4,13.4,9.3,16.3,16.7c2.9,7.4,2.9,21.7-4.1,25.4"/>
		<path class="st5" d="M227.5,169.2c-0.4,0-0.7-1.1-0.6-2.5c0.1-1.3,0.5-2.4,0.9-2.4c0.4,0,0.7,1.1,0.6,2.5
			C228.3,168.2,227.9,169.3,227.5,169.2z"/>
		<path class="st5" d="M201.8,165.9c-0.4,0-0.7-1.1-0.6-2.5c0.1-1.3,0.5-2.4,0.9-2.4c0.4,0,0.7,1.1,0.6,2.5
			C202.6,164.9,202.2,166,201.8,165.9z"/>
		<path class="st7" d="M75.4,219.7c0,0,3.9-23.7,8.5-23.5c4.6,0.3,13.8,0,13.8,0s0.8-22.6,3.3-19c2.6,3.6,3.4,34-6.5,48.5
			L75.4,219.7L75.4,219.7z"/>
		<path class="st7" d="M177.5,364.3c0,0-41.3,7.3-40.5,12.6c0.8,5.4,3.7,10.8,3.7,10.8l36.8-0.9V364.3L177.5,364.3z"/>
		<path class="st9" d="M222.4,389l-0.3-5.7l-85.1-5.2l-28.5-76.5L15,306.8l31.9,82.7L222.4,389z"/>
		<path class="st10" d="M1.1,390.7l365.4-4.6l21.4,11.3C387.9,397.4,107.4,474.5,1.1,390.7z"/>
		<path class="st11" d="M286.9,120c-1.1,2.1,2.5,57.7,2.5,57.7l27.3-2.3l-3.2,14.7l13.4-15.1l26.7-3.1l-1.6-53.9L286.9,120
			L286.9,120z"/>
		<path class="st12" d="M217.6,33.5c0,0-18.8,0.9-19.4,21c0,0,0.3,11,6.3,15.1c6,4.1,5.7,8.5,5.7,8.5h15.7c0,0-0.6-5.7,1.9-8.8
			c2.5-3.1,8.8-9.8,7.9-19.5C234.5,40.1,227.3,32.5,217.6,33.5L217.6,33.5z"/>
		<path class="st13" d="M209.7,83c5.6-0.3,11.3,0.3,16.9,0c0.8-0.1,1.1-1.3,0.2-1.5c-5.4-1.1-11.6-0.5-17.1,0.1
			C208.9,81.8,208.9,83.1,209.7,83z"/>
		<path class="st13" d="M211.9,87.9c2.3-0.1,4.5-0.2,6.8-0.2c2.2,0,4.5,0.4,6.8,0.2c0.8-0.1,1.1-1.2,0.2-1.5
			c-4.3-1.1-9.5-0.5-13.9,0.1C211,86.7,211.2,88,211.9,87.9z"/>
		<path class="st13" d="M213.8,91.6c2,0.1,4,0.7,6,0.6c1,0,1.2-1.4,0.2-1.7c-1.9-0.6-4.2-0.4-6.2-0.3
			C212.9,90.3,212.9,91.5,213.8,91.6L213.8,91.6z"/>
		<path class="st13" d="M214.7,77.9c0.4-5.6-1.4-11.8-2.4-17.3c-0.6,0.2-1.1,0.5-1.7,0.7c0.8,1.3,2.1,5,4.1,4.9
			c2.1-0.1,2.8-3.9,3.2-5.4h-1.8c0.4,1.7,0.5,5.9,3.2,5.5c2.3-0.3,3.8-3.7,4.6-5.6c-0.6-0.2-1.2-0.3-1.9-0.5
			c-1.4,5.5-2.1,12.4-0.7,17.9c0.3,1,1.8,0.8,1.8-0.2c-0.2-5.8-1-11.5,0.8-17.2c0.4-1.2-1.4-1.7-1.9-0.5c-0.3,0.6-1.7,4.3-3.1,3.8
			c-0.3-0.1-0.8-3.4-0.9-3.7c-0.2-0.9-1.6-0.9-1.8,0c-0.2,1.1-0.7,4.2-2,3.3c-0.8-0.5-1.4-2.4-1.9-3.2c-0.6-0.9-1.8-0.3-1.7,0.7
			c0.9,5.5,1.1,11.9,3.3,17C214.1,78.5,214.7,78.2,214.7,77.9L214.7,77.9z"/>
		<path class="st12" d="M159.3,70.9c8.4-2.7,17-5,25.2-8.2c0.7-0.3,0.4-1.2-0.3-1.1c-8.5,2.1-16.9,5.3-25.2,8
			C158.1,69.9,158.5,71.2,159.3,70.9L159.3,70.9z"/>
		<path class="st12" d="M169.5,45.9c5.3-0.1,10.8,0.2,16-0.5c0.9-0.1,0.9-1.3,0-1.4c-5.2-0.4-10.7,0.2-16,0.4
			C168.6,44.5,168.5,46,169.5,45.9L169.5,45.9z"/>
		<path class="st12" d="M194.8,36.8c-5.9-5.2-11.6-11.6-18.4-15.7c-1-0.6-2,0.8-1.2,1.6c5.2,5.9,12.4,10.3,18.5,15.2
			C194.5,38.5,195.6,37.4,194.8,36.8z"/>
		<path class="st12" d="M208.2,28.8c0.1-1.7-1.3-3.3-2.1-4.6c-1-1.6-1.8-3.5-3.1-4.9c-0.6-0.7-1.9,0-1.6,0.9c0.6,1.8,1.9,3.4,3,5
			c0.9,1.3,1.7,3.3,3.2,3.9C207.9,29.3,208.1,29.1,208.2,28.8z"/>
		<path class="st12" d="M220.7,25.5c0.1-8,0.5-16.5-0.4-24.4c-0.1-1.1-1.7-1.2-1.8,0c-0.6,8,0.1,16.4,0.6,24.4
			C219.1,26.5,220.7,26.5,220.7,25.5z"/>
		<path class="st12" d="M230,29.3c2-3,4.1-5.9,5.6-9.2c0.5-1.1-0.9-1.9-1.6-1c-2.1,2.9-3.7,6.2-5.2,9.4
			C228.3,29.4,229.5,30.1,230,29.3L230,29.3z"/>
		<path class="st12" d="M237.4,35.9c4.1-1.8,8.1-4.1,12.1-6.3c3.5-1.9,7.3-3.6,10.4-6.1c0.7-0.6-0.1-1.7-0.8-1.5
			c-3.8,1.3-7.2,3.7-10.7,5.7c-3.9,2.2-7.9,4.4-11.6,7C236,35.3,236.6,36.3,237.4,35.9L237.4,35.9z"/>
		<path class="st12" d="M242.5,46.4c3,0.8,7.9,0.3,10.2-1.9c0.8-0.7-0.1-1.8-1-1.7c-1.6,0.3-3,1.1-4.6,1.5c-1.6,0.4-3.1,0.4-4.7,0.6
			C241.7,45,241.8,46.2,242.5,46.4L242.5,46.4z"/>
		<path class="st12" d="M243.7,60.9c11.2,2.8,22.9,6,34.4,7.5c1.3,0.2,1.5-1.9,0.3-2.3c-11-3.3-22.9-5-34.2-6.9
			C243.1,58.9,242.6,60.6,243.7,60.9L243.7,60.9z"/>
		<path class="st9" d="M84.2,257.8c0.4-2.5,0.3-4.8,1.7-7.1c2.8-4.4,6.7-3.3,10.5-1.3c3.9,1.9,7.5,3.1,11.8,1.3
			c6.6-2.8,9.7-12.8,3.4-17.5c-2-1.5-4.1,1-3.8,2.9c0.4,2.7,1.7,5.6-0.6,7.9c-3.1,3.1-6.7,0.5-9.7-0.9c-3.3-1.5-6.8-1.8-10.2-0.4
			c-5.9,2.4-10.1,10.3-5.5,15.7C82.5,259.2,84,258.8,84.2,257.8L84.2,257.8z"/>
		<path class="st14" d="M170.9,262.6c7.9-2.2,16.1-4.8,23.5-8.3c2.7-1.3,1-5.1-1.8-4.2c-7.7,2.4-15.4,5.9-22.5,9.6
			C168.6,260.4,169,263.1,170.9,262.6L170.9,262.6z"/>
		<path class="st15" d="M131.5,270.9c1.7,6.2,3.5,12.3,5.4,18.5c0.5,1.5,1.9,1.9,3.1,1.1c5-3.4,10-6.7,14.7-10.5
			c0.9-0.7,0.7-2.2-0.2-2.8c-5.5-3.8-13-9.4-20-9.5c-1.8,0-3,2.5-1.2,3.5c2.8,1.6,6.2,2.2,9.2,3.5c3.5,1.5,7,3.2,10,5.4
			c0.1-1,0.1-2,0.2-3c-5.3,3.2-10.2,6.9-15.3,10.5c1,0.2,2,0.4,3,0.6c-2.1-6.1-4.3-12.1-6.7-18.1
			C133.3,268.9,131.2,269.5,131.5,270.9z"/>
		<path class="st3" d="M142.4,333c8.2,0.6,16.8,0.8,24.9,0.1c3-0.3,2.6-4.4-0.3-4.5c-8.1-0.3-16.5,0.4-24.5,1.5
			C141,330.2,140.5,332.8,142.4,333L142.4,333z"/>
		<path class="st16" d="M301.9,144.9l5.7,20l8-1.6l-0.8-4l2.3-1.4l4.3,4.3l13.6-2.7l1.8-5.2l-3.9-0.9l5-1.7l-1.1-5.6l-4.3,0.4
			l5.9-1.6l-1.4-6.9l-13.9,2.7c0,0,0.9-9.7-3.2-12.8l-3.1,0.6c0,0,1,3,1,4.9c-0.1,1.9-2.8,10.5-2.8,10.5l-4.3,2l-1-2.8L301.9,144.9
			L301.9,144.9z"/>
		<path class="st11" d="M20.3,107.4l4.6,55.4h101.8l5.6,19.5l5.9-21.4l19.4-1.1l-9-49.6L20.3,107.4z"/>
		<path class="st16" d="M33.7,128c35.1-1.7,70.1-1.4,105,1.8c1.2,0.1,1.2-1.8,0-1.9c-35-2.7-70-3.5-105-1.6
			C32.6,126.3,32.6,128,33.7,128z"/>
		<path class="st16" d="M35.8,138.9c35.1-1.7,70.1-1.4,105,1.8c1.2,0.1,1.2-1.8,0-1.9c-35-2.7-70-3.5-105-1.6
			C34.7,137.2,34.7,138.9,35.8,138.9z"/>
		<path class="st16" d="M36,148c23.6,0.7,46.9-0.9,70.4,1.2c1.2,0.1,1.2-1.8,0-1.9c-23.5-1.7-46.9-0.5-70.4-1
			C34.9,146.3,34.9,148,36,148L36,148z"/>
		<g>
			<path d="M97.2,341.2l-9.6-10.8c-0.2-0.2-0.4-0.3-0.7-0.3l-27.5,1.5c-0.3,0-0.5,0.1-0.7,0.4l-8.3,11.7c-0.3,0.4-0.4,0.9-0.4,1.4
				l0.1,1.9c0.1,3,2.7,5.3,5.8,5.2c1.9-0.1,3.6-1.2,4.4-2.7c1.1,1.5,2.8,2.3,4.7,2.2c1.9-0.1,3.6-1.2,4.4-2.7
				c1.1,1.5,2.8,2.3,4.7,2.2c1.9-0.1,3.6-1.2,4.4-2.7c1.1,1.5,2.8,2.3,4.7,2.2c1.9-0.1,3.6-1.2,4.4-2.7c1.1,1.5,2.8,2.3,4.7,2.2
				c3-0.1,5.3-2.7,5.2-5.8l-0.1-2C97.8,342,97.6,341.5,97.2,341.2L97.2,341.2z M96.5,342.3l0.1,2.1c0.1,2.3-1.7,4.4-4,4.5
				c-2.4,0.2-4.5-1.8-4.6-4.2l-0.1-2.2l0-0.1c0,0,0,0,0-0.1c0,0,0,0,0-0.1L82,331.5l4.8-0.3c0,0,0.3,0,0.3,0.1l9.4,10.6
				c0,0,0.1,0.1,0.1,0.2C96.6,342.2,96.6,342.2,96.5,342.3L96.5,342.3z M69.7,345.8l-0.1-2.3l1.4-11.5l4.6-0.3l2.6,11.2l0.1,2.3
				c0.1,2.4-1.7,4.4-4.1,4.6C71.8,350.1,69.8,348.2,69.7,345.8L69.7,345.8z M56,350.9c-2.4,0.2-4.5-1.8-4.6-4.2l-0.1-2
				c0,0,0-0.1,0-0.2c0-0.1,0-0.1,0.1-0.2l8.2-11.5c0,0,0.2-0.2,0.3-0.2l4.8-0.3l-4.7,11.5c0,0,0,0,0,0.1c0,0,0,0,0,0.1l0,0.1
				l0.1,2.3C60.1,348.7,58.3,350.8,56,350.9L56,350.9z M60.4,344.1l4.8-11.7l5.2-0.3l-1.4,11.4l0,0.1l0.1,2.3
				c0.1,2.4-1.7,4.4-4.1,4.6c-2.4,0.1-4.4-1.7-4.6-4.1L60.4,344.1L60.4,344.1z M78.7,343.1L78.7,343.1l-2.6-11.2l5.2-0.3l6,11.1
				l0.1,2.3c0.1,2.4-1.7,4.4-4.1,4.6c-2.4,0.1-4.4-1.7-4.6-4.1L78.7,343.1L78.7,343.1z"/>
			<path class="st6" d="M59.9,344.1l-8.6,0.5c0,0,0,0.1,0,0.2l0.1,2c0.1,2.4,2.2,4.4,4.6,4.2c2.4-0.2,4.1-2.2,4-4.5L59.9,344.1
				L59.9,344.1z"/>
			<path class="st17" d="M65.1,350.4c2.4-0.1,4.2-2.2,4.1-4.6l-0.1-2.3l-8.6,0.5l0.1,2.3C60.6,348.7,62.7,350.6,65.1,350.4z"/>
			<path class="st6" d="M78.3,345.4l-0.1-2.3l-8.6,0.5l0.1,2.3c0.1,2.4,2.2,4.2,4.6,4.1C76.6,349.8,78.4,347.8,78.3,345.4z"/>
			<path class="st17" d="M83.4,349.4c2.4-0.1,4.2-2.2,4.1-4.6l-0.1-2.3l-8.6,0.5l0.1,2.3C79,347.7,81,349.5,83.4,349.4z"/>
			<path class="st6" d="M87.9,342.6l0.1,2.2c0.1,2.4,2.2,4.4,4.6,4.2c2.4-0.2,4.1-2.2,4-4.5l-0.1-2.1c0,0,0-0.1-0.1-0.2L87.9,342.6
				L87.9,342.6z"/>
			<path class="st18" d="M59.9,344.1L59.9,344.1c0-0.1,0-0.1,0-0.1c0,0,0,0,0-0.1l4.7-11.5l-4.8,0.3c0,0-0.2,0.1-0.3,0.2l-8.2,11.5
				c0,0,0,0.1-0.1,0.2L59.9,344.1z"/>
			<path class="st16" d="M69,343.5L69,343.5L69,343.5l1.4-11.4l-5.2,0.3l-4.8,11.7L69,343.5L69,343.5z"/>
			<path class="st18" d="M78.2,343l-2.6-11.2l-4.6,0.3l-1.4,11.4l0,0L78.2,343L78.2,343z"/>
			<path class="st16" d="M81.4,331.5l-5.2,0.3l2.6,11.1l0,0l0,0l0,0.1l8.6-0.5L81.4,331.5z"/>
			<path class="st18" d="M87,331.4c0,0-0.2-0.2-0.3-0.1l-4.8,0.3l5.9,10.9c0,0,0,0,0,0.1c0,0,0,0,0,0.1l0,0.1l8.6-0.5
				c0-0.1,0-0.1-0.1-0.2L87,331.4L87,331.4z"/>
		</g>
	</g>
</g>
</svg>
