<?xml version="1.0" encoding="utf-8"?>
<!-- Generator: Adobe Illustrator 27.3.1, SVG Export Plug-In . SVG Version: 6.00 Build 0)  -->
<svg version="1.1" id="Layer_1" xmlns="http://www.w3.org/2000/svg" xmlns:xlink="http://www.w3.org/1999/xlink" x="0px" y="0px"
	 viewBox="0 0 540 578" style="enable-background:new 0 0 540 578;" xml:space="preserve">
<style type="text/css">
	.st0{fill:url(#SVGID_1_);}
	.st1{fill:url(#SVGID_00000011748244746738645020000018072600167069583246_);}
	.st2{fill:url(#SVGID_00000138568159215699904150000008535053174681241990_);}
	.st3{opacity:0.15;}
	.st4{fill:#3B3B3B;}
	.st5{opacity:0.41;fill:#3B3B3B;enable-background:new    ;}
	.st6{fill:#50D0AA;}
	.st7{fill:#241352;}
	.st8{fill:#FFAFA6;}
	.st9{fill:#FF5500;}
	.st10{fill:#FAC480;}
	.st11{fill:#FF8C00;}
	.st12{fill:#9B8ABE;}
	.st13{fill:#FFFFFF;}
	.st14{opacity:0.41;fill:#FFFFFF;enable-background:new    ;}
	.st15{fill:#002C68;}
	.st16{opacity:0.28;}
	.st17{opacity:0.12;}
	.st18{fill:#6042DC;}
	.st19{fill:#FBF1FC;}
	.st20{fill:#7E2E83;}
	.st21{fill:#FF7180;}
	.st22{fill:#FF947E;}
</style>
<g>
	<linearGradient id="SVGID_1_" gradientUnits="userSpaceOnUse" x1="42.9324" y1="532.3932" x2="440.9324" y2="46.3932">
		<stop  offset="0" style="stop-color:#FEDBBB"/>
		<stop  offset="1" style="stop-color:#CD30D0"/>
	</linearGradient>
	<path class="st0" d="M402.4,517c66-24.9,123.2-86.6,135-163.2c11.7-76.6-31.6-163-99.6-179.7c-32.2-7.8-66.9-0.8-97.7-14
		c-58-24.9-77.7-109.1-131.3-144.2C157.2-17.9,86.5,6.5,48,57.7C9.6,108.9-1.7,179.6,0.7,246.3c3.5,98.1,40.8,203.9,120.5,245.3
		C188.4,526.6,330.3,536.5,402.4,517"/>
	
		<linearGradient id="SVGID_00000153676815476511051830000015837259409500369316_" gradientUnits="userSpaceOnUse" x1="178.754" y1="643.6216" x2="576.754" y2="157.6216">
		<stop  offset="0" style="stop-color:#FEDBBB"/>
		<stop  offset="1" style="stop-color:#CD30D0"/>
	</linearGradient>
	<path style="fill:url(#SVGID_00000153676815476511051830000015837259409500369316_);" d="M506.8,523.4
		c-15.2,27.1-46.7,37.2-75.3,36.6c-28.6-0.7-56.6-9.8-85.2-11.6c-45.3-2.9-89.7,12.5-134.3,22.2c-44.5,9.7-93.2,13.2-133-11.3
		c-9.7-6-19.1-14.2-23.1-25.8c-4-11.6-0.4-27,9.9-31.8c4-1.9,8.4-2,12.7-2.1c95.5-2,190.9-3.9,286.3-5.9
		c48.6-1,102.1-0.1,138.6,35.8"/>
	
		<linearGradient id="SVGID_00000121959268759257280840000012349796589459510463_" gradientUnits="userSpaceOnUse" x1="-16.4536" y1="483.7603" x2="381.5464" y2="-2.2398">
		<stop  offset="0" style="stop-color:#FEDBBB"/>
		<stop  offset="1" style="stop-color:#CD30D0"/>
	</linearGradient>
	<path style="fill:url(#SVGID_00000121959268759257280840000012349796589459510463_);" d="M351.4,11c10.7,3.9,19.5,13.6,23.4,25.4
		c3.9,11.8,2.7,25.5-2.9,36.4c-10.9,20.9-38.8,27.7-56.5,13.6c-17.7-14-21.1-45.7-6.9-64c14.2-18.3,42.8-19.2,57.8-1.7"/>
</g>
<g class="st3">
	<path class="st4" d="M69.9,203.4c5.8,6.3,8,16,2.5,23.5c-5.2,7.1-15.4,8.6-21.9,2.9c-15.8-13.6,0.7-38.7,17.7-33.5
		c3.2,1,2.4,6-0.7,6.2c-5,0.3-10.3,0.5-14.3,4.4c-4.3,4.2-4.4,11.3-0.9,16.1c9.3,12.7,25.4-6,15.6-17.4
		C66.8,204.1,68.7,202,69.9,203.4L69.9,203.4z"/>
	<path class="st4" d="M449.6,141.7c5.9-2.9,13.1-2.3,18.4,1.7c5.3,4,8.6,11.2,8.3,18.4c-0.2,5.6-2.2,12,1,16.3
		c2.5,3.4,6.9,3.6,10.4,5.5c6.7,3.4,10.1,13.3,7,20.8c-1.7,4.1-4.9,7.8-4.3,12.2c0.4,2.9,2.4,5.1,4.7,6.5c2.3,1.4,4.7,2.2,7.1,3.5
		c8.5,4.6,13.6,15.4,13.4,25.9c-0.3,10.5-5.4,20.5-12.9,27c-7.5,6.5-16.9,9.6-26.4,10c-9.5,0.4-19.3-2.1-26.5-8.9
		c-5.4-5.1-8.9-12.3-11.5-19.7c-5-14-7-29.3-5.8-44.3c1.2-15.6,5.7-30.6,6.7-46.2c0.3-5.2,0.3-10.5,1.3-15.6
		c1-5.1,3.4-10.1,7.4-12.9"/>
	<path class="st4" d="M451.7,143.7c-5.4-12.5-16-21.9-28.1-24.9c-7.4-1.8-15.6-1.2-22.1,3.1c-6.5,4.3-11.1,12.9-10.1,21.3
		c0.6,5.2,3.2,9.9,4.7,14.8c1.6,4.9,2.2,11-0.9,15c-2.7,3.6-7.3,4.6-10.9,6.9c-5.2,3.4-8.5,10.2-8.2,16.9c0.3,6.7,4.3,13,9.8,15.7
		c-5.5,0.7-10.6,4.1-13.8,9.2c-3.2,5.1-4.3,11.6-3.1,17.6c1.8,8.6,8.1,15.2,14.8,19.9c9.4,6.5,20.2,10.2,31.3,10.8
		c11.7,0.6,24.6-3.3,31-14.2c4.2-7.2,4.8-16.2,5.3-24.8c1.4-25.8,2.4-51.7,3.3-77.6c0.1-4.2,0.3-8.4-0.6-12.4"/>
	<path class="st4" d="M412.4,260.4l-104.8,43.8l10-47.2l-27.3-7.7c0,0-29.3,92.3-9,94.8c35.6,4.3,89.6-11.4,89.6-11.4L412.4,260.4
		L412.4,260.4z"/>
	<path class="st4" d="M421.6,462c0,0-126.6-154.2-212.1-120.6C124,375.1,87.9,532.2,87.9,532.2l68.1-1.2c0,0,53.8-118.7,80-114
		c26.2,4.6,107.2,117.6,107.2,117.6L421.6,462L421.6,462z"/>
	<path class="st4" d="M381.5,368.3l-5.3,90.5c27.3,37.5,122.3-11,122.3-11l1.1-37.8l2.2-90.1c-2.2-35.9-32-53.5-32-53.5
		c-12.3-6.9-31.2-10.8-48.1-9.9c-17.7,1-22.1,10.4-29.4,28.5C386.4,299.6,370.4,323.3,381.5,368.3L381.5,368.3z"/>
	<path class="st4" d="M480.8,464.9c0,0,14.5,66-29.7,76.4c-44.3,10.4-207.1-13.9-249.6-9.8c-42.4,4.2-163.1,12-163.1,12l-8.8-78.4
		c0,0,187.7-10.1,209-4.2C259.8,466.9,480.8,464.9,480.8,464.9L480.8,464.9z"/>
	<path class="st4" d="M459.6,349.5c0,0,13.3,87.3-5.5,85.2c-61.6-7.1-98.3-8-98.3-8l-10.2,23.7c-0.2,4,116.7,41.4,135.4,29
		c13.3-8.7,34.4-32.2,24.8-102.4l-2.3-23.5L459.6,349.5L459.6,349.5z"/>
	<path class="st4" d="M404,474.9l0.1-5.8l-77.3-12.2l-20.5-80.1l-85.7-2.3l23.1,86.7L404,474.9z"/>
	<path class="st4" d="M265,414.7c-0.1,3.9,2.7,7.2,6.2,7.2c3.5,0.1,6.4-3,6.5-6.9c0.1-3.9-2.7-7.2-6.2-7.2
		C268,407.7,265.1,410.8,265,414.7z"/>
	<path class="st5" d="M262.5,414.7c-0.1,5.5,3.7,10,8.7,10.1c4.9,0.1,9-4.2,9.1-9.7c0.1-5.5-3.7-10-8.7-10.1
		C266.7,404.9,262.6,409.2,262.5,414.7z"/>
	<path class="st4" d="M493.4,291.6c0,0,14.4,15.4,17.6,73.7l-55.6-6.9C455.4,358.4,446.1,259.1,493.4,291.6z"/>
	<path class="st4" d="M85.2,116.3c0,0-19.7,49.4-25.2,46.8c-5.5-2.6-56.4-37.8-56.4-37.8s20.9-44.2,25.2-46.8
		C33.2,75.9,85.2,116.3,85.2,116.3z"/>
	<path class="st4" d="M28.8,78.5c-0.3,0.1,1.2,5.2,3.7,13.3s6.2,19.2,10.3,31.5c0.1,0.3,0.2,0.6,0.3,0.9l0.3,0.8l0.8-0.1
		c11.4-2.1,21.7-4.1,29.1-5.6c7.4-1.5,11.9-2.6,11.9-2.9c0-0.3-4.7,0.3-12.1,1.4c-7.5,1.2-17.8,2.9-29.2,5l1.1,0.7
		c-0.1-0.3-0.2-0.6-0.3-0.9c-4.2-12.3-8-23.3-10.9-31.3C30.9,83.3,29,78.4,28.8,78.5L28.8,78.5z"/>
	<path class="st4" d="M66.5,157.4c0.5-0.1-1-8.2-3.4-18.1s-4.8-17.8-5.3-17.5c-0.5,0.2,1,8.3,3.4,18.1
		C63.6,149.6,66,157.5,66.5,157.4z"/>
	<path class="st4" d="M7,115.5c0.1,0.6,7.2-0.2,15.9-1.7c8.7-1.5,15.6-3.3,15.6-3.8c-0.1-0.6-7.2,0.2-15.9,1.7
		C13.9,113.2,6.9,114.9,7,115.5z"/>
	<path class="st4" d="M465.6,169.4l-1.3,18.5c0,0,14.1,2.1,10.1,16.5c-4,14.4-13.6,8.1-13.6,8.1s-2.4,36.8-36.2,25.1
		c-26.8-9.3-25.2-48.1-21.8-81.2c1.3-12.8,12.2-21.6,23.5-19.2l20.3,4.4C458.3,144.2,466.5,156.2,465.6,169.4L465.6,169.4z"/>
	<path class="st4" d="M464.3,203.3l-9.1,54.1c-2,12.2-12.8,20-23.6,17.1c-10-2.6-16.4-13.6-14.6-24.9l4.9-31L464.3,203.3
		L464.3,203.3z"/>
	<path class="st4" d="M427,203.9c0,0-0.4,0.5-1,0.6c-0.6,0.1-1.5-0.6-1.7-2.1c-0.3-1.4-0.1-3.4,0-5.6c0.1-2.4,0.3-4.8,0.5-7.2
		c0.6-10.2,0.6-18.6,0.1-18.6c-0.5,0-1.4,8.2-2,18.5c-0.1,2.5-0.2,4.8-0.3,7.2c-0.1,2.2-0.1,4.3,0.4,6.2c0.4,1.9,2.2,3,3.3,2.5
		C427.2,204.7,427,203.9,427,203.9L427,203.9z"/>
	<path class="st4" d="M416.1,233.8c0,0,1.2,1.9,4,3.6c2.7,1.8,7,3.5,12,3.6c4.9,0.1,9.3-1.4,12.1-3.1c2.9-1.7,4.2-3.2,4.1-3.4
		c-0.3-0.6-6.8,4.6-16.2,4.3C422.7,238.7,416.3,233.2,416.1,233.8L416.1,233.8z"/>
	<path class="st4" d="M422.7,211.5c-0.2,0.2,0.3,1.4,1.7,2.5c1.4,1.2,4.1,2.1,6.9,1.1c2.8-1,4.4-3.5,5-5.4c0.6-1.9,0.3-3.2,0.1-3.2
		c-0.3,0-0.5,1.1-1.3,2.5c-0.8,1.4-2.3,3.2-4.4,4c-2.1,0.7-4.3,0.2-5.6-0.4C423.6,212,422.9,211.2,422.7,211.5L422.7,211.5z"/>
	<path class="st4" d="M465.4,206.2c0,0.2,0.8,0.7,2.3,0.2c0.7-0.2,1.6-1,2-2.2c0.2-0.6,0.3-1.3,0.1-2.1c-0.1-0.7-0.8-1.5-1.5-1.8
		c-1-0.4-2.3-0.2-2.9,1l1.6,1c1.1-3,1.6-5.3,1.2-5.5c-0.4-0.2-1.6,1.8-2.9,4.7l1.6,1c0,0,0.3-0.2,0.6,0c0.4,0.1,0.5,0.6,0.4,1.2
		s-0.5,1-0.9,1.4C466.2,205.7,465.3,205.9,465.4,206.2L465.4,206.2z"/>
	<path class="st4" d="M413.5,180.2c0.5,0.1,1.2-1.1,1.6-2.7c0.3-1.7,0.2-3.1-0.3-3.2c-0.5-0.1-1.2,1.1-1.6,2.7
		C412.8,178.7,413,180.1,413.5,180.2z"/>
	<path class="st4" d="M442.1,183.2c0.5,0.2,1.3-1,1.7-2.7c0.4-1.7,0.3-3.1-0.2-3.3c-0.5-0.2-1.3,1-1.7,2.7
		C441.5,181.6,441.5,183,442.1,183.2z"/>
	<path class="st4" d="M439.4,169.7c0.1,0.6,1.7,0.6,3.4,1.1c1.7,0.5,3,1.3,3.4,0.9c0.4-0.4-0.6-2.3-2.9-3
		C441,168,439.2,169.2,439.4,169.7z"/>
	<path class="st4" d="M410.2,164.6c0.2,0.6,1.9,0.3,3.9,0.5c2,0.2,3.6,0.7,3.9,0.2c0.3-0.5-1.2-2.2-3.7-2.4
		C411.8,162.7,410,164,410.2,164.6z"/>
	<path class="st4" d="M464.3,187.9c-9.4-10.3-12.2-27.3-14.8-41.7c-8.7,7.1-20.7,8.8-30.8,4.5c-3.2,4.1-6.9,7.7-11,10.7
		c-1.1,0.8-2.6,1.7-3.9,1.2c-1.6-0.5-2.3-2.6-2.7-4.3c-1.2-5.8-1.3-11.9,0.6-17.4c1.8-5.5,5.6-10.4,10.5-12.5
		c5.3-2.3,11.2-1.3,16.6,0.3c8.2,2.4,16.2,6,23.5,10.8c7.2,4.7,14.1,10.9,17.2,19.6c3,8.7,3,25.5-4.3,29.9"/>
	<path class="st4" d="M425.9,213.5c-0.4,2.9,1.8,5.8,4.8,5.1c3-0.7,4-4.3,2.6-6.8c-1.5-2.5-3.4-4-4.6-3.7
		C427.6,208.3,426.3,210.6,425.9,213.5L425.9,213.5z"/>
	<path class="st4" d="M437.6,196.3c-0.5,2.9,2.7,6,7.3,6.2c4.5,0.2,8-2.5,7.8-5.5c-0.2-3-3.5-5.1-7.3-5.3
		C441.5,191.6,438.1,193.4,437.6,196.3L437.6,196.3z"/>
	<path class="st4" d="M401.9,193c-0.5,2.9,2.3,6,6.4,6.2c4.1,0.2,7.2-2.5,6.9-5.5c-0.3-3-3.1-5.1-6.4-5.3
		C405.5,188.3,402.5,190.1,401.9,193L401.9,193z"/>
	<path class="st4" d="M464.7,236.9c0.6,0,0.9-6,1.2-13.2c0.3-7.3,0.6-13.2,0-13.3c-0.5-0.1-1.6,5.8-2,13.2
		C463.6,230.9,464.2,236.9,464.7,236.9z"/>
	<path class="st4" d="M408.7,260c9.1-4.1-61,25-61,25l7.1,53.6l26.7-9.8L408.7,260L408.7,260z"/>
	<path class="st4" d="M450.5,138.9c-2.2-3.7-2.9-8.5-2-12.8c0.8-3.6,3.2-7.1,6.5-7.3c1.9-0.1,3.7,0.9,5,2.3c3.4,3.5,4.3,9.7,2,14.2
		c-2.3,4.5-7.4,6.9-11.9,5.5"/>
	<path class="st4" d="M31.4,481.8c0,0-22.8-36.5-20-22.7c2.8,13.8,26,75.3,26,75.3L31.4,481.8z"/>
	<path class="st4" d="M362.3,426.7c0,0-30.1-10.6-29.1-7.1c1,3.5,6.2,3.6,11.3,9.2c0,0-33.7,0.4-32.1,3.5c1.6,3.1,23.5,3.9,23.7,4.4
		c0.1,0.5-24,1.2-23.4,4.1c0.6,2.9,23,2.2,23,2.2s-20.8,2.5-20.4,5.5c0.4,3.1,19.6,0.9,19.6,0.9s-16,2-15.6,4.8
		c0.3,1.7,46.9,2.1,47.1,3.4C366.3,458.2,362.3,426.7,362.3,426.7"/>
	<path class="st4" d="M315.6,260c0,0,18.3-28.6,15.1-28.6s-5,5.4-11.3,9.1c0,0,10.1-35.7,7-35c-3.2,0.7-10.6,23.7-11.1,23.6
		c-0.5,0,6.5-25.7,3.9-26c-2.6-0.3-9,23.6-9,23.6s4.4-22.7,1.6-23.2c-2.8-0.5-6.8,20.4-6.8,20.4s3.2-17.6,0.7-18
		c-1.5-0.2-15.4,43.3-15.4,43.3C290.7,249.3,315.6,260,315.6,260"/>
	<path class="st4" d="M484.4,338.6c-0.2,0-0.9,1.3-0.9,4c0,1.3,0.5,3.2,2,4.4c0.7,0.6,1.8,1,2.9,0.7c1.1-0.2,1.9-1.1,2.5-1.8
		c1.2-1.6,2-2.5,3.2-2.6c1.2-0.2,2.2,0.2,2.9,0.9c1.4,1.4,1.4,3.1,1.7,3.1c0.2,0.1,0.9-1.8-0.7-4.1c-0.8-1.1-2.4-2-4.1-1.9
		c-0.9,0.1-1.8,0.4-2.6,1.1c-0.8,0.7-1.3,1.4-1.9,2.1c-1.9,2.9-4.5,0.1-4.6-2C484.5,340.2,484.7,338.6,484.4,338.6L484.4,338.6z"/>
	<path class="st4" d="M468,322.7c0,0-0.6-1.5-2.6-3c-1-0.7-2.7-1.2-4.4-0.4c-0.8,0.4-1.7,1.2-2.1,2.4c-0.4,1.2-0.2,2.4,0.1,3.3
		c0.6,1.9,0.9,3.1,0.4,4.4c-0.4,1.2-1.3,2-2.2,2.3c-1.9,0.6-3.1-0.3-3.3,0c-0.2,0.1,0.9,1.8,3.5,1.5c1.3-0.2,2.8-1.2,3.6-2.9
		c0.4-0.9,0.6-1.9,0.5-3c-0.1-1.1-0.4-2-0.6-2.8c-1.2-3.4,2.3-4.3,3.9-3.3C466.6,322,467.8,323.1,468,322.7L468,322.7z"/>
	<path class="st4" d="M469.1,283.2c0,0-0.6-1.5-2.6-3c-1-0.7-2.7-1.2-4.4-0.4c-0.8,0.4-1.7,1.2-2.1,2.4c-0.4,1.2-0.1,2.4,0.1,3.3
		c0.6,1.9,0.9,3.1,0.4,4.4c-0.4,1.2-1.3,2-2.2,2.3c-1.9,0.6-3.1-0.3-3.3,0c-0.2,0.1,0.9,1.8,3.5,1.5c1.3-0.2,2.8-1.2,3.6-2.9
		c0.4-0.9,0.6-1.9,0.5-3c-0.1-1.1-0.4-2-0.6-2.8c-1.2-3.4,2.3-4.3,3.9-3.3C467.8,282.5,468.9,283.5,469.1,283.2L469.1,283.2z"/>
	<path class="st4" d="M434,334.7c0,0,1.4-0.5,2.9-2.6c0.7-1.1,1.3-2.9,0.7-4.8c-0.3-1-0.9-2-1.9-2.5c-1-0.5-2.1-0.4-3-0.2
		c-1.8,0.5-2.9,0.7-4,0c-1-0.6-1.7-1.7-1.9-2.7c-0.4-2.1,0.6-3.4,0.3-3.6c-0.1-0.2-1.7,0.8-1.7,3.8c0,1.4,0.8,3.2,2.3,4.2
		c0.7,0.5,1.7,0.8,2.6,0.8s1.8-0.3,2.6-0.5c3.1-1.1,3.6,2.9,2.6,4.7C434.7,333.3,433.7,334.5,434,334.7L434,334.7z"/>
	<path class="st4" d="M410.1,376c0,0,0.7,1.5,2.8,2.7c1,0.6,2.8,1,4.4,0c0.8-0.5,1.6-1.3,1.9-2.5c0.3-1.2,0-2.4-0.3-3.3
		c-0.7-1.9-1.1-3.1-0.6-4.4c0.4-1.2,1.2-2.1,2.1-2.5c1.8-0.7,3.1,0,3.2-0.2c0.2-0.1-1-1.7-3.6-1.2c-1.3,0.2-2.7,1.4-3.3,3.2
		c-0.3,0.9-0.5,2-0.3,3.1c0.1,1,0.5,1.9,0.8,2.8c1.4,3.2-2,4.4-3.7,3.6C411.5,376.5,410.2,375.6,410.1,376L410.1,376z"/>
	<path class="st4" d="M381.8,310.9c0,0,0.7,1.5,2.8,2.7c1,0.6,2.8,1,4.4,0c0.8-0.5,1.6-1.3,1.9-2.5c0.3-1.2,0-2.4-0.3-3.3
		c-0.7-1.9-1.1-3.1-0.6-4.4c0.4-1.2,1.2-2.1,2.1-2.5c1.8-0.7,3.1,0,3.2-0.2c0.2-0.1-1-1.7-3.6-1.2c-1.3,0.2-2.7,1.4-3.3,3.2
		c-0.3,0.9-0.5,2-0.3,3.1c0.1,1,0.5,1.9,0.8,2.8c1.4,3.2-2,4.4-3.7,3.6C383.2,311.4,382,310.5,381.8,310.9L381.8,310.9z"/>
	<path class="st4" d="M362.6,300.9c0,0-1.5,0.2-3.3,2c-0.9,0.9-1.8,2.6-1.5,4.6c0.1,1,0.6,2.2,1.5,2.9c0.9,0.7,2,0.8,2.9,0.8
		c1.8-0.1,3-0.1,3.9,0.8c0.9,0.8,1.4,2,1.4,3c0,2.2-1.1,3.3-0.9,3.5c0,0.2,1.8-0.5,2.3-3.4c0.2-1.4-0.3-3.3-1.6-4.6
		c-0.6-0.7-1.5-1.2-2.5-1.4c-0.9-0.2-1.8-0.1-2.6-0.1c-3.2,0.5-3.1-3.6-1.8-5.1C361.7,302.1,362.9,301.2,362.6,300.9L362.6,300.9z"
		/>
	<path class="st4" d="M440.4,409.7c0,0,0.7,1.5,2.8,2.7c1,0.6,2.8,1,4.4,0c0.8-0.5,1.6-1.3,1.9-2.5c0.3-1.2,0-2.4-0.3-3.3
		c-0.7-1.9-1.1-3.1-0.6-4.4c0.4-1.2,1.2-2.1,2.1-2.5c1.8-0.7,3.1,0,3.2-0.2c0.2-0.1-1-1.7-3.6-1.2c-1.3,0.2-2.7,1.4-3.3,3.2
		c-0.3,0.9-0.5,2-0.3,3.1c0.1,1,0.5,1.9,0.8,2.8c1.4,3.2-2,4.4-3.7,3.6C441.8,410.3,440.6,409.4,440.4,409.7L440.4,409.7z"/>
	<path class="st4" d="M398.7,347c0,0,1.4-0.7,2.6-3c0.6-1.2,1-3.1,0.2-4.9c-0.4-0.9-1.1-1.9-2.2-2.2c-1.1-0.4-2.2-0.1-3,0.2
		c-1.7,0.7-2.8,1.1-3.9,0.5c-1.1-0.5-1.8-1.4-2.1-2.4c-0.6-2,0.2-3.5-0.1-3.6c-0.1-0.2-1.6,1-1.3,4c0.2,1.4,1.2,3.1,2.7,3.9
		c0.8,0.4,1.7,0.6,2.7,0.5c1-0.1,1.7-0.5,2.5-0.8c3-1.5,3.9,2.4,3.1,4.3C399.4,345.5,398.5,346.8,398.7,347L398.7,347z"/>
	<path class="st4" d="M391.2,380.7c0,0,1.4-0.7,2.6-3c0.6-1.2,1-3.1,0.2-4.9c-0.4-0.9-1.1-1.9-2.2-2.2c-1.1-0.4-2.2-0.1-3,0.2
		c-1.7,0.7-2.8,1.1-3.9,0.5c-1.1-0.5-1.8-1.4-2.1-2.4c-0.6-2,0.2-3.5-0.1-3.6c-0.1-0.2-1.6,1-1.3,4c0.2,1.4,1.1,3.1,2.7,3.9
		c0.8,0.4,1.7,0.6,2.7,0.5c0.9-0.1,1.7-0.5,2.5-0.8c3-1.5,3.9,2.4,3.1,4.3C391.9,379.2,391,380.5,391.2,380.7L391.2,380.7z"/>
	<path class="st4" d="M451.6,366.3c0.2,0,0.6-1.5,0.1-4.1c-0.3-1.3-1.1-3-2.8-3.8c-0.8-0.4-1.9-0.5-3,0c-1,0.5-1.6,1.5-2.1,2.4
		c-0.9,1.8-1.4,2.9-2.6,3.4c-1.1,0.5-2.2,0.3-3-0.2c-1.7-1.1-2-2.7-2.2-2.6c-0.2-0.1-0.6,2,1.5,3.9c1,0.9,2.7,1.4,4.4,0.8
		c0.8-0.3,1.7-0.9,2.3-1.7c0.6-0.8,1-1.7,1.4-2.4c1.3-3.3,4.3-1.2,4.9,0.9C451.2,364.7,451.3,366.4,451.6,366.3L451.6,366.3z"/>
	<path class="st4" d="M397.1,407.9c0.2,0,0.6-1.5,0.1-4.1c-0.3-1.3-1.1-3-2.8-3.8c-0.8-0.4-1.9-0.5-2.9,0c-1,0.5-1.6,1.5-2.1,2.4
		c-0.9,1.8-1.4,2.9-2.6,3.4c-1.1,0.5-2.2,0.3-3-0.2c-1.7-1.1-2-2.7-2.2-2.6c-0.2-0.1-0.6,2,1.5,3.9c1,0.9,2.7,1.4,4.4,0.8
		c0.8-0.3,1.7-0.9,2.3-1.7c0.6-0.8,1-1.7,1.4-2.4c1.3-3.3,4.3-1.2,4.9,0.9C396.7,406.3,396.9,408,397.1,407.9L397.1,407.9z"/>
	<path class="st4" d="M398.6,281.9c0.2,0,0.6-1.5,0.1-4.1c-0.3-1.3-1.1-3-2.8-3.8c-0.8-0.4-1.9-0.5-2.9,0c-1,0.5-1.6,1.5-2.1,2.4
		c-0.9,1.8-1.4,2.9-2.6,3.4c-1.1,0.5-2.2,0.3-3-0.2c-1.7-1.1-2-2.7-2.2-2.6c-0.2-0.1-0.6,2,1.5,3.9c1,0.9,2.7,1.4,4.4,0.8
		c0.8-0.3,1.7-0.9,2.3-1.7c0.6-0.8,1-1.7,1.4-2.4c1.3-3.3,4.3-1.2,4.9,0.9C398.3,280.3,398.4,282,398.6,281.9L398.6,281.9z"/>
	<path class="st4" d="M416.5,424.7c0,0,1.5,0,3.4-1.5c0.9-0.8,2-2.3,2-4.3c0-1-0.3-2.2-1.1-3c-0.8-0.8-1.9-1.1-2.8-1.2
		c-1.8-0.2-3-0.3-3.8-1.3c-0.9-1-1.1-2.2-1-3.2c0.2-2.2,1.4-3.1,1.3-3.3c0-0.2-1.9,0.2-2.6,3.1c-0.4,1.4-0.1,3.3,1.1,4.8
		c0.6,0.7,1.4,1.4,2.3,1.7c0.9,0.3,1.8,0.3,2.6,0.5c3.3,0,2.7,4,1.2,5.3C417.5,423.7,416.3,424.5,416.5,424.7L416.5,424.7z"/>
	<path class="st4" d="M481.1,300.9c0,0-1.3,0.8-2.3,3.3c-0.5,1.2-0.7,3.1,0.2,4.9c0.4,0.9,1.3,1.7,2.3,2c1.1,0.2,2.2-0.1,2.9-0.5
		c1.7-0.9,2.7-1.4,3.9-1c1.1,0.3,2,1.2,2.3,2.2c0.8,2,0.1,3.5,0.4,3.6c0.1,0.2,1.5-1.2,0.9-4.1c-0.3-1.4-1.4-2.9-3.1-3.6
		c-0.8-0.3-1.8-0.4-2.7-0.2c-0.9,0.2-1.7,0.7-2.4,1c-2.8,1.8-4.1-1.9-3.4-3.9C480.7,302.5,481.5,301.1,481.1,300.9L481.1,300.9z"/>
	<path class="st4" d="M418.7,288.5c0,0-1.3,0.8-2.3,3.3c-0.5,1.2-0.7,3.1,0.2,4.9c0.4,0.9,1.3,1.7,2.3,2c1.1,0.2,2.1-0.1,2.9-0.5
		c1.7-0.9,2.7-1.4,3.9-1c1.1,0.3,2,1.2,2.3,2.2c0.8,2,0.1,3.5,0.4,3.6c0.1,0.2,1.5-1.2,0.9-4.1c-0.3-1.4-1.4-2.9-3.1-3.6
		c-0.8-0.3-1.8-0.4-2.7-0.2c-0.9,0.2-1.7,0.7-2.4,1c-2.8,1.8-4.1-1.9-3.4-3.9C418.3,290.1,419,288.7,418.7,288.5L418.7,288.5z"/>
	<path class="st4" d="M457.2,361.8c0,0,0.1-1.5,0-4.3c-0.1-2.7-0.4-6.7-0.8-11.5c-0.8-9.7-2-23.2-3.4-38c-0.3-3.7-0.5-7.2,0-10.6
		c0.4-3.4,1.6-6.3,3.3-8.8c3.4-4.9,8.2-7.5,12.3-8.6c4.2-1.1,7.7-1.1,10.1-1c2.4,0.1,3.8,0.2,3.8,0.1c0-0.1-1.3-0.6-3.7-1
		c-2.4-0.3-6.1-0.6-10.5,0.3c-4.3,1-9.6,3.5-13.5,8.9c-1.9,2.6-3.3,6-3.7,9.7c-0.5,3.6-0.3,7.4,0,11.1c1.4,14.9,2.9,28.2,4,37.9
		c0.6,4.8,1,8.8,1.4,11.5C456.8,360.2,457.1,361.7,457.2,361.8L457.2,361.8z"/>
	<path class="st4" d="M454.7,358.4c-0.1,0.6,12.6,2.6,28.3,4.4c15.7,1.9,28.4,2.9,28.5,2.3c0.1-0.6-12.6-2.6-28.3-4.4
		C467.5,358.8,454.8,357.8,454.7,358.4z"/>
	<path class="st4" d="M377.5,351.4c0.6-0.1-2.4-12.5,1.1-27.4c3.3-14.9,11.3-24.3,10.8-24.7c-0.1-0.2-2.4,1.9-5.1,6
		c-2.7,4.1-5.8,10.5-7.6,18.1c-1.7,7.7-1.7,14.9-1.1,20C376.2,348.5,377.3,351.5,377.5,351.4z"/>
	<path class="st4" d="M229.1,352.4c-0.5-3.6-0.4-6.9-2.2-10.1c-3.6-6.2-8.6-4.7-13.5-1.9c-5,2.8-9.6,4.5-15,1.9
		c-8.5-4.1-12.3-18.1-4.3-24.9c2.6-2.2,5.2,1.4,4.8,4.1c-0.5,3.8-2.2,8,0.7,11.3c3.9,4.4,8.5,0.7,12.5-1.2c4.2-2.1,8.7-2.6,13.1-0.7
		c7.5,3.4,13,14.7,7,22.4C231.3,354.4,229.3,353.9,229.1,352.4L229.1,352.4z"/>
	<path class="st4" d="M209.2,189.3c-0.8,5.8-6.2,17.9-11.8,19.6c-3,0.9-5.2-1.3-7.5-3.1c-4.2-3.3-8.4-6.6-12.6-9.9
		c-1.5-1.2-2.4-3.5-1.3-5.5c3.7-6.4,7.4-12.7,11.1-19.1c1-1.7,3.3-2.7,4.9-1.4c4.6,3.6,9.6,7,13.8,11.3c2.9,2.9-0.8,7.8-4,5.8
		c-4.7-2.9-9-6.8-13.4-10.2l4.9-1.4c-3.7,6.4-7.4,12.7-11.1,19.1l-1.3-5.5c2.5,2,5,4,7.5,6c1.3,1,6.4,6.3,7.8,5.9
		c1.6-0.4,4.2-5.6,5.3-7c1.8-2.4,3.4-4.6,5.7-6.3C208.2,186.6,209.3,188,209.2,189.3L209.2,189.3z"/>
	<path class="st4" d="M261.7,248.7c5.8,6.3,8,16,2.5,23.5c-5.2,7.1-15.4,8.6-21.9,2.9c-15.8-13.6,0.7-38.7,17.7-33.5
		c3.2,1,2.4,6-0.7,6.2c-5,0.3-10.3,0.5-14.3,4.4c-4.3,4.2-4.4,11.3-0.9,16.1c9.3,12.7,25.4-6,15.6-17.4
		C258.5,249.4,260.4,247.3,261.7,248.7L261.7,248.7z"/>
	<path class="st4" d="M127.6,306.5c2,11.6,3.7,23.3,5.3,35.1c0.4,2.8-1.3,4.7-3.9,4.3c-9.9-1.6-19.7-3.1-29.4-5.5
		c-1.9-0.5-2.6-3-1.7-4.8c5.5-10.8,12.5-26,22.9-31.9c2.6-1.5,6.3,1.7,4.4,4.9c-3.1,5-7.7,8.7-11.3,13.2c-4.2,5.2-8,10.9-11,17
		l-2.5-4.9c10.2,1.1,20.2,3.2,30.3,5.1l-4,3.4c-1.2-11.8-2.3-23.6-3.1-35.4C123.4,304.6,127.2,304,127.6,306.5L127.6,306.5z"/>
	<path class="st4" d="M173,284.8c-2.3-11.4-4.2-23.7-4.6-35.4c-0.1-3.6,5.2-4.6,5.8-0.9c1.9,11.5,2.6,23.9,2.7,35.7
		C176.9,286.7,173.5,287.3,173,284.8z"/>
	<path class="st4" d="M60.6,283.1c-10.4,1.6-21.4,2.8-31.9,2.3c-3.9-0.2-3.7-6.1,0-6.6c10.2-1.2,21.1-1,31.3-0.1
		C62.1,278.9,63,282.7,60.6,283.1L60.6,283.1z"/>
	<path class="st4" d="M145.4,135.1c-9.2,5.5-19.3,10.9-29.3,14.5c-3.2,1.1-5.3-4.3-2.3-6c9.4-5.3,20-9.3,30-12.5
		C146,130.4,147.4,134,145.4,135.1L145.4,135.1z"/>
	<path class="st4" d="M114.1,232.8c0,0,0-0.1,0-0.2c0.1-0.3,0.2-0.6,0.3-0.9c0.3-0.8,0.7-1.6,1.3-2.2c0.4-0.4,0.8-0.9,1.3-1.1
		c0.1,0,0.3-0.1,0.4-0.2l1.4-0.7c0.8-0.3,1.6-0.3,2.4-0.1c0.5,0,1,0.2,1.5,0.5c0.7,0.2,1.4,0.7,1.9,1.4l0.9,1.3l0.6,1.6
		c0.3,0.9,0.3,1.8,0.1,2.6c0,0.9-0.3,1.7-0.7,2.5c0,0.1-0.1,0.3-0.1,0.4c-0.1,0.3-0.3,0.5-0.5,0.7c-0.1,0.2-0.3,0.5-0.5,0.7
		l-1.2,1.1c-0.5,0.3-1,0.5-1.5,0.7c-0.1,0-0.1,0-0.2,0c-1.1,0.3-2.1,0.3-3.2,0c-1-0.3-1.9-0.9-2.6-1.7c-0.7-0.8-1.3-1.8-1.6-2.9
		C113.9,235.1,113.9,233.9,114.1,232.8L114.1,232.8z"/>
</g>
<path class="st6" d="M77.4,195.2c5.8,6.2,8,16,2.5,23.5c-5.2,7.1-15.4,8.6-21.9,2.9c-15.8-13.6,0.7-38.7,17.7-33.5
	c3.2,1,2.4,6-0.7,6.2c-5,0.3-10.3,0.5-14.3,4.4c-4.3,4.2-4.4,11.3-0.9,16.1c9.3,12.7,25.4-6,15.6-17.4
	C74.2,195.9,76.1,193.8,77.4,195.2L77.4,195.2z"/>
<path class="st7" d="M457,133.4c5.9-2.9,13.1-2.3,18.4,1.7s8.6,11.2,8.3,18.4c-0.2,5.6-2.2,12,1,16.3c2.5,3.4,6.9,3.6,10.4,5.5
	c6.7,3.4,10.1,13.3,7,20.8c-1.7,4.1-4.9,7.8-4.3,12.2c0.4,2.9,2.4,5.1,4.7,6.5c2.3,1.4,4.7,2.2,7.1,3.5c8.5,4.6,13.6,15.4,13.4,25.9
	c-0.3,10.5-5.4,20.5-12.9,27c-7.5,6.5-16.9,9.6-26.4,10s-19.3-2.1-26.5-8.9c-5.4-5.1-8.9-12.3-11.5-19.7c-5-14-7-29.3-5.8-44.3
	c1.2-15.6,5.7-30.6,6.7-46.2c0.3-5.2,0.3-10.5,1.3-15.6c1-5.1,3.4-10.1,7.4-12.9"/>
<path class="st7" d="M459.1,135.4c-5.4-12.5-16-21.9-28.1-24.9c-7.4-1.8-15.6-1.2-22.1,3.1c-6.5,4.3-11,12.9-10,21.3
	c0.6,5.2,3.2,9.9,4.7,14.8c1.6,4.9,2.2,11-0.9,15c-2.7,3.6-7.3,4.6-10.9,6.9c-5.2,3.4-8.5,10.2-8.2,16.9c0.3,6.7,4.3,13,9.8,15.7
	c-5.5,0.7-10.6,4.1-13.8,9.2c-3.2,5.1-4.3,11.6-3.1,17.6c1.8,8.6,8.1,15.2,14.8,19.9c9.4,6.5,20.2,10.2,31.3,10.8
	c11.7,0.6,24.6-3.3,31-14.2c4.2-7.2,4.8-16.2,5.3-24.8c1.4-25.8,2.4-51.7,3.3-77.6c0.1-4.2,0.3-8.4-0.6-12.4"/>
<path class="st8" d="M419.8,252.2L315,296l10-47.2l-27.3-7.7c0,0-29.3,92.3-9,94.8c35.6,4.3,89.6-11.4,89.6-11.4L419.8,252.2
	L419.8,252.2z"/>
<path class="st9" d="M429,453.7c0,0-126.6-154.2-212.1-120.6C131.4,366.8,95.3,523.9,95.3,523.9l68.1-1.2c0,0,53.8-118.7,80-114
	c26.2,4.6,107.2,117.6,107.2,117.6L429,453.7L429,453.7z"/>
<path class="st10" d="M388.9,360.1l-5.3,90.5c27.3,37.5,122.3-11,122.3-11l1.1-37.8l2.2-90.1c-2.2-35.9-32-53.5-32-53.5
	c-12.3-6.9-31.2-10.8-48.1-9.9c-17.7,1-22.1,10.4-29.4,28.5C393.8,291.3,377.8,315,388.9,360.1L388.9,360.1z"/>
<path class="st11" d="M488.2,456.6c0,0,14.5,66-29.7,76.4c-44.3,10.4-207.1-13.9-249.6-9.8c-42.4,4.2-163.1,12-163.1,12L37,456.9
	c0,0,187.7-10.1,209-4.2C267.2,458.6,488.2,456.6,488.2,456.6L488.2,456.6z"/>
<path class="st8" d="M467,341.2c0,0,13.3,87.3-5.5,85.2c-61.6-7.1-98.3-8-98.3-8l-10.2,23.7c-0.2,4,116.7,41.4,135.4,29
	c13.3-8.7,34.4-32.2,24.8-102.4l-2.3-23.5L467,341.2L467,341.2z"/>
<path class="st12" d="M411.4,466.6l0.1-5.8l-77.3-12.2l-20.5-80.1l-85.7-2.3l23.1,86.7L411.4,466.6z"/>
<path class="st13" d="M272.4,406.4c-0.1,3.9,2.7,7.2,6.2,7.2c3.5,0.1,6.4-3,6.5-6.9c0.1-3.9-2.7-7.2-6.2-7.2
	C275.4,399.4,272.5,402.5,272.4,406.4z"/>
<path class="st14" d="M269.9,406.4c-0.1,5.5,3.7,10,8.7,10.1c4.9,0.1,9-4.2,9.1-9.7c0.1-5.5-3.7-10-8.7-10.1
	C274.1,396.6,270,400.9,269.9,406.4z"/>
<path class="st10" d="M500.8,283.3c0,0,14.4,15.4,17.6,73.7l-55.6-6.9C462.8,350.1,453.5,250.8,500.8,283.3z"/>
<path class="st11" d="M92.6,108.1c0,0-19.7,49.4-25.2,46.8c-5.5-2.6-56.4-37.8-56.4-37.8s20.9-44.2,25.2-46.8
	C40.6,67.7,92.6,108.1,92.6,108.1z"/>
<path class="st15" d="M36.2,70.2c-0.3,0.1,1.2,5.2,3.7,13.3c2.6,8.1,6.2,19.2,10.3,31.5c0.1,0.3,0.2,0.6,0.3,0.9l0.3,0.8l0.8-0.1
	c11.4-2.1,21.7-4.1,29.1-5.6c7.4-1.5,11.9-2.6,11.9-2.9c0-0.3-4.7,0.3-12.1,1.4c-7.5,1.2-17.8,2.9-29.2,5l1.1,0.7
	c-0.1-0.3-0.2-0.6-0.3-0.9c-4.2-12.3-8-23.3-10.9-31.3C38.3,75,36.5,70.2,36.2,70.2L36.2,70.2z"/>
<path class="st15" d="M73.9,149.1c0.5-0.1-1-8.2-3.4-18.1c-2.4-9.9-4.8-17.8-5.3-17.6c-0.5,0.2,1,8.3,3.4,18.1
	C71,141.4,73.4,149.2,73.9,149.1z"/>
<path class="st15" d="M14.4,107.2c0.1,0.6,7.2-0.2,15.9-1.7c8.7-1.5,15.6-3.3,15.6-3.8c-0.1-0.6-7.2,0.2-15.9,1.7
	C21.3,104.9,14.3,106.6,14.4,107.2z"/>
<path class="st8" d="M473,161.1l-1.3,18.5c0,0,14.1,2.1,10.1,16.5s-13.6,8.1-13.6,8.1s-2.4,36.8-36.2,25.1
	c-26.8-9.3-25.2-48.1-21.8-81.2c1.3-12.8,12.2-21.6,23.5-19.2l20.3,4.4C465.7,136,473.9,147.9,473,161.1L473,161.1z"/>
<path class="st8" d="M471.7,195l-9.1,54.1c-2,12.2-12.8,20-23.6,17.1c-10-2.6-16.4-13.6-14.6-24.9l4.9-31L471.7,195L471.7,195z"/>
<path class="st7" d="M434.4,195.6c0,0-0.4,0.5-1,0.6c-0.6,0.1-1.5-0.6-1.7-2.1c-0.3-1.4-0.1-3.4,0-5.6c0.1-2.4,0.3-4.8,0.5-7.2
	c0.6-10.2,0.6-18.6,0.1-18.6c-0.5,0-1.4,8.2-2,18.5c-0.1,2.5-0.2,4.8-0.3,7.2c-0.1,2.2-0.1,4.3,0.4,6.2c0.4,1.9,2.2,3,3.3,2.5
	C434.6,196.4,434.5,195.6,434.4,195.6L434.4,195.6z"/>
<path class="st7" d="M423.5,225.5c0,0,1.2,1.9,4,3.6c2.7,1.8,7,3.5,12,3.6c4.9,0.1,9.3-1.4,12.1-3.1c2.9-1.7,4.2-3.2,4.1-3.4
	c-0.3-0.6-6.8,4.6-16.2,4.3C430.1,230.5,423.7,224.9,423.5,225.5L423.5,225.5z"/>
<path class="st7" d="M430.1,203.2c-0.2,0.2,0.3,1.4,1.7,2.5c1.4,1.2,4.1,2.1,6.9,1.1c2.8-1,4.5-3.5,5-5.4c0.6-1.9,0.3-3.2,0.1-3.2
	c-0.3,0-0.5,1.1-1.3,2.5c-0.8,1.4-2.3,3.2-4.4,4c-2.1,0.7-4.3,0.2-5.6-0.4C431,203.7,430.3,202.9,430.1,203.2L430.1,203.2z"/>
<path class="st7" d="M472.8,197.9c0,0.2,0.8,0.7,2.3,0.2c0.7-0.2,1.6-1,2-2.2c0.2-0.6,0.3-1.3,0.1-2.1c-0.1-0.7-0.8-1.5-1.5-1.8
	c-1-0.4-2.3-0.2-2.9,1l1.6,1c1.1-3,1.6-5.3,1.2-5.5s-1.6,1.8-2.9,4.7l1.6,1c0,0,0.3-0.2,0.6,0c0.4,0.1,0.5,0.6,0.4,1.2
	c-0.1,0.6-0.5,1-0.9,1.4C473.6,197.4,472.7,197.6,472.8,197.9L472.8,197.9z"/>
<path class="st7" d="M420.9,171.9c0.5,0.1,1.2-1.1,1.6-2.7c0.3-1.7,0.2-3.1-0.3-3.2c-0.5-0.1-1.2,1.1-1.6,2.7
	C420.3,170.4,420.4,171.8,420.9,171.9z"/>
<path class="st7" d="M449.5,174.9c0.5,0.2,1.3-1,1.7-2.7c0.4-1.7,0.3-3.1-0.2-3.3c-0.5-0.2-1.3,1-1.7,2.7
	C448.9,173.3,449,174.8,449.5,174.9z"/>
<path class="st7" d="M446.8,161.4c0.1,0.6,1.7,0.6,3.4,1.1c1.7,0.5,3,1.3,3.4,0.9c0.4-0.4-0.6-2.3-2.9-3
	C448.4,159.8,446.6,160.9,446.8,161.4z"/>
<path class="st7" d="M417.7,156.3c0.2,0.6,1.9,0.3,3.9,0.5c2,0.2,3.6,0.7,3.9,0.2c0.3-0.5-1.2-2.2-3.7-2.4
	C419.2,154.4,417.4,155.8,417.7,156.3z"/>
<path class="st7" d="M471.7,179.6c-9.4-10.3-12.2-27.3-14.8-41.7c-8.7,7.1-20.7,8.8-30.8,4.5c-3.2,4.1-6.9,7.7-11,10.7
	c-1.1,0.8-2.6,1.7-3.9,1.2c-1.6-0.5-2.3-2.6-2.7-4.3c-1.2-5.8-1.3-11.9,0.6-17.4c1.8-5.5,5.6-10.4,10.5-12.5
	c5.3-2.3,11.2-1.3,16.6,0.3c8.2,2.4,16.2,6,23.5,10.8c7.2,4.7,14.1,10.9,17.2,19.6c3,8.7,3,25.5-4.3,29.9"/>
<g class="st16">
	<path class="st7" d="M433.3,205.2c-0.4,2.9,1.8,5.8,4.8,5.1c3-0.7,4-4.3,2.6-6.8c-1.5-2.5-3.4-4-4.6-3.7
		C435,200,433.8,202.3,433.3,205.2L433.3,205.2z"/>
</g>
<g class="st17">
	<path class="st7" d="M445,188c-0.5,2.9,2.7,6,7.3,6.2c4.5,0.2,8-2.5,7.8-5.5c-0.2-3-3.5-5.1-7.3-5.3
		C448.9,183.4,445.5,185.1,445,188L445,188z"/>
</g>
<g class="st17">
	<path class="st7" d="M409.4,184.8c-0.5,2.9,2.3,6,6.4,6.2c4.1,0.2,7.2-2.5,6.9-5.5c-0.3-3-3.1-5.1-6.4-5.3
		C413,180.1,409.9,181.8,409.4,184.8L409.4,184.8z"/>
</g>
<path class="st18" d="M472.1,228.6c0.6,0,0.9-6,1.2-13.2c0.3-7.3,0.6-13.2,0-13.3c-0.5-0.1-1.6,5.8-2,13.2
	C471.1,222.6,471.6,228.6,472.1,228.6z"/>
<path class="st10" d="M416.1,251.7c9.1-4.1-61,25-61,25l7.1,53.6l26.7-9.8L416.1,251.7L416.1,251.7z"/>
<path class="st7" d="M457.9,130.6c-2.2-3.7-2.9-8.5-2-12.8c0.8-3.6,3.2-7.1,6.5-7.3c1.9-0.1,3.7,0.9,5,2.3c3.4,3.5,4.3,9.7,2,14.2
	c-2.3,4.5-7.4,6.9-11.9,5.5"/>
<path class="st7" d="M38.8,473.6c0,0-22.8-36.5-20-22.7c2.8,13.8,26,75.3,26,75.3L38.8,473.6z"/>
<path class="st8" d="M369.7,418.4c0,0-30.1-10.6-29.1-7.1s6.2,3.6,11.3,9.2c0,0-33.7,0.4-32.1,3.5c1.6,3.1,23.5,3.9,23.7,4.4
	c0.1,0.5-24,1.2-23.4,4.1c0.6,2.9,23,2.2,23,2.2s-20.8,2.5-20.4,5.5c0.4,3.1,19.6,0.9,19.6,0.9s-16,2-15.6,4.8
	c0.3,1.7,46.9,2.1,47.1,3.4C373.8,449.9,369.8,418.4,369.7,418.4"/>
<path class="st8" d="M323.1,251.7c0,0,18.3-28.6,15.1-28.6c-3.3,0-5,5.4-11.3,9.1c0,0,10.1-35.7,7-35c-3.2,0.7-10.6,23.7-11.1,23.6
	c-0.5,0,6.5-25.7,3.9-26c-2.6-0.3-9,23.6-9,23.6s4.4-22.7,1.6-23.2c-2.8-0.5-6.8,20.4-6.8,20.4s3.2-17.6,0.7-18
	c-1.5-0.2-15.4,43.3-15.4,43.3C298.1,241,323,251.7,323.1,251.7"/>
<path class="st19" d="M491.9,330.3c-0.2,0-0.9,1.3-0.9,4c0,1.3,0.5,3.2,2,4.4c0.7,0.6,1.8,1,2.9,0.7c1.1-0.2,1.9-1.1,2.5-1.8
	c1.2-1.6,2-2.5,3.2-2.6c1.2-0.2,2.2,0.2,2.9,0.9c1.4,1.4,1.4,3.1,1.7,3.1c0.2,0.1,0.9-1.8-0.7-4.1c-0.8-1.1-2.4-2-4.1-1.9
	c-0.9,0.1-1.8,0.4-2.6,1.1c-0.8,0.7-1.3,1.4-1.9,2.1c-1.9,2.9-4.5,0.1-4.6-2C491.9,331.9,492.1,330.3,491.9,330.3L491.9,330.3z"/>
<path class="st19" d="M475.4,314.5c0,0-0.6-1.5-2.6-3c-1-0.7-2.7-1.2-4.4-0.4c-0.8,0.4-1.7,1.2-2.1,2.4c-0.4,1.2-0.2,2.4,0.1,3.3
	c0.6,1.9,0.9,3.1,0.4,4.4c-0.4,1.2-1.3,2-2.2,2.3c-1.9,0.6-3.1-0.3-3.3,0c-0.2,0.1,0.9,1.8,3.5,1.5c1.3-0.2,2.8-1.2,3.6-2.9
	c0.4-0.9,0.6-1.9,0.5-3c-0.1-1.1-0.4-2-0.6-2.8c-1.2-3.4,2.3-4.3,3.9-3.3C474.1,313.7,475.2,314.8,475.4,314.5L475.4,314.5z"/>
<path class="st19" d="M476.5,274.9c0,0-0.6-1.5-2.6-3c-1-0.7-2.7-1.2-4.4-0.4c-0.8,0.4-1.7,1.2-2.1,2.4c-0.4,1.2-0.1,2.4,0.1,3.3
	c0.6,1.9,0.9,3.1,0.4,4.4c-0.4,1.2-1.3,2-2.2,2.3c-1.9,0.6-3.1-0.3-3.3,0c-0.2,0.1,0.9,1.8,3.5,1.5c1.3-0.2,2.8-1.2,3.6-2.9
	c0.4-0.9,0.6-1.9,0.5-3c-0.1-1.1-0.4-2-0.6-2.8c-1.2-3.4,2.3-4.3,3.9-3.3C475.2,274.2,476.3,275.3,476.5,274.9L476.5,274.9z"/>
<path class="st19" d="M441.4,326.4c0,0,1.4-0.5,2.9-2.6c0.7-1.1,1.3-2.9,0.7-4.8c-0.3-1-0.9-2-1.9-2.5c-1-0.5-2.1-0.4-3-0.2
	c-1.8,0.5-2.9,0.7-4,0c-1-0.6-1.7-1.7-1.9-2.7c-0.4-2.1,0.6-3.4,0.3-3.6c-0.1-0.2-1.7,0.8-1.7,3.8c0,1.4,0.8,3.2,2.3,4.2
	c0.7,0.5,1.7,0.8,2.6,0.8c1,0,1.8-0.3,2.6-0.5c3.1-1.1,3.6,2.9,2.6,4.7C442.1,325,441.1,326.2,441.4,326.4L441.4,326.4z"/>
<path class="st19" d="M417.5,367.7c0,0,0.7,1.5,2.8,2.7c1,0.6,2.8,1,4.4,0c0.8-0.5,1.6-1.3,1.9-2.5c0.3-1.2,0-2.4-0.3-3.3
	c-0.7-1.9-1.1-3.1-0.6-4.4c0.4-1.2,1.2-2.1,2.1-2.5c1.8-0.7,3.1,0,3.2-0.2c0.2-0.1-1-1.7-3.6-1.2c-1.3,0.2-2.7,1.4-3.3,3.2
	c-0.3,0.9-0.5,2-0.3,3.1c0.1,1,0.5,1.9,0.8,2.8c1.4,3.2-2,4.4-3.7,3.6C418.9,368.3,417.7,367.4,417.5,367.7L417.5,367.7z"/>
<path class="st19" d="M389.3,302.6c0,0,0.7,1.5,2.8,2.7c1,0.6,2.8,1,4.4,0c0.8-0.5,1.6-1.3,1.9-2.5c0.3-1.2,0-2.4-0.3-3.3
	c-0.7-1.9-1.1-3.1-0.6-4.4c0.4-1.2,1.2-2.1,2.1-2.5c1.8-0.7,3.1,0,3.2-0.2c0.2-0.1-1-1.7-3.6-1.2c-1.3,0.2-2.7,1.4-3.3,3.2
	c-0.3,0.9-0.5,2-0.3,3.1c0.1,1,0.5,1.9,0.8,2.8c1.4,3.2-2,4.4-3.7,3.6C390.7,303.1,389.4,302.2,389.3,302.6L389.3,302.6z"/>
<path class="st19" d="M370,292.6c0,0-1.5,0.2-3.3,2c-0.9,0.9-1.8,2.6-1.5,4.6c0.1,1,0.6,2.2,1.5,2.9c0.9,0.7,2,0.8,2.9,0.8
	c1.8-0.1,3-0.1,3.9,0.8c0.9,0.8,1.4,2,1.4,3c0,2.2-1.1,3.3-0.9,3.5c0,0.2,1.8-0.5,2.3-3.4c0.2-1.4-0.3-3.3-1.6-4.6
	c-0.6-0.7-1.5-1.2-2.5-1.4c-0.9-0.2-1.8-0.1-2.6-0.1c-3.2,0.5-3.1-3.6-1.8-5.1C369.1,293.8,370.3,292.9,370,292.6L370,292.6z"/>
<path class="st19" d="M447.8,401.5c0,0,0.7,1.5,2.8,2.7c1,0.6,2.8,1,4.4,0c0.8-0.5,1.6-1.3,1.9-2.5c0.3-1.2,0-2.4-0.3-3.3
	c-0.7-1.9-1.1-3.1-0.6-4.4c0.4-1.2,1.2-2.1,2.1-2.5c1.8-0.7,3.1,0,3.2-0.2c0.2-0.1-1-1.7-3.6-1.2c-1.3,0.2-2.7,1.4-3.3,3.2
	c-0.3,0.9-0.5,2-0.3,3.1c0.1,1,0.5,1.9,0.8,2.8c1.4,3.2-2,4.4-3.7,3.6C449.3,402,448,401.1,447.8,401.5L447.8,401.5z"/>
<path class="st19" d="M406.1,338.7c0,0,1.4-0.7,2.6-3c0.6-1.2,1-3.1,0.2-4.9c-0.4-0.9-1.1-1.9-2.2-2.2c-1.1-0.4-2.2-0.1-3,0.2
	c-1.7,0.7-2.8,1.1-3.9,0.5c-1.1-0.5-1.8-1.4-2.1-2.4c-0.6-2,0.2-3.5-0.1-3.6c-0.1-0.2-1.6,1-1.3,4c0.2,1.4,1.1,3.1,2.7,3.9
	c0.8,0.4,1.7,0.6,2.7,0.5c1-0.1,1.7-0.5,2.5-0.8c3-1.5,3.9,2.4,3.1,4.3C406.8,337.2,405.9,338.5,406.1,338.7L406.1,338.7z"/>
<path class="st19" d="M398.6,372.4c0,0,1.4-0.7,2.6-3c0.6-1.2,1-3.1,0.2-4.9c-0.4-0.9-1.1-1.9-2.2-2.2c-1.1-0.4-2.2-0.1-3,0.2
	c-1.7,0.7-2.8,1.1-3.9,0.5c-1.1-0.5-1.8-1.4-2.1-2.4c-0.6-2,0.2-3.5-0.1-3.6c-0.1-0.2-1.6,1-1.3,4c0.2,1.4,1.1,3.1,2.7,3.9
	c0.8,0.4,1.7,0.6,2.7,0.5c0.9-0.1,1.7-0.5,2.5-0.8c3-1.5,3.9,2.4,3.1,4.3C399.3,370.9,398.4,372.2,398.6,372.4L398.6,372.4z"/>
<path class="st19" d="M459,358c0.2,0,0.6-1.5,0.1-4.1c-0.3-1.3-1.1-3-2.8-3.8c-0.8-0.4-1.9-0.5-3,0c-1,0.5-1.6,1.5-2.1,2.4
	c-0.9,1.8-1.4,2.9-2.6,3.4c-1.1,0.5-2.2,0.3-3-0.2c-1.7-1.1-2-2.7-2.2-2.6c-0.2-0.1-0.6,2,1.5,3.9c1,0.9,2.7,1.4,4.4,0.8
	c0.8-0.3,1.7-0.9,2.3-1.7c0.6-0.8,1-1.7,1.4-2.4c1.3-3.3,4.3-1.2,4.9,0.9C458.6,356.5,458.7,358.1,459,358L459,358z"/>
<path class="st19" d="M404.5,399.6c0.2,0,0.6-1.5,0.1-4.1c-0.3-1.3-1.1-3-2.8-3.8c-0.8-0.4-1.9-0.5-2.9,0c-1,0.5-1.6,1.5-2.1,2.4
	c-0.9,1.8-1.4,2.9-2.6,3.4c-1.1,0.5-2.2,0.3-3-0.2c-1.7-1.1-2-2.7-2.2-2.6c-0.2-0.1-0.6,2,1.5,3.9c1,0.9,2.7,1.4,4.4,0.8
	c0.8-0.3,1.7-0.9,2.3-1.7c0.6-0.8,1-1.7,1.4-2.4c1.3-3.3,4.3-1.2,4.9,0.9C404.1,398.1,404.3,399.7,404.5,399.6L404.5,399.6z"/>
<path class="st19" d="M406.1,273.6c0.2,0,0.6-1.5,0.1-4.1c-0.3-1.3-1.1-3-2.8-3.8c-0.8-0.4-1.9-0.5-2.9,0c-1,0.5-1.6,1.5-2.1,2.4
	c-0.9,1.8-1.4,2.9-2.6,3.4c-1.1,0.5-2.2,0.3-3-0.2c-1.7-1.1-2-2.7-2.2-2.6c-0.2-0.1-0.6,2,1.5,3.9c1,0.9,2.7,1.4,4.4,0.8
	c0.8-0.3,1.7-0.9,2.3-1.7c0.6-0.8,1-1.7,1.4-2.4c1.3-3.3,4.3-1.2,4.9,0.9C405.7,272,405.8,273.7,406.1,273.6L406.1,273.6z"/>
<path class="st19" d="M423.9,416.4c0,0,1.5,0,3.4-1.5c0.9-0.8,2-2.3,2-4.3c0-1-0.3-2.2-1.1-3c-0.8-0.8-1.9-1.1-2.8-1.2
	c-1.8-0.2-3-0.3-3.8-1.3c-0.9-1-1.1-2.2-1-3.2c0.2-2.2,1.4-3.1,1.3-3.3c0-0.2-1.9,0.2-2.6,3.1c-0.4,1.4-0.1,3.3,1.1,4.8
	c0.6,0.7,1.4,1.4,2.3,1.7c0.9,0.3,1.8,0.3,2.6,0.5c3.3,0,2.7,4,1.2,5.3C425,415.4,423.7,416.2,423.9,416.4L423.9,416.4z"/>
<path class="st19" d="M488.6,292.6c0,0-1.3,0.8-2.3,3.3c-0.5,1.2-0.7,3.1,0.2,4.9c0.4,0.9,1.3,1.7,2.3,2c1.1,0.2,2.2-0.1,2.9-0.5
	c1.7-0.9,2.7-1.4,3.9-1c1.1,0.3,2,1.2,2.3,2.2c0.8,2,0.1,3.5,0.4,3.6c0.1,0.2,1.5-1.2,0.9-4.1c-0.3-1.4-1.4-2.9-3.1-3.6
	c-0.8-0.3-1.8-0.4-2.7-0.2c-0.9,0.2-1.7,0.7-2.4,1c-2.8,1.8-4.1-1.9-3.4-3.9C488.1,294.3,488.9,292.8,488.6,292.6L488.6,292.6z"/>
<path class="st19" d="M426.1,280.2c0,0-1.3,0.8-2.3,3.3c-0.5,1.2-0.7,3.1,0.2,4.9c0.4,0.9,1.3,1.7,2.3,2c1.1,0.2,2.2-0.1,2.9-0.5
	c1.7-0.9,2.7-1.4,3.9-1c1.1,0.3,2,1.2,2.3,2.2c0.8,2,0.1,3.5,0.4,3.6c0.1,0.2,1.5-1.2,0.9-4.1c-0.3-1.4-1.4-2.9-3.1-3.6
	c-0.8-0.3-1.8-0.4-2.7-0.2c-0.9,0.2-1.7,0.7-2.4,1c-2.8,1.8-4.1-1.9-3.4-3.9C425.7,281.8,426.4,280.4,426.1,280.2L426.1,280.2z"/>
<path class="st7" d="M464.6,353.5c0,0,0.1-1.5,0-4.3c-0.1-2.7-0.4-6.7-0.8-11.5c-0.8-9.7-2-23.2-3.4-38c-0.3-3.7-0.5-7.2,0-10.6
	c0.4-3.4,1.6-6.3,3.3-8.8c3.4-4.9,8.2-7.5,12.3-8.6c4.2-1.1,7.7-1.1,10.1-1c2.4,0.1,3.8,0.2,3.8,0.1c0-0.1-1.3-0.6-3.7-1
	c-2.4-0.3-6.1-0.6-10.5,0.3c-4.3,1-9.6,3.5-13.5,8.9c-1.9,2.6-3.3,6-3.7,9.7c-0.5,3.6-0.3,7.4,0,11.1c1.4,14.9,2.9,28.2,4,37.9
	c0.6,4.8,1,8.8,1.4,11.5C464.2,352,464.5,353.4,464.6,353.5L464.6,353.5z"/>
<path class="st7" d="M462.1,350.1c-0.1,0.6,12.6,2.6,28.3,4.4c15.7,1.9,28.4,2.9,28.5,2.3c0.1-0.6-12.6-2.6-28.3-4.4
	C475,350.5,462.2,349.5,462.1,350.1z"/>
<path class="st7" d="M384.9,343.1c0.6-0.1-2.4-12.5,1.1-27.4c3.3-14.9,11.3-24.3,10.8-24.7c-0.1-0.2-2.4,1.9-5.1,6
	c-2.7,4.1-5.8,10.5-7.6,18.1c-1.7,7.7-1.7,14.9-1.1,20C383.7,340.2,384.7,343.2,384.9,343.1z"/>
<path class="st20" d="M236.5,344.1c-0.5-3.6-0.4-6.9-2.2-10.1c-3.6-6.2-8.6-4.7-13.5-1.9c-5,2.8-9.6,4.5-15,1.9
	c-8.5-4.1-12.3-18.1-4.3-24.9c2.6-2.2,5.2,1.4,4.8,4.1c-0.5,3.8-2.2,8,0.7,11.3c3.9,4.4,8.5,0.7,12.5-1.2c4.2-2.1,8.7-2.6,13.1-0.7
	c7.5,3.4,13,14.7,7,22.4C238.7,346.1,236.7,345.6,236.5,344.1L236.5,344.1z"/>
<path class="st10" d="M216.6,181c-0.8,5.8-6.2,17.9-11.8,19.6c-3,0.9-5.2-1.3-7.5-3.1c-4.2-3.3-8.4-6.6-12.6-9.9
	c-1.5-1.2-2.4-3.5-1.3-5.5c3.7-6.4,7.4-12.7,11.1-19.1c1-1.7,3.3-2.7,4.9-1.4c4.6,3.6,9.6,7,13.8,11.3c2.9,2.9-0.8,7.8-4,5.8
	c-4.7-2.9-9-6.8-13.4-10.2l4.9-1.4c-3.7,6.4-7.4,12.7-11.1,19.1l-1.3-5.5c2.5,2,5,4,7.5,6c1.3,1,6.4,6.2,7.8,5.9
	c1.6-0.4,4.2-5.6,5.3-7c1.8-2.4,3.4-4.6,5.7-6.3C215.6,178.4,216.7,179.7,216.6,181L216.6,181z"/>
<path class="st6" d="M269.1,240.4c5.8,6.2,8,16,2.5,23.5c-5.2,7.1-15.4,8.6-21.9,2.9c-15.8-13.6,0.7-38.7,17.7-33.5
	c3.2,1,2.4,6-0.7,6.2c-5,0.3-10.3,0.5-14.3,4.4c-4.3,4.2-4.4,11.3-0.9,16.1c9.3,12.7,25.4-6,15.6-17.4
	C266,241.1,267.8,239,269.1,240.4L269.1,240.4z"/>
<path class="st21" d="M135,298.2c2,11.6,3.7,23.3,5.3,35.1c0.4,2.8-1.3,4.7-3.9,4.3c-9.9-1.6-19.7-3.1-29.4-5.5
	c-1.9-0.5-2.6-3-1.7-4.8c5.5-10.8,12.5-26,22.9-31.9c2.6-1.5,6.3,1.7,4.4,4.9c-3.1,5-7.7,8.7-11.3,13.2c-4.2,5.2-8,10.9-11,17
	l-2.5-4.9c10.2,1.1,20.2,3.2,30.3,5.1l-4,3.4c-1.2-11.8-2.3-23.6-3.1-35.4C130.9,296.3,134.6,295.7,135,298.2L135,298.2z"/>
<path class="st22" d="M180.4,276.5c-2.3-11.4-4.2-23.7-4.6-35.4c-0.1-3.6,5.2-4.6,5.8-0.9c1.9,11.5,2.6,23.9,2.7,35.7
	C184.3,278.4,180.9,279,180.4,276.5z"/>
<path class="st10" d="M68,274.8c-10.4,1.6-21.4,2.8-31.9,2.3c-3.9-0.2-3.7-6.1,0-6.6c10.2-1.2,21.1-1,31.3-0.1
	C69.6,270.6,70.4,274.4,68,274.8L68,274.8z"/>
<path class="st21" d="M152.8,126.9c-9.2,5.5-19.3,10.9-29.3,14.5c-3.2,1.1-5.3-4.3-2.3-6c9.4-5.3,20-9.3,30-12.5
	C153.4,122.1,154.8,125.7,152.8,126.9L152.8,126.9z"/>
<path class="st7" d="M121.6,224.5c0,0,0-0.1,0-0.2c0.1-0.3,0.2-0.6,0.3-0.9c0.3-0.8,0.7-1.6,1.3-2.2c0.4-0.4,0.8-0.9,1.3-1.1
	c0.1,0,0.3-0.1,0.4-0.2l1.4-0.7c0.8-0.3,1.6-0.3,2.4-0.1c0.5,0,1,0.2,1.5,0.5c0.7,0.2,1.4,0.7,1.9,1.4l0.9,1.3l0.6,1.6
	c0.3,0.9,0.3,1.8,0.1,2.6c0,0.9-0.3,1.7-0.7,2.5c0,0.1-0.1,0.3-0.1,0.4c-0.1,0.3-0.3,0.5-0.5,0.7c-0.1,0.2-0.3,0.5-0.5,0.7l-1.2,1.1
	c-0.5,0.3-1,0.5-1.5,0.7c-0.1,0-0.1,0-0.2,0c-1.1,0.3-2.1,0.3-3.2,0c-1-0.3-1.9-0.9-2.6-1.7c-0.7-0.8-1.3-1.8-1.6-2.9
	C121.3,226.8,121.3,225.7,121.6,224.5L121.6,224.5z"/>
</svg>
