<svg width="340" height="166" viewBox="0 0 340 166" fill="none" xmlns="http://www.w3.org/2000/svg">
<path d="M171.938 148.835C171.013 144.601 170.272 140.062 170.109 135.725C170.054 134.376 172.25 134.049 172.487 135.414C173.26 139.693 173.528 144.276 173.539 148.628C173.535 149.532 172.132 149.755 171.938 148.835Z" fill="#FF8C00"/>
<path d="M165.519 42.1935C165.519 42.1935 165.672 42.0716 165.733 41.9952C166.697 41.1416 168.282 40.9804 169.222 42.0114C170.162 43.0578 170.125 44.4828 169.206 45.5205C169.145 45.5969 169.083 45.6732 169.007 45.7342C168.134 46.7108 166.367 46.672 165.503 45.7179C164.639 44.7638 164.479 43.1081 165.519 42.1935Z" fill="#241352"/>
<path d="M69.5003 139.281C33.6543 139.114 4.72858 109.753 4.89301 73.7024C5.05744 37.6516 34.2497 8.56231 70.0957 8.72959C105.942 8.89687 134.867 38.2574 134.703 74.3082C134.539 110.359 105.346 139.448 69.5003 139.281Z" fill="#50D0AA"/>
<path d="M63.8555 11.0286C61.8775 10.4218 59.7608 10.1514 57.7323 10.5863C55.7039 11.0059 53.7939 12.1922 52.7648 13.9956C51.5821 16.0587 51.6925 18.5723 51.8188 20.948C52.1574 26.8951 52.4808 32.8269 52.8194 38.774C52.9185 40.4294 52.9868 42.1459 52.3552 43.66C51.7083 45.174 50.1028 46.423 48.5045 46.0785C47.6825 45.9061 46.9993 45.3665 46.2237 45.0411C45.4481 44.7157 44.412 44.7109 43.9214 45.3828C43.63 45.7952 43.6123 46.3314 43.671 46.8221C43.9048 49.0144 45.2363 51.074 47.1512 52.1556C46.0262 51.5987 44.6039 52.7413 44.583 53.9977C44.562 55.2542 45.5626 56.3468 46.7337 56.8273C47.8895 57.3077 49.1847 57.2984 50.4495 57.2737C49.4133 57.2842 48.6159 58.3991 48.7179 59.4262C48.8198 60.4534 49.6234 61.3306 50.5662 61.7334C51.5091 62.1362 52.5908 62.1566 53.6121 62.0694C55.807 61.8804 57.9891 61.1857 59.7171 59.8147C62.7448 57.4383 63.9824 53.3527 64.0305 49.4914C64.0938 45.6302 63.1512 41.8409 62.6353 38.0229C61.4415 29.1604 62.4883 20.155 63.5497 11.257C63.3063 11.1793 63.0628 11.1015 62.8042 11.0237" fill="#FF7180"/>
<path d="M51.4857 143.49C53.8672 145.815 54.765 149.42 52.4669 152.183C50.3067 154.793 46.1447 155.325 43.4727 153.229C37.0202 148.173 43.8122 138.918 50.7968 140.866C52.0903 141.225 51.7619 143.078 50.4817 143.148C48.4395 143.261 46.2451 143.328 44.6083 144.76C42.8491 146.3 42.7914 148.92 44.2308 150.704C48.0183 155.441 54.6776 148.531 50.6898 144.283C50.1895 143.744 50.9701 142.967 51.501 143.475L51.4857 143.49Z" fill="#7CAAFF"/>
<path d="M125.663 118.182C126.582 117.221 127.576 116.49 128.039 115.19C128.949 112.62 127.234 111.324 125.212 110.365C123.144 109.375 121.488 108.233 120.874 105.87C119.931 102.188 123.06 97.6671 127.032 98.7889C128.325 99.1474 127.922 100.8 127.051 101.302C125.813 102.016 124.166 102.407 123.945 104.107C123.66 106.389 125.882 107.043 127.447 107.878C129.135 108.774 130.393 110.129 130.933 112.001C131.848 115.223 129.908 119.581 126.176 119.38C125.643 119.347 125.281 118.579 125.663 118.182Z" fill="#7E2E83"/>
<path d="M137.747 157.62C137.418 159.749 135.188 164.243 132.869 164.861C131.634 165.192 130.723 164.36 129.766 163.697C128.035 162.478 126.319 161.245 124.603 159.995C123.98 159.548 123.618 158.673 124.079 157.955C125.613 155.602 127.148 153.25 128.682 150.897C129.096 150.271 130.027 149.892 130.711 150.37C132.609 151.727 134.66 152.993 136.36 154.58C137.528 155.673 136.026 157.459 134.689 156.733C132.743 155.681 130.998 154.202 129.206 152.922C129.877 152.741 130.548 152.576 131.235 152.395C129.7 154.748 128.166 157.1 126.632 159.453C126.452 158.778 126.288 158.088 126.108 157.413C127.14 158.153 128.173 158.893 129.191 159.649C129.768 160.065 131.709 161.929 132.365 161.855C132.944 161.796 134.173 159.718 134.54 159.291C135.275 158.421 135.965 157.597 136.912 156.957C137.371 156.653 137.81 157.161 137.747 157.605L137.747 157.62Z" fill="#FAC480"/>
<path d="M33.0512 60.3195C32.7216 62.4479 30.4918 66.9426 28.173 67.56C26.9374 67.8914 26.027 67.0597 25.0701 66.3963C23.3387 65.1777 21.6226 63.9438 19.9066 62.6946C19.284 62.2473 18.9223 61.3722 19.3826 60.6541C20.917 58.3015 22.4514 55.9488 23.9858 53.5962C24.4 52.9699 25.3312 52.5911 26.0146 53.0693C27.913 54.4267 29.9642 55.6774 31.6634 57.279C32.8316 58.3724 31.3303 60.1582 29.9928 59.4318C28.0473 58.3807 26.3019 56.9015 24.5098 55.6213C25.181 55.4406 25.8674 55.2752 26.5387 55.0945C25.0043 57.4471 23.4699 59.7998 21.9355 62.1524C21.7558 61.4773 21.5913 60.787 21.4116 60.112C22.4443 60.8523 23.477 61.5926 24.4944 62.3482C25.0714 62.7647 27.0132 64.6279 27.6687 64.5543C28.2479 64.4957 29.4763 62.4174 29.844 61.9901C30.5793 61.1201 31.2687 60.2959 32.2162 59.6567C32.6747 59.3524 33.1143 59.8601 33.0513 60.3042L33.0512 60.3195Z" fill="#FAC480"/>
<path d="M23.8397 98.6777C27.7927 100.55 31.6842 102.515 35.5603 104.54C36.4875 105.019 36.6353 106.016 35.9157 106.779C33.0531 109.723 30.2361 112.683 27.1611 115.411C26.5646 115.929 25.6212 115.634 25.3197 114.943C23.4342 110.766 20.5805 105.068 21.3943 100.337C21.5979 99.127 23.4287 98.5992 23.9102 99.9346C24.6624 102.037 24.6517 104.397 25.1293 106.575C25.6815 109.106 26.4166 111.623 27.5181 113.972C26.8329 113.893 26.1323 113.828 25.447 113.748C28.2497 110.589 31.2798 107.677 34.31 104.733C34.3221 105.423 34.3342 106.113 34.3463 106.802C30.547 104.639 26.7785 102.43 23.0714 100.115C22.2813 99.6205 23.0036 98.2754 23.855 98.6625L23.8397 98.6777Z" fill="#FF7180"/>
<path d="M96.9323 153.937C94.0826 150.706 91.1887 147.122 88.9506 143.418C88.2551 142.251 89.9981 140.926 90.8922 141.987C93.6653 145.31 96.1158 149.214 98.2318 152.978C98.6852 153.777 97.5538 154.645 96.9323 153.937Z" fill="#FF8C00"/>
<path d="M1.28974 39.1632C1.28974 39.1632 1.44266 39.0414 1.50395 38.965C2.46775 38.1114 4.0531 37.9502 4.99306 38.9813C5.93295 40.0277 5.89598 41.4526 4.97705 42.4903C4.91576 42.5667 4.85446 42.643 4.778 42.7039C3.90506 43.6806 2.1378 43.6417 1.27367 42.6876C0.409535 41.7335 0.249485 40.0778 1.28974 39.1632Z" fill="#50D0AA"/>
<path d="M113.651 132.776C113.651 132.776 113.804 132.654 113.865 132.578C114.829 131.724 116.415 131.563 117.355 132.594C118.294 133.64 118.257 135.065 117.339 136.103C117.277 136.179 117.216 136.256 117.139 136.317C116.267 137.293 114.499 137.254 113.635 136.3C112.771 135.346 112.611 133.69 113.651 132.776Z" fill="#241352"/>
<path d="M81.1494 53.7233L124.132 70.151L120.098 52.6486L131.309 49.8355C131.309 49.8355 143.19 84.0766 134.836 84.957C120.187 86.4975 98.061 80.5562 98.061 80.5562L81.1647 53.7234L81.1494 53.7233Z" fill="#FFAFA6"/>
<path d="M95.9176 93.0059L95.67 127.253C84.3929 141.068 45.4397 122.957 45.4397 122.957L45.0465 108.95L44.2997 75.5875C45.2593 62.3066 57.5541 55.8362 57.5541 55.8362C62.6394 53.3162 70.3859 51.912 77.3473 52.2816C84.6284 52.6833 86.3951 56.1853 89.3662 62.8802C91.7641 68.2852 96.0072 73.3617 95.9176 93.0059Z" fill="#241352"/>
<path d="M59.4411 19.9413L59.9279 26.7931C59.9279 26.7931 54.1346 27.5476 55.7558 32.8724C57.3771 38.1972 61.3491 35.8866 61.3491 35.8866C61.3491 35.8866 62.2774 49.4982 76.1619 45.2571C87.2085 41.8762 86.6037 27.4999 85.2578 15.2502C84.731 10.4974 80.2817 7.21278 75.6152 8.11041L67.2736 9.7111C62.4546 10.6387 59.0825 15.0361 59.4258 19.9565L59.4411 19.9413Z" fill="#FFAFA6"/>
<path d="M59.9017 32.4629L63.5432 52.5076C64.3606 57.0319 68.7812 59.9333 73.2198 58.8814C77.338 57.9199 79.9923 53.8869 79.2801 49.6849L77.3061 38.1985L59.9018 32.4476L59.9017 32.4629Z" fill="#FFAFA6"/>
<path d="M75.2436 32.764C75.2436 32.764 75.1509 33.0547 75.5766 33.2712C76.0176 33.4725 76.7205 33.0467 76.9217 32.3581C77.1533 31.7002 77.1265 30.888 77.0998 30.0757C77.0581 29.1867 77.0164 28.3131 76.9748 27.4088C76.7635 23.6228 76.3965 20.5563 76.1831 20.5707C75.9697 20.5697 75.9709 23.6651 76.1821 27.4664C76.2389 28.386 76.3111 29.2598 76.368 30.1336C76.4405 30.9614 76.5134 31.6666 76.3738 32.2023C76.2799 32.7535 75.8978 32.9969 75.6541 32.9804C75.3952 32.9486 75.2895 32.7336 75.2284 32.7639L75.2436 32.764Z" fill="#241352"/>
<path d="M79.6871 43.8639C79.5815 43.6489 76.9516 45.6744 73.1119 45.7331C69.2721 45.8071 66.5841 43.864 66.4764 44.0933C66.4151 44.1697 66.9914 44.7546 68.1618 45.3729C69.3169 45.9912 71.0969 46.5664 73.1235 46.5299C75.15 46.4934 76.9203 45.8581 78.0508 45.2046C79.1965 44.5511 79.7477 43.9408 79.6871 43.8639Z" fill="#241352"/>
<path d="M77.0132 35.5917C76.9221 35.5147 76.6009 35.789 76.0208 36.0315C75.456 36.274 74.5715 36.4538 73.7043 36.1739C72.8371 35.894 72.2308 35.217 71.9132 34.6945C71.5805 34.1567 71.4909 33.7425 71.369 33.7573C71.2776 33.7569 71.1535 34.2313 71.3941 34.9373C71.6195 35.6279 72.3008 36.5657 73.4418 36.9388C74.5828 37.3119 75.6815 36.9493 76.2775 36.5383C76.8889 36.1121 77.0739 35.6533 76.9979 35.607L77.0132 35.5917Z" fill="#241352"/>
<path d="M59.4709 33.5485C59.4715 33.4259 59.1366 33.3631 58.7721 33.1162C58.5898 32.9928 58.4382 32.8236 58.3936 32.5935C58.3489 32.3635 58.4107 32.1799 58.5633 32.1347C58.7006 32.0893 58.807 32.1358 58.8222 32.1512L59.4941 31.8019C58.9659 30.7116 58.4817 29.9739 58.3138 30.0497C58.1458 30.1256 58.3552 30.9846 58.7919 32.1051L59.4639 31.7558C59.2068 31.3256 58.6589 31.2158 58.262 31.3825C57.9721 31.4731 57.7117 31.7783 57.6496 32.0385C57.5722 32.3139 57.6014 32.5898 57.6766 32.8047C57.8421 33.2498 58.2218 33.512 58.5108 33.6053C59.1194 33.792 59.4554 33.6097 59.4557 33.5331L59.4709 33.5485Z" fill="#241352"/>
<path d="M70.1977 20.0985C70.2748 19.8997 69.5454 19.4826 68.615 19.7234C67.6846 19.9642 67.2395 20.6822 67.4065 20.8209C67.5734 20.9749 68.1079 20.6709 68.8095 20.4904C69.496 20.2944 70.1205 20.3126 70.1977 20.0985Z" fill="#241352"/>
<path d="M82.1968 18.2387C82.3042 18.0553 81.5754 17.531 80.5543 17.6182C79.5332 17.7053 78.9057 18.3306 79.0268 18.4996C79.1479 18.6841 79.8039 18.4726 80.6116 18.4151C81.4193 18.3423 82.1044 18.4374 82.1968 18.2387Z" fill="#241352"/>
<path d="M59.9283 26.7928C63.8156 23.0107 64.9871 16.703 66.0627 11.3755C69.6312 14.0125 74.5647 14.6791 78.701 13.0894C79.9891 14.6277 81.5066 15.968 83.1928 17.0638C83.6637 17.3724 84.2413 17.6816 84.7753 17.5155C85.4314 17.3194 85.7243 16.5699 85.8796 15.9117C86.3769 13.7841 86.4177 11.5165 85.6805 9.45971C84.9586 7.40302 83.4127 5.58766 81.3899 4.79674C79.2303 3.94388 76.7908 4.30025 74.5485 4.87207C71.162 5.74502 67.8954 7.07823 64.8706 8.84161C61.9068 10.5746 59.0472 12.8598 57.7832 16.0718C56.5192 19.2838 56.4907 25.5202 59.5153 27.1586" fill="#FF7180"/>
<path d="M82.6583 53.5925C78.9171 52.0734 107.679 62.98 107.679 62.98L104.664 82.7945L93.7254 79.1271L82.6582 53.6079L82.6583 53.5925Z" fill="#241352"/>
<path d="M120.901 53.7698C120.901 53.7698 113.422 43.1618 114.763 43.168C116.104 43.1743 116.796 45.1695 119.395 46.5454C119.395 46.5454 115.296 33.3022 116.589 33.5841C117.868 33.8659 120.907 42.3692 121.105 42.3548C121.303 42.3557 118.497 32.8268 119.564 32.7092C120.632 32.5916 123.212 41.4606 123.212 41.4606C123.212 41.4606 121.452 33.0398 122.596 32.8613C123.739 32.6827 125.365 40.4286 125.365 40.4286C125.365 40.4286 124.069 33.9101 125.09 33.7617C125.716 33.6726 131.325 49.8344 131.325 49.8344C131.173 49.8337 120.916 53.7546 120.916 53.7546" fill="#FFAFA6"/>
<path d="M62.5745 91.1498C62.5745 91.1498 62.7446 90.5989 62.9015 89.6036C63.0584 88.6083 63.2631 87.1535 63.5151 85.3618C63.9885 81.7783 64.6054 76.8163 65.2247 71.3334C65.3681 69.9549 65.4506 68.5608 65.2435 67.2114C65.0515 65.862 64.5087 64.6029 63.7209 63.6186C62.1606 61.6345 60.0012 60.6897 58.205 60.3135C56.3935 59.9373 54.8998 60.053 53.8936 60.1708C52.8873 60.3041 52.3534 60.4548 52.3531 60.5161C52.3528 60.5774 52.9168 60.5187 53.9226 60.4928C54.9131 60.4668 56.3759 60.4583 58.0805 60.8799C59.7699 61.2862 61.7464 62.2455 63.1398 64.0755C63.8366 64.9829 64.3039 66.0884 64.4658 67.3303C64.643 68.5724 64.576 69.8899 64.4327 71.253C63.8134 76.736 63.288 81.6984 62.9515 85.3132C62.7757 87.1206 62.6624 88.5758 62.5968 89.5869C62.5313 90.5979 62.5134 91.1648 62.5744 91.1651L62.5745 91.1498Z" fill="#241352"/>
<path d="M63.585 89.9137C63.5555 89.699 58.3127 90.0423 51.8649 90.7016C45.4171 91.3609 40.2032 92.072 40.2326 92.2866C40.2621 92.5012 45.5049 92.158 51.9527 91.4987C58.4005 90.8393 63.6145 90.1283 63.585 89.9137Z" fill="#241352"/>
<path d="M98.0653 3.01981L97.9615 25.7126L113.045 25.7828L113.478 34.381L122.371 25.3206L155.555 25.475L152.754 1.60416L98.0653 3.01981Z" fill="#7E2E83"/>
<path d="M103.201 9.54014C118.026 9.33375 132.927 9.28076 147.75 9.65596C148.024 9.65724 148.022 10.0858 147.748 10.0845C132.922 10.3368 118.023 10.1449 103.2 9.78502C103.032 9.78424 103.033 9.52405 103.201 9.52484L103.201 9.54014Z" fill="#E5E1EA"/>
<path d="M103.181 13.8919C118.006 13.6855 132.907 13.6325 147.73 14.0077C148.005 14.009 148.003 14.4375 147.728 14.4363C132.903 14.6886 118.003 14.4967 103.18 14.1368C103.012 14.136 103.013 13.8758 103.181 13.8766L103.181 13.8919Z" fill="#E5E1EA"/>
<path d="M103.16 18.489C112.242 18.2711 121.46 18.2069 130.539 18.5248C130.813 18.5261 130.811 18.9395 130.537 18.9535C121.455 19.1867 112.238 19.0519 103.159 18.734C102.991 18.7332 102.993 18.4729 103.16 18.4737L103.16 18.489Z" fill="#E5E1EA"/>
<path d="M80.9194 24.3927C81.117 24.4856 81.4226 24.2878 81.7133 24.0134C81.9888 23.7389 82.2186 23.4488 82.1433 23.2493C82.0681 23.0498 81.5806 23.0475 81.1827 23.4287C80.7849 23.8099 80.737 24.2999 80.9347 24.3775L80.9194 24.3927Z" fill="#241352"/>
<path d="M69.3494 25.6722C69.5471 25.765 69.8991 25.4143 70.2515 24.9563C70.5888 24.4982 70.8346 24.055 70.6982 23.8858C70.5619 23.7166 70.0277 23.9287 69.6292 24.4631C69.2306 24.9975 69.167 25.5794 69.3647 25.6569L69.3494 25.6722Z" fill="#241352"/>
<g opacity="0.18">
<path d="M71.9544 35.6448C71.6296 36.7007 71.9296 37.7288 72.6295 37.9619C73.3294 38.1797 74.1705 37.5247 74.5105 36.4689C74.8353 35.4131 74.5353 34.385 73.8353 34.1672C73.1354 33.9494 72.2943 34.6044 71.9543 35.6602L71.9544 35.6448Z" fill="#241352"/>
</g>
<g opacity="0.13">
<path d="M65.01 28.349C65.0049 29.4522 66.4025 30.3627 68.1546 30.3862C69.9067 30.3944 71.3277 29.5277 71.3479 28.4245C71.353 27.3214 69.9554 26.4108 68.2033 26.3873C66.4512 26.3791 65.0302 27.2459 65.01 28.349Z" fill="#241352"/>
</g>
<g opacity="0.13">
<path d="M78.0625 29.3443C78.0574 30.4475 79.455 31.358 81.2071 31.3815C82.9592 31.3897 84.3802 30.523 84.4004 29.4198C84.4055 28.3167 83.0079 27.4061 81.2558 27.3826C79.5037 27.3744 78.0827 28.2412 78.0625 29.3443Z" fill="#241352"/>
</g>
<path d="M59.1939 17.5343C59.2705 17.4427 58.9978 17.1043 59.2445 16.4619C59.4454 15.8499 60.0894 14.9641 60.5816 13.955C61.6421 11.9373 62.3508 10.2244 62.1532 10.1162C61.9556 10.008 60.9429 11.5663 59.8671 13.584C59.3596 14.6083 58.8224 15.4792 58.6814 16.3366C58.6185 16.7501 58.693 17.1335 58.8444 17.3334C58.9959 17.5333 59.1329 17.5646 59.1635 17.5341L59.1939 17.5343Z" fill="#6F35A4"/>
<path d="M92.5485 83.2139L94.9371 117.396L59.5219 121.997L62.0938 82.5815L92.5485 83.2139Z" fill="#7CAAFF"/>
<path d="M89.8364 60.0466L89.7128 87.1384L85.5902 85.5715L85.731 54.6948L89.855 55.9706" fill="#7CAAFF"/>
<path d="M57.0509 56.1095C57.0509 56.1095 73.0244 58.2527 68.1814 84.4948L64.1722 84.9051C64.1722 84.9051 68.7947 60.2557 53.7797 58.4234L57.0509 56.1095Z" fill="#7CAAFF"/>
<path d="M61.6186 86.6099C61.6186 86.6099 56.0168 118.916 63.7145 118.155C89.0331 115.653 104.103 115.37 104.103 115.37L108.253 124.155C108.337 125.641 60.251 139.254 52.5626 134.636C47.1229 131.378 38.4934 122.649 42.5428 96.6801L43.5118 87.9811L61.6034 86.6098L61.6186 86.6099Z" fill="#FFAFA6"/>
<path d="M47.6855 65.0917C47.6855 65.0917 41.7631 70.7644 40.3391 92.3332L63.2049 89.8962C63.2049 89.8962 67.1816 53.1691 47.6855 65.0917Z" fill="#241352"/>
<path d="M101.435 115.373C101.435 115.373 113.84 111.523 113.408 112.808C112.975 114.093 110.872 114.13 108.745 116.188C108.745 116.188 122.594 116.406 121.918 117.552C121.243 118.698 112.237 118.947 112.175 119.131C112.113 119.33 122.031 119.621 121.797 120.678C121.564 121.734 112.363 121.43 112.363 121.43C112.363 121.43 120.891 122.39 120.718 123.523C120.545 124.671 112.672 123.807 112.672 123.807C112.672 123.807 119.25 124.588 119.078 125.63C118.968 126.257 99.7857 126.321 99.7379 126.78C99.7216 127.026 101.42 115.373 101.42 115.373" fill="#FFAFA6"/>
<path d="M85.7982 83.3657C85.7067 83.3653 85.4605 83.9005 85.3645 84.9114C85.3318 85.4016 85.3592 86.0606 85.6914 86.7211C85.9933 87.3507 86.691 88.0436 87.6357 88.048C88.5651 88.0523 89.2687 87.458 89.6522 86.8775C90.0664 86.2665 90.1759 85.6387 90.2239 85.1333C90.2895 84.1222 90.155 83.5393 90.0636 83.5389C89.9417 83.5383 89.8627 84.1509 89.6758 85.0388C89.5671 85.4826 89.3972 86.0028 89.06 86.4303C88.7229 86.8578 88.1879 87.2384 87.6394 87.2358C87.0909 87.2333 86.6051 86.8326 86.333 86.3563C86.0457 85.8799 85.9719 85.3586 85.9283 84.8987C85.8715 83.979 85.92 83.3663 85.7982 83.3504L85.7982 83.3657Z" fill="#241352"/>
<path d="M88.2947 83.9135C88.2333 84.0052 88.2934 84.1893 88.2164 84.3881C88.1087 84.6175 88.0018 84.6783 87.789 84.5547C87.5916 84.4159 87.6074 84.2934 87.7911 84.095C87.9442 83.9425 88.1422 83.9435 88.2036 83.8518C88.2801 83.7756 88.053 83.4681 87.5649 83.5884C87.3514 83.6487 87.0611 83.8158 86.9376 84.183C86.814 84.5655 87.01 85.0107 87.3442 85.2268C87.663 85.4581 88.1505 85.4757 88.4563 85.2166C88.747 84.9575 88.7941 84.636 88.7647 84.406C88.6909 83.9001 88.3104 83.8217 88.2795 83.9135L88.2947 83.9135Z" fill="#241352"/>
<path d="M64.5776 82.7003C64.5017 82.6539 64.18 83.0202 64.2834 83.7409C64.3718 84.4002 64.9919 85.4145 66.1952 85.5121C67.4141 85.5178 68.1193 84.571 68.2594 83.928C68.4301 83.2392 68.1577 82.8242 68.0661 82.8698C67.9441 82.8999 67.9729 83.2678 67.727 83.7263C67.5117 84.1697 66.9148 84.7339 66.2293 84.7154C65.5438 84.6815 64.998 84.066 64.8174 83.5902C64.6062 83.1141 64.6841 82.7467 64.5624 82.7002L64.5776 82.7003Z" fill="#241352"/>
<path d="M67.1572 81.7622C67.1572 81.7622 67.0218 81.3938 66.5039 81.3761C66.2601 81.3749 65.9246 81.4653 65.6795 81.7553C65.4039 82.0451 65.386 82.6272 65.6282 82.9655C65.8398 83.3342 66.3719 83.5971 66.8146 83.3847C67.2576 83.1416 67.3052 82.7281 67.2606 82.4675C67.2162 82.1915 67.0343 81.9914 66.8822 81.9447C66.73 81.8981 66.6384 81.9436 66.6381 82.0049C66.6376 82.1121 66.7741 82.2507 66.6969 82.4801C66.589 82.7554 66.4975 82.7703 66.3006 82.5243C66.119 82.2629 66.3028 82.034 66.5928 81.9128C66.8676 81.7915 67.0959 81.8385 67.1573 81.7469L67.1572 81.7622Z" fill="#241352"/>
<path d="M67.9177 98.6827C68.1313 98.6377 68.1801 97.9484 68.1532 97.1516C68.1264 96.3394 68.0533 95.6649 67.8401 95.6332C67.627 95.6016 67.3343 96.2897 67.3608 97.1785C67.3872 98.0673 67.7041 98.7429 67.9177 98.6827Z" fill="#241352"/>
<path d="M70.6811 104.059C70.8342 103.906 70.4865 103.307 70.0324 102.646C69.5631 101.985 69.1084 101.477 68.9099 101.568C68.7114 101.659 68.8604 102.396 69.3752 103.103C69.89 103.825 70.5281 104.211 70.6812 104.044L70.6811 104.059Z" fill="#241352"/>
<path d="M75.9856 106.857C76.017 106.643 75.3937 106.364 74.633 106.115C73.8724 105.867 73.2181 105.71 73.1105 105.909C73.003 106.092 73.5492 106.601 74.3858 106.88C75.2225 107.16 75.9541 107.087 75.9855 106.872L75.9856 106.857Z" fill="#241352"/>
<path d="M81.9613 106.104C81.8708 105.904 81.1999 106.024 80.422 106.234C79.6441 106.445 79.0184 106.687 79.0325 106.917C79.0468 107.132 79.7776 107.242 80.6318 107.001C81.486 106.76 82.0518 106.288 81.9613 106.104Z" fill="#241352"/>
<path d="M86.3832 102.033C86.1857 101.925 85.7263 102.428 85.2207 103.054C84.7303 103.695 84.3468 104.26 84.4984 104.429C84.6348 104.599 85.2915 104.249 85.8431 103.547C86.3948 102.845 86.5809 102.126 86.3832 102.033Z" fill="#241352"/>
<path d="M87.7358 96.1393C87.5224 96.1689 87.3975 96.8272 87.3329 97.639C87.2682 98.4507 87.2804 99.1249 87.4935 99.1872C87.7065 99.2495 88.0599 98.5923 88.1249 97.704C88.2051 96.8157 87.9493 96.1097 87.7358 96.1393Z" fill="#241352"/>
<path d="M82.6212 95.1653C82.6202 95.3798 83.3203 95.5362 84.1583 95.5095C84.9963 95.4828 85.6828 95.2869 85.6686 95.057C85.6695 94.8426 84.9695 94.6861 84.1314 94.7128C83.2934 94.7395 82.607 94.9354 82.6212 95.1653Z" fill="#241352"/>
<path d="M76.5259 95.3669C76.5249 95.5814 77.225 95.7378 78.063 95.7111C78.9011 95.6844 79.5875 95.4885 79.5733 95.2586C79.5743 95.0442 78.8742 94.8877 78.0362 94.9144C77.1982 94.9411 76.5117 95.137 76.5259 95.3669Z" fill="#241352"/>
<path d="M70.4308 95.5531C70.4299 95.7676 71.1299 95.924 71.968 95.8973C72.806 95.8706 73.4924 95.6747 73.4782 95.4449C73.4792 95.2304 72.7791 95.0739 71.9411 95.1006C71.1031 95.1273 70.4166 95.3233 70.4308 95.5531Z" fill="#241352"/>
<path d="M198.004 94.7516C189.589 59.706 211.014 24.4364 245.857 15.9747C280.7 7.51298 315.768 29.0635 324.182 64.1092C332.597 99.1548 311.173 134.424 276.329 142.886C241.486 151.348 206.419 129.797 198.004 94.7516Z" fill="#FF8C00"/>
<path d="M251.343 57.3485L208.213 73.3744L212.406 55.9104L201.221 52.9928C201.221 52.9928 189.029 87.1215 197.374 88.0798C212.008 89.757 234.188 84.0225 234.188 84.0225L251.328 57.3485L251.343 57.3485Z" fill="#FFAFA6"/>
<path d="M236.216 96.4896L236.151 130.737C247.302 144.657 286.419 126.911 286.419 126.911L286.94 112.908L287.991 79.5537C287.152 66.2643 274.917 59.6795 274.917 59.6795C269.855 57.1122 262.122 55.6357 255.157 55.9403C247.873 56.2741 246.074 59.7594 243.042 66.4263C240.595 71.8087 236.306 76.8454 236.216 96.4896Z" fill="#6F35A4"/>
<path d="M270.571 90.4143C270.571 90.4143 275.878 122.771 268.187 121.938C242.893 119.2 227.826 118.777 227.826 118.777L223.596 127.522C223.498 129.008 271.458 143.069 279.188 138.523C284.658 135.315 293.366 126.668 289.554 100.662L288.664 91.9544L270.586 90.4143L270.571 90.4143Z" fill="#FFAFA6"/>
<path d="M284.579 69.0406C284.579 69.0406 290.45 74.7683 291.677 96.3495L268.834 93.6992C268.834 93.6992 265.193 56.9365 284.579 69.0406Z" fill="#6F35A4"/>
<path d="M273.345 23.7684L272.796 30.6155C272.796 30.6155 278.582 31.424 276.913 36.7334C275.243 42.0429 271.292 39.6953 271.292 39.6953C271.292 39.6953 270.24 53.2976 256.394 48.9271C245.379 45.4432 246.115 31.0733 247.573 18.8366C248.143 14.089 252.622 10.846 257.28 11.7871L265.607 13.4656C270.417 14.4381 273.749 18.8668 273.361 23.7838L273.345 23.7684Z" fill="#FFAFA6"/>
<path d="M272.77 36.3005L268.946 56.3104C268.087 60.8268 263.64 63.6869 259.211 62.5936C255.102 61.5937 252.485 57.5361 253.235 53.341L255.314 41.8734L272.77 36.2852L272.77 36.3005Z" fill="#FFAFA6"/>
<path d="M257.442 36.4435C257.442 36.4435 257.274 36.6266 257.014 36.656C256.771 36.6855 256.391 36.4233 256.302 35.8712C256.182 35.3343 256.247 34.6297 256.327 33.8026C256.392 32.9141 256.472 32.0411 256.537 31.1373C256.783 27.3534 256.812 24.2582 256.599 24.2419C256.385 24.2409 255.991 27.2885 255.745 31.0723C255.695 31.9915 255.645 32.8647 255.595 33.7379C255.561 34.5499 255.527 35.3466 255.753 36.0219C255.932 36.7123 256.647 37.1447 257.089 36.9475C257.517 36.735 257.457 36.4436 257.427 36.4434L257.442 36.4435Z" fill="#241352"/>
<path d="M252.896 47.5013C252.896 47.5013 253.381 48.193 254.52 48.8572C255.645 49.5213 257.409 50.173 259.435 50.2285C261.462 50.2839 263.247 49.7253 264.407 49.1178C265.583 48.5105 266.15 47.9309 266.089 47.854C265.983 47.639 263.278 49.5569 259.439 49.4317C255.615 49.3526 253.004 47.2873 252.881 47.5012L252.896 47.5013Z" fill="#241352"/>
<path d="M255.646 39.2545C255.57 39.3155 255.751 39.7607 256.358 40.1926C256.95 40.6244 258.046 40.9819 259.19 40.6195C260.334 40.2418 261.024 39.3256 261.256 38.6372C261.503 37.9181 261.398 37.458 261.292 37.4575C261.17 37.4569 261.077 37.8548 260.739 38.3896C260.417 38.9244 259.804 39.5804 258.935 39.8522C258.065 40.1239 257.182 39.9359 256.619 39.6881C256.042 39.4403 255.723 39.163 255.631 39.2391L255.646 39.2545Z" fill="#241352"/>
<path d="M273.207 37.3742C273.206 37.4662 273.541 37.6363 274.151 37.4553C274.441 37.3647 274.823 37.106 274.993 36.6624C275.07 36.4483 275.117 36.1727 275.027 35.8965C274.967 35.6204 274.709 35.3281 274.42 35.2348C274.025 35.0798 273.476 35.1691 273.215 35.5969L273.884 35.9525C274.331 34.836 274.548 33.979 274.381 33.9017C274.213 33.8243 273.722 34.5574 273.184 35.6428L273.853 35.9983C273.853 35.9983 273.975 35.9222 274.112 35.9842C274.264 36.0309 274.324 36.1997 274.278 36.4446C274.231 36.6742 274.078 36.842 273.894 36.9638C273.528 37.2072 273.177 37.2668 273.192 37.3895L273.207 37.3742Z" fill="#241352"/>
<path d="M262.589 23.8252C262.649 24.0399 263.273 24.0429 263.973 24.23C264.673 24.4018 265.205 24.726 265.373 24.5736C265.541 24.4365 265.118 23.7144 264.175 23.4649C263.247 23.2154 262.513 23.6256 262.589 23.8252Z" fill="#241352"/>
<path d="M250.622 21.8541C250.713 22.069 251.399 21.965 252.206 22.0454C253.013 22.1104 253.667 22.328 253.79 22.1447C253.928 21.9768 253.306 21.3457 252.27 21.249C251.25 21.1523 250.517 21.6545 250.622 21.8541Z" fill="#241352"/>
<path d="M272.796 30.6152C268.944 26.797 267.83 20.4786 266.818 15.1414C263.226 17.7449 258.286 18.3654 254.165 16.7373C252.863 18.2635 251.333 19.5895 249.637 20.6695C249.163 20.9738 248.583 21.2776 248.05 21.1065C247.396 20.9043 247.11 20.1521 246.961 19.4925C246.483 17.3603 246.463 15.0924 247.219 13.0426C247.959 10.9927 249.522 9.19186 251.552 8.41984C253.719 7.58718 256.155 7.9663 258.392 8.55903C261.77 9.46354 265.025 10.8272 268.033 12.6187C270.981 14.3793 273.82 16.6911 275.054 19.9147C276.289 23.1384 276.261 29.3748 273.221 30.9849" fill="#241352"/>
<path d="M249.835 57.203C253.59 55.7188 224.73 66.3565 224.73 66.3565L227.564 86.1983L238.536 82.6332L249.835 57.2183L249.835 57.203Z" fill="#6F35A4"/>
<path d="M230.478 118.806C230.478 118.806 218.109 114.841 218.529 116.13C218.95 117.419 221.052 117.475 223.161 119.553C223.161 119.553 209.311 119.642 209.976 120.794C210.641 121.947 219.644 122.28 219.704 122.464C219.764 122.663 209.845 122.862 210.068 123.921C210.292 124.979 219.496 124.761 219.496 124.761C219.496 124.761 210.959 125.641 211.122 126.776C211.284 127.926 219.165 127.135 219.165 127.135C219.165 127.135 212.579 127.855 212.742 128.898C212.846 129.527 232.027 129.769 232.071 130.229C232.085 130.474 230.493 118.806 230.493 118.806" fill="#FFAFA6"/>
<path d="M211.594 57.0248C211.594 57.0248 219.169 46.487 217.829 46.4807C216.488 46.4745 215.778 48.4632 213.166 49.8148C213.166 49.8148 217.386 36.6104 216.09 36.8801C214.809 37.15 211.692 45.6246 211.494 45.6084C211.296 45.6074 214.189 36.1051 213.123 35.9775C212.057 35.85 209.396 44.6945 209.396 44.6945C209.396 44.6945 211.232 36.2905 210.09 36.1013C208.963 35.9122 207.252 43.6425 207.252 43.6425C207.252 43.6425 208.607 37.1364 207.587 36.9784C206.963 36.8835 201.206 52.9922 201.206 52.9922C201.359 52.9929 211.579 57.0094 211.579 57.0094" fill="#FFAFA6"/>
<path d="M280.813 86.4303C280.737 86.43 280.445 86.919 280.425 87.9148C280.423 88.4052 280.618 89.1109 281.225 89.5428C281.514 89.7587 281.955 89.914 282.397 89.8241C282.839 89.7342 283.176 89.4293 283.421 89.17C283.911 88.59 284.233 88.2544 284.736 88.1955C285.224 88.1211 285.649 88.2917 285.922 88.5381C286.499 89.0771 286.481 89.7052 286.603 89.6905C286.679 89.7368 286.987 89.0334 286.336 88.1569C286.018 87.7417 285.364 87.4016 284.648 87.4595C284.297 87.4886 283.916 87.6094 283.594 87.853C283.273 88.0967 283.059 88.3715 282.829 88.6156C282.032 89.6998 281.001 88.6377 280.959 87.8561C280.841 87.0281 280.919 86.4308 280.782 86.4149L280.813 86.4303Z" fill="#FBF1FC"/>
<path d="M274.075 80.5302C274.075 80.5302 273.849 79.9622 273.014 79.422C272.604 79.1749 271.904 78.9725 271.217 79.2604C270.881 79.3967 270.514 79.6862 270.359 80.1298C270.205 80.5582 270.279 81.0029 270.384 81.3558C270.61 82.077 270.729 82.522 270.529 82.9961C270.344 83.4549 269.977 83.729 269.611 83.8345C268.848 84.0455 268.332 83.706 268.27 83.8283C268.179 83.8738 268.633 84.5042 269.715 84.402C270.234 84.3431 270.86 83.963 271.183 83.3209C271.337 82.9998 271.43 82.6019 271.401 82.2033C271.357 81.8047 271.237 81.467 271.147 81.1601C270.65 79.9166 272.084 79.5862 272.768 79.9419C273.528 80.2672 273.998 80.6525 274.075 80.5456L274.075 80.5302Z" fill="#FBF1FC"/>
<path d="M274.599 65.8986C274.599 65.8986 274.373 65.3306 273.538 64.7904C273.128 64.5433 272.428 64.3408 271.741 64.6288C271.405 64.7651 271.038 65.0545 270.884 65.4982C270.729 65.9265 270.803 66.3712 270.908 66.7241C271.134 67.4454 271.254 67.8903 271.053 68.3644C270.868 68.8232 270.502 69.0973 270.135 69.2029C269.373 69.4139 268.856 69.0743 268.795 69.1966C268.703 69.2422 269.157 69.8726 270.239 69.7703C270.758 69.7115 271.384 69.3313 271.707 68.6892C271.861 68.3682 271.954 67.9702 271.925 67.5717C271.882 67.1731 271.761 66.8354 271.671 66.5285C271.174 65.285 272.608 64.9546 273.292 65.3102C274.052 65.6355 274.523 66.0208 274.599 65.9139L274.599 65.8986Z" fill="#FBF1FC"/>
<path d="M260.084 84.8784C260.084 84.8784 260.664 84.6972 261.277 83.9033C261.568 83.5062 261.815 82.8331 261.59 82.1119C261.485 81.759 261.228 81.3747 260.802 81.1888C260.391 81.003 259.934 81.0315 259.583 81.1065C258.851 81.2716 258.394 81.3615 257.953 81.0989C257.527 80.8671 257.27 80.4828 257.196 80.1147C257.047 79.3325 257.43 78.8439 257.324 78.7822C257.294 78.6901 256.621 79.0853 256.632 80.1887C256.629 80.7096 256.961 81.3701 257.584 81.7561C257.888 81.9414 258.269 82.0657 258.665 82.0676C259.061 82.0694 259.412 81.9638 259.717 81.9039C260.983 81.5115 261.19 82.9681 260.775 83.6404C260.391 84.3742 259.978 84.8166 260.069 84.8936L260.084 84.8784Z" fill="#FBF1FC"/>
<path d="M250.187 100.141C250.187 100.141 250.458 100.694 251.325 101.158C251.75 101.374 252.466 101.531 253.138 101.181C253.459 101.014 253.81 100.709 253.919 100.25C254.043 99.8064 253.923 99.3615 253.803 99.0238C253.517 98.3176 253.366 97.8878 253.551 97.3983C253.706 96.9393 254.042 96.6191 254.409 96.4829C255.156 96.2106 255.688 96.5042 255.735 96.3972C255.811 96.3515 255.326 95.7517 254.244 95.9305C253.725 96.02 253.129 96.4463 252.867 97.1193C252.728 97.4558 252.665 97.8539 252.74 98.2527C252.799 98.636 252.95 98.9738 253.07 99.2809C253.659 100.479 252.255 100.917 251.541 100.607C250.765 100.343 250.263 100.003 250.187 100.11L250.187 100.141Z" fill="#FBF1FC"/>
<path d="M238.718 75.9528C238.718 75.9528 238.99 76.5057 239.857 76.9695C240.282 77.186 240.998 77.3426 241.67 76.9933C241.99 76.8262 242.342 76.5214 242.451 76.0622C242.575 75.6184 242.455 75.1734 242.335 74.8358C242.048 74.1295 241.898 73.6998 242.083 73.2103C242.237 72.7513 242.574 72.4311 242.94 72.2949C243.688 72.0225 244.22 72.3162 244.266 72.2091C244.343 72.1635 243.858 71.5636 242.775 71.7424C242.257 71.832 241.661 72.2583 241.399 72.9313C241.26 73.2677 241.197 73.6659 241.272 74.0646C241.331 74.448 241.482 74.7858 241.602 75.0928C242.191 76.2908 240.787 76.7286 240.072 76.4188C239.296 76.1547 238.795 75.8153 238.719 75.9222L238.718 75.9528Z" fill="#FBF1FC"/>
<path d="M230.828 72.2386C230.828 72.2386 230.218 72.3124 229.484 72.9679C229.132 73.3034 228.748 73.9298 228.851 74.6658C228.896 75.0338 229.076 75.4637 229.456 75.726C229.821 75.9882 230.277 76.0363 230.643 76.038C231.39 76.0108 231.862 76.013 232.242 76.3366C232.621 76.6448 232.802 77.0747 232.8 77.4578C232.797 78.2546 232.338 78.6662 232.429 78.7432C232.443 78.8352 233.176 78.5782 233.364 77.4911C233.442 76.9704 233.263 76.2647 232.716 75.7872C232.459 75.5408 232.109 75.3553 231.713 75.2768C231.333 75.2137 230.967 75.2427 230.647 75.2412C229.32 75.4036 229.388 73.9175 229.924 73.3377C230.445 72.6812 230.934 72.3311 230.843 72.2234L230.828 72.2386Z" fill="#FBF1FC"/>
<path d="M262.607 112.672C262.607 112.672 262.879 113.225 263.745 113.689C264.171 113.905 264.887 114.062 265.559 113.712C265.879 113.545 266.231 113.24 266.34 112.781C266.464 112.337 266.344 111.893 266.224 111.555C265.937 110.849 265.787 110.419 265.972 109.929C266.126 109.47 266.463 109.15 266.829 109.014C267.577 108.742 268.109 109.035 268.155 108.928C268.232 108.883 267.747 108.283 266.664 108.462C266.146 108.551 265.55 108.977 265.288 109.65C265.149 109.987 265.086 110.385 265.161 110.784C265.22 111.167 265.371 111.505 265.491 111.812C266.08 113.01 264.676 113.448 263.961 113.138C263.185 112.874 262.684 112.534 262.608 112.641L262.607 112.672Z" fill="#FBF1FC"/>
<path d="M245.574 89.3776C245.574 89.3776 246.139 89.135 246.646 88.2793C246.876 87.8513 247.062 87.1473 246.745 86.4563C246.595 86.1185 246.291 85.7646 245.866 85.6247C245.424 85.4848 244.982 85.5746 244.646 85.6803C243.944 85.9375 243.487 86.0733 243.03 85.872C242.574 85.7013 242.286 85.3322 242.166 84.9792C241.926 84.2272 242.248 83.6925 242.142 83.6307C242.096 83.5538 241.485 84.0107 241.617 85.0992C241.691 85.6206 242.084 86.2353 242.738 86.5449C243.057 86.6996 243.453 86.778 243.849 86.7186C244.246 86.6745 244.566 86.5381 244.887 86.4323C246.108 85.8864 246.483 87.3132 246.144 88.0318C245.851 88.8119 245.483 89.3005 245.589 89.3623L245.574 89.3776Z" fill="#FBF1FC"/>
<path d="M242.439 101.836C242.439 101.836 243.004 101.594 243.511 100.738C243.741 100.31 243.927 99.6061 243.611 98.9151C243.46 98.5773 243.157 98.2234 242.731 98.0835C242.289 97.9436 241.847 98.0335 241.512 98.1392C240.81 98.3964 240.352 98.5321 239.896 98.3308C239.439 98.1601 239.152 97.791 239.031 97.438C238.791 96.6861 239.113 96.1513 239.007 96.1048C238.961 96.028 238.35 96.4848 238.482 97.5734C238.556 98.0947 238.949 98.7095 239.603 99.019C239.922 99.1737 240.318 99.2522 240.714 99.1927C241.111 99.1486 241.431 99.0122 241.752 98.9064C242.973 98.3605 243.348 99.7873 243.009 100.506C242.716 101.286 242.348 101.759 242.455 101.836L242.439 101.836Z" fill="#FBF1FC"/>
<path d="M267.267 96.6344C267.343 96.6348 267.514 96.0686 267.32 95.1024C267.215 94.6269 266.868 93.9817 266.184 93.6874C265.849 93.5326 265.392 93.4845 264.965 93.6817C264.553 93.8636 264.292 94.2455 264.108 94.5511C263.754 95.2236 263.509 95.6209 263.035 95.7872C262.578 95.969 262.121 95.9055 261.802 95.7049C261.118 95.3033 260.999 94.6898 260.892 94.7353C260.801 94.7042 260.66 95.4697 261.495 96.1784C261.905 96.5174 262.605 96.7046 263.291 96.4779C263.627 96.3723 263.978 96.1594 264.239 95.8541C264.499 95.5489 264.653 95.2278 264.807 94.9527C265.345 93.7294 266.576 94.532 266.801 95.2838C267.102 96.0514 267.16 96.6646 267.282 96.6498L267.267 96.6344Z" fill="#FBF1FC"/>
<path d="M244.8 111.93C244.877 111.931 245.047 111.365 244.853 110.398C244.749 109.923 244.401 109.278 243.717 108.983C243.382 108.829 242.925 108.78 242.498 108.978C242.086 109.16 241.825 109.541 241.641 109.847C241.287 110.52 241.042 110.917 240.569 111.083C240.111 111.265 239.654 111.201 239.335 111.001C238.651 110.599 238.532 109.986 238.425 110.031C238.334 110 238.193 110.766 239.028 111.474C239.438 111.813 240.138 112.001 240.824 111.774C241.16 111.668 241.512 111.455 241.772 111.15C242.032 110.845 242.186 110.524 242.34 110.249C242.879 109.025 244.109 109.828 244.334 110.58C244.635 111.347 244.694 111.961 244.816 111.946L244.8 111.93Z" fill="#FBF1FC"/>
<path d="M245.654 65.2737C245.73 65.2741 245.901 64.7079 245.707 63.7417C245.602 63.2662 245.255 62.621 244.571 62.3267C244.236 62.1719 243.779 62.1238 243.352 62.321C242.94 62.503 242.679 62.8848 242.495 63.1904C242.141 63.863 241.896 64.2602 241.422 64.4266C240.965 64.6083 240.508 64.5449 240.189 64.3442C239.505 63.9426 239.386 63.3291 239.279 63.3746C239.188 63.3435 239.047 64.109 239.882 64.8178C240.292 65.1568 240.992 65.3439 241.678 65.1173C242.014 65.0116 242.365 64.7987 242.626 64.4935C242.886 64.1882 243.04 63.8672 243.194 63.5921C243.732 62.3688 244.963 63.1713 245.188 63.9232C245.489 64.6907 245.547 65.3039 245.669 65.2891L245.654 65.2737Z" fill="#FBF1FC"/>
<path d="M252.74 118.158C252.74 118.158 253.35 118.161 254.16 117.598C254.557 117.308 255.002 116.743 255.005 115.993C255.007 115.625 254.887 115.18 254.538 114.872C254.204 114.564 253.763 114.47 253.397 114.422C252.651 114.357 252.179 114.294 251.845 113.924C251.496 113.57 251.377 113.125 251.424 112.743C251.519 111.946 252.023 111.611 251.948 111.519C251.948 111.427 251.186 111.592 250.861 112.648C250.706 113.153 250.809 113.874 251.294 114.428C251.522 114.704 251.856 114.936 252.236 115.06C252.617 115.185 252.967 115.186 253.287 115.234C254.628 115.24 254.377 116.71 253.781 117.213C253.184 117.792 252.664 118.081 252.725 118.188L252.74 118.158Z" fill="#FBF1FC"/>
<path d="M279.521 72.4646C279.521 72.4646 278.986 72.7685 278.571 73.6707C278.37 74.1141 278.261 74.8338 278.654 75.4946C278.835 75.8172 279.169 76.1406 279.61 76.2346C280.052 76.3286 280.494 76.1927 280.815 76.0563C281.502 75.7377 281.929 75.5558 282.416 75.7113C282.888 75.8361 283.222 76.1748 283.372 76.5126C283.689 77.2496 283.412 77.8 283.534 77.8465C283.579 77.9233 284.161 77.4051 283.906 76.3312C283.787 75.825 283.332 75.2406 282.648 75.0075C282.313 74.8834 281.917 74.8509 281.521 74.941C281.139 75.0311 280.819 75.1982 280.529 75.3194C279.368 75.9883 278.856 74.5914 279.118 73.8571C279.335 73.0613 279.658 72.5418 279.536 72.48L279.521 72.4646Z" fill="#FBF1FC"/>
<path d="M253.885 67.7332C253.885 67.7332 253.351 68.0371 252.935 68.9393C252.735 69.3827 252.625 70.1024 253.018 70.7632C253.2 71.0858 253.533 71.4092 253.975 71.5032C254.416 71.5972 254.859 71.4613 255.179 71.3249C255.866 71.0063 256.294 70.8244 256.781 70.9799C257.252 71.1047 257.586 71.4434 257.737 71.7812C258.053 72.5182 257.777 73.0686 257.898 73.1151C257.944 73.192 258.525 72.6737 258.271 71.5998C258.151 71.0936 257.697 70.5092 257.012 70.2761C256.678 70.152 256.282 70.1195 255.885 70.2096C255.504 70.2998 255.183 70.4668 254.893 70.5881C253.732 71.2569 253.22 69.86 253.483 69.1257C253.7 68.3299 254.022 67.8104 253.9 67.7486L253.885 67.7332Z" fill="#FBF1FC"/>
<path d="M269.575 94.9594C269.575 94.9594 269.624 94.3927 269.567 93.381C269.511 92.3694 269.396 90.9131 269.252 89.1043C268.948 85.5018 268.468 80.5194 267.899 75.0309C267.768 73.6665 267.713 72.3484 267.901 71.108C268.075 69.8676 268.567 68.7666 269.257 67.8658C270.667 66.0488 272.652 65.108 274.345 64.7175C276.054 64.3117 277.516 64.3339 278.507 64.3692C279.512 64.4045 280.06 64.4684 280.076 64.4071C280.076 64.3612 279.544 64.1901 278.539 64.0475C277.534 63.9202 276.041 63.806 274.226 64.15C272.442 64.4941 270.259 65.434 268.68 67.4034C267.899 68.3804 267.329 69.6343 267.125 70.9818C266.906 72.3293 266.975 73.7241 267.106 75.1038C267.675 80.6076 268.232 85.5597 268.688 89.1476C268.908 90.9415 269.1 92.3981 269.263 93.3949C269.41 94.3917 269.53 94.9439 269.576 94.9441L269.575 94.9594Z" fill="#241352"/>
<path d="M268.56 93.6982C268.529 93.9125 273.736 94.6722 280.177 95.3917C286.619 96.1111 291.858 96.5033 291.89 96.2889C291.921 96.0746 286.714 95.3149 280.272 94.5955C273.831 93.876 268.592 93.4839 268.56 93.6982Z" fill="#241352"/>
<path d="M212.802 102.726C212.61 101.407 212.661 100.166 211.935 98.9981C210.483 96.6776 208.423 97.2502 206.408 98.2675C204.361 99.2846 202.439 99.9039 200.219 98.9282C196.767 97.4104 195.161 92.1317 198.478 89.6801C199.548 88.8883 200.609 90.211 200.452 91.2216C200.247 92.6304 199.539 94.1901 200.737 95.4062C202.345 97.038 204.241 95.6831 205.844 94.955C207.584 94.1817 209.429 94.0064 211.223 94.7503C214.295 96.0211 216.515 100.23 214.065 103.069C213.712 103.465 212.891 103.278 212.817 102.726L212.802 102.726Z" fill="#7E2E83"/>
<path d="M189.446 52.7083C191.827 55.0333 192.725 58.6385 190.427 61.4013C188.267 64.0115 184.105 64.5437 181.433 62.4473C174.98 57.3911 181.772 48.1368 188.757 50.0848C190.05 50.4433 189.722 52.2959 188.442 52.3665C186.4 52.4796 184.205 52.546 182.568 53.9787C180.809 55.5182 180.752 58.1382 182.191 59.9225C185.978 64.6597 192.638 57.7493 188.65 53.5168C188.149 52.9781 188.93 52.2003 189.461 52.7084L189.446 52.7083Z" fill="#FF8C00"/>
<path d="M290.219 48.5941C292.601 50.9191 293.499 54.5243 291.201 57.2871C289.04 59.8973 284.878 60.4296 282.206 58.3331C275.754 53.2769 282.546 44.0226 289.53 45.9706C290.824 46.3291 290.495 48.1817 289.215 48.2523C287.173 48.3654 284.979 48.4318 283.342 49.8645C281.583 51.404 281.525 54.024 282.964 55.8083C286.752 60.5456 293.411 53.6351 289.423 49.3872C288.923 48.8486 289.704 48.0707 290.235 48.5789L290.219 48.5941Z" fill="#7CAAFF"/>
<path d="M324.69 106.816C323.016 112.968 321.176 119.043 319.259 125.117C318.795 126.586 317.422 127.024 316.176 126.175C311.27 122.797 306.364 119.464 301.734 115.719C300.838 114.994 301.043 113.555 301.929 112.946C307.401 109.202 314.801 103.674 321.718 103.676C323.485 103.684 324.693 106.172 322.906 107.206C320.11 108.817 316.756 109.368 313.764 110.611C310.314 112.035 306.893 113.705 303.851 115.882C303.795 114.87 303.723 113.859 303.667 112.847C308.863 116.089 313.752 119.728 318.688 123.352C317.712 123.547 316.736 123.742 315.76 123.921C317.905 117.924 320.096 111.958 322.469 106.055C322.962 104.8 325.077 105.5 324.72 106.816L324.69 106.816Z" fill="#FF7180"/>
<path d="M182.021 80.287C177.737 80.8646 173.241 81.2726 168.915 81.0839C167.331 81.0152 167.402 78.8092 168.926 78.6478C173.133 78.2231 177.581 78.3358 181.8 78.6619C182.653 78.7272 182.982 80.1383 182.006 80.2716L182.021 80.287Z" fill="#50D0AA"/>
<path d="M326.226 80.9562C321.942 81.5337 317.445 81.9417 313.119 81.753C311.535 81.6843 311.606 79.4783 313.13 79.3169C317.337 78.8922 321.785 79.0049 326.004 79.331C326.857 79.3963 327.186 80.8074 326.21 80.9408L326.226 80.9408L326.226 80.9562Z" fill="#50D0AA"/>
<path d="M297.615 73.7744C297.615 73.7744 297.768 73.6525 297.829 73.5762C298.793 72.7225 300.378 72.5614 301.318 73.5925C302.258 74.6388 302.221 76.0638 301.302 77.1015C301.241 77.1778 301.18 77.2541 301.103 77.3151C300.23 78.2917 298.463 78.2528 297.599 77.2987C296.735 76.3446 296.575 74.6889 297.615 73.7744Z" fill="#241352"/>
<path d="M236.26 93.7783C236.458 93.7792 236.658 89.9952 237.061 85.3233C237.463 80.6361 237.313 76.7892 237.069 76.8034C236.871 76.8024 236.671 80.5865 236.268 85.2583C235.866 89.9455 236.016 93.7925 236.26 93.7783Z" fill="#241352"/>
<path d="M211.863 58.1449L200.573 54.9051L199.893 56.9705L211.289 60.5786L211.863 58.1449Z" fill="#241352"/>
<path d="M204.644 57.636C204.64 58.4174 205.262 59.0485 206.039 59.0522C206.816 59.0558 207.444 58.4305 207.447 57.6491C207.451 56.8677 206.829 56.2366 206.052 56.233C205.275 56.2294 204.648 56.8547 204.644 57.636Z" fill="#E5E1EA"/>
<path d="M250.6 26.6656C250.783 26.7737 251.149 26.5916 251.516 26.1796C251.869 25.7829 252.023 25.2933 251.841 25.1699C251.659 25.0618 251.292 25.2439 250.925 25.6559C250.573 26.0526 250.418 26.5422 250.6 26.6656Z" fill="#241352"/>
<path d="M260.893 28.1691C261.075 28.2772 261.441 28.095 261.809 27.6831C262.161 27.2863 262.316 26.7968 262.134 26.6733C261.951 26.5652 261.585 26.7474 261.217 27.1594C260.865 27.5561 260.71 28.0457 260.893 28.1691Z" fill="#241352"/>
</svg>
